<svg width="113" height="107" fill="none" xmlns="http://www.w3.org/2000/svg"><path d="M88.705 1.127C74.676 2.635 63.343 6.15 53.298 12.111 38.999 20.595 28.964 34.346 24.89 51.038c-2.937 12.034-3.011 25.173-.218 38.797.781 3.81.964 4.371 1.527 4.687a1.343 1.343 0 0 0 1.789-.454c.29-.442.269-.652-.376-3.716-1.722-8.197-2.307-14.226-2.133-21.987.313-13.898 3.539-25.185 10.174-35.595C46.192 16.234 65.269 6.024 89.835 3.771c1.191-.109 2.399-.246 2.684-.305 1.096-.225 1.454-1.64.586-2.322-.573-.451-.364-.451-4.4-.017M34.026 90.07c-.257.26-1.103 2.301-2.176 5.257l-1.755 4.834-2.288-1.329c-1.258-.73-3.788-2.206-5.622-3.279-1.865-1.091-3.546-1.951-3.814-1.951-1.047 0-1.617 1.401-.903 2.219.306.351 11.177 6.763 12.683 7.481.617.294.724.297 1.241.03.52-.269.739-.765 2.692-6.095 1.17-3.19 2.129-6.047 2.133-6.348.012-1.103-1.387-1.626-2.191-.819" fill-rule="evenodd" fill="#000"/></svg>