<svg width="8" height="6" viewBox="0 0 8 6" fill="none" xmlns="http://www.w3.org/2000/svg">
<path fill-rule="evenodd" clip-rule="evenodd" d="M4.20009 5.47775C4.06398 5.66502 3.87949 5.77021 3.68713 5.77021C3.49477 5.77021 3.31028 5.66502 3.17417 5.47775L0.436136 1.70709C0.300027 1.51949 0.223587 1.26509 0.223633 0.999849C0.223678 0.73461 0.300205 0.48026 0.436378 0.292752C0.572552 0.105244 0.757217 -6.24843e-05 0.94975 2.78156e-08C1.14228 6.25399e-05 1.32691 0.105488 1.46302 0.293085L3.68713 3.35708L5.91124 0.293085C6.04808 0.110836 6.23141 0.00992085 6.42173 0.0120748C6.61206 0.0142288 6.79416 0.119279 6.9288 0.304601C7.06345 0.489922 7.13988 0.740686 7.14162 1.00288C7.14337 1.26508 7.07029 1.51773 6.93812 1.70642L4.20057 5.47842L4.20009 5.47775Z" fill="#002926"/>
</svg>
