<svg width="26" height="15" fill="none" xmlns="http://www.w3.org/2000/svg"><path d="M24.158.864a1.258 1.258 0 0 0-.246.093c-.064.034-2.625 2.528-5.69 5.543-3.065 3.015-5.58 5.482-5.589 5.482-.009 0-2.513-2.457-5.565-5.46C3.723 3.231 1.446 1.023 1.337.964.909.733.302.957.129 1.408a.915.915 0 0 0 .053.716c.055.092 1.562 1.605 3.35 3.363 1.787 1.758 4.443 4.372 5.901 5.81 1.928 1.902 2.702 2.638 2.838 2.7.266.12.502.11.763-.033.287-.157 11.944-11.624 12.089-11.891.165-.306.104-.689-.154-.961a.87.87 0 0 0-.811-.248" fill="#335451" fill-rule="evenodd"/></svg>