<svg width="14" height="26" viewBox="0 0 14 26" fill="none" xmlns="http://www.w3.org/2000/svg">
<path d="M13.2692 24.9639C13.4311 24.7992 13.5221 24.576 13.5221 24.3433C13.5221 24.1106 13.4311 23.8873 13.2692 23.7227L2.35202 12.6334L13.2692 1.5441C13.4219 1.37761 13.5051 1.15741 13.5011 0.929889C13.4972 0.702364 13.4064 0.485279 13.248 0.32437C13.0896 0.163461 12.8758 0.0712898 12.6518 0.0672754C12.4278 0.0632609 12.211 0.147716 12.047 0.302849L0.517358 12.0128C0.355423 12.1774 0.264465 12.4006 0.264465 12.6334C0.264465 12.8661 0.355423 13.0893 0.517358 13.254L12.047 24.9639C12.2092 25.1284 12.429 25.2208 12.6581 25.2208C12.8873 25.2208 13.107 25.1284 13.2692 24.9639Z" fill="#335451"/>
</svg>
