<svg width="126" height="123" fill="none" xmlns="http://www.w3.org/2000/svg"><path d="M66.15 35.524c-14.417.617-29.296 5.91-43.566 15.498-5.127 3.445-11.962 8.945-12.177 9.799-.264 1.054.897 2.018 1.83 1.518.247-.132 1.399-1.041 2.559-2.019 11.61-9.792 25.294-17.031 38.02-20.112 6.561-1.59 11.349-2.085 18.568-1.922 4.943.111 6.97.297 10.726.981 12.848 2.34 26.14 9.151 37.973 19.457 3.828 3.333 3.901 3.371 4.772 2.501 1.062-1.063.793-1.424-4.199-5.626-13.886-11.691-29.482-18.64-44.636-19.887-3.675-.303-6.106-.349-9.87-.188M6.525 52.423c-.239.305-.435.754-.436.998 0 .244-.283 3.546-.628 7.338-.443 4.867-.565 7.012-.415 7.293.444.829.781.843 6.958.303 3.273-.286 6.162-.57 6.421-.631.258-.061.624-.346.812-.634.289-.441.302-.621.081-1.154-.151-.366-.47-.684-.759-.756-.274-.069-2.776.079-5.562.329-2.785.25-5.098.42-5.139.379-.042-.042.156-2.575.44-5.63.634-6.811.647-7.579.138-8.04-.579-.524-1.407-.435-1.911.205" fill-rule="evenodd" fill="#000"/></svg>