<svg width="104" height="52" fill="none" xmlns="http://www.w3.org/2000/svg"><path d="M78.693 4.754c-4.43.564-8.879 1.764-12.74 3.437-1.72.745-4.432 2.103-5.324 2.666-.665.42-.673.421-1.14.094-.782-.548-2.395-1.061-3.842-1.223-3.309-.37-7.432.617-12.313 2.948-9.151 4.37-17.407 11.636-24.855 21.876-1.182 1.625-1.492 2.174-1.492 2.643 0 .767.511 1.285 1.267 1.285.697 0 .936-.242 2.911-2.947 5.082-6.961 11.303-13.047 17.409-17.034 6.143-4.011 12.979-6.548 16.445-6.104 1.168.149 2.184.415 2.17.568-.006.068-.605.553-1.332 1.077-1.68 1.213-3.395 2.803-4.052 3.759-.282.409-.712 1.271-.956 1.916-.38 1.004-.432 1.37-.363 2.558.094 1.624.504 2.682 1.444 3.723 2.263 2.505 5.876 2.408 8.573-.231 2.8-2.739 3.617-7.789 1.892-11.69-.186-.421-.291-.844-.232-.939.185-.299 5.162-2.658 7.007-3.321 4.459-1.602 8.511-2.367 13.179-2.489 5.918-.155 10.039.606 14.963 2.762 1.376.603 1.6.654 2.043.471.59-.245.832-.638.832-1.354 0-.748-.458-1.093-2.662-2.003A37.1 37.1 0 0 0 89.96 5c-2.566-.459-8.562-.59-11.267-.246m-18.447 11.45c.15.495.261 1.519.26 2.378-.008 3.439-1.789 6.123-4.287 6.458-1.05.141-1.801-.223-2.442-1.183-.777-1.163-.788-2.38-.034-3.889.591-1.182 1.404-1.979 4.047-3.971 1.958-1.475 1.949-1.475 2.456.207M8.679 37.254c-.335.335-.43.794-.627 3.046-.149 1.699-.646 3.902-1.567 6.933-.987 3.251-1.032 3.488-.762 3.993.721 1.347 2.662.767 11.177-3.343 6.381-3.08 9.392-4.426 10.749-4.808.571-.16 1.174-.449 1.341-.642.443-.513.383-1.289-.14-1.812-.395-.395-.532-.431-1.242-.324-1.549.232-4.875 1.642-10.49 4.447-2.697 1.348-7.655 3.616-7.903 3.616-.09 0 .061-.76.336-1.69.753-2.544 1.198-4.94 1.314-7.081.099-1.811.083-1.947-.266-2.297-.479-.478-1.46-.498-1.92-.038" fill-rule="evenodd" fill="#000"/></svg>