<svg width="66" height="78" fill="none" xmlns="http://www.w3.org/2000/svg"><path d="M13.2 12.714c-6.504 1.352-11.983 2.54-12.177 2.641-.373.195-.693.732-.693 1.163 0 .143.087.415.192.605.106.189 4.714 5.049 10.24 10.8 7.626 7.937 10.138 10.486 10.423 10.58.51.168.958.05 1.358-.36.414-.423.519-.913.302-1.413-.094-.218-3.277-3.618-7.61-8.13-4.097-4.265-7.6-7.914-7.785-8.109l-.337-.354.887.272c2.713.833 8.163 2.848 11.745 4.343 22.849 9.534 37.932 22.343 43.066 36.573.452 1.254.869 1.707 1.565 1.701.566-.005.906-.178 1.19-.608.309-.47.267-.866-.235-2.206-2.401-6.41-6.229-12.059-11.994-17.697-1.052-1.029-2.481-2.359-3.177-2.956-8.833-7.579-20.734-14.226-35.059-19.582-2.25-.842-7.809-2.721-8.481-2.868-.201-.044-.349-.097-.329-.117.02-.02 4.485-.959 9.922-2.086 5.437-1.127 9.998-2.124 10.137-2.214.138-.091.335-.342.438-.558.268-.565.154-1.102-.328-1.546-.33-.306-.463-.356-.911-.345-.288.007-5.845 1.119-12.349 2.471" fill-rule="evenodd" fill="#000"/></svg>