<svg width="97" height="85" fill="none" xmlns="http://www.w3.org/2000/svg"><path d="M11.317 16.746c-.934.585-2.098 1.268-2.587 1.517-.786.401-4.85 2.042-7.008 2.83-.58.212-.836.411-.985.765-.303.72-.13 1.198.697 1.928 1.132.999 3.033 2.049 10.311 5.701 3.676 1.844 7.353 3.806 8.219 4.385 1.046.699 1.726 1.048 2.045 1.048.668 0 1.271-.639 1.271-1.346 0-1.205-1.431-2.104-10.943-6.88-3.718-1.867-6.905-3.502-7.083-3.635l-.323-.241.323-.119c3.374-1.246 7.356-3.303 8.824-4.56.783-.67.87-1.427.237-2.061-.621-.621-1.12-.51-2.998.668m9.645 5.068c-2.024.09-2.085.103-2.465.545-.507.59-.493 1.097.047 1.739l.437.52 2.998-.109c8.451-.307 17.18.802 24.011 3.052 6.787 2.235 12.621 5.591 15.015 8.638.756.962 1.688 2.689 1.534 2.842-.048.049-.772-.097-1.607-.324-5.308-1.44-8.233-1.097-10.4 1.22-3.735 3.993-.817 9.717 4.95 9.71 3.636-.004 7.493-2.335 9.193-5.556l.569-1.077 1.706.777c5.308 2.418 9.951 5.691 13.712 9.665 4.461 4.713 7.109 9.466 8.748 15.7.388 1.473.805 1.977 1.637 1.977.647 0 1.265-.643 1.265-1.316 0-1.008-1.26-5.101-2.242-7.282-1.922-4.272-4.117-7.502-7.544-11.1-4.127-4.333-9.99-8.343-15.515-10.612-.623-.255-1.191-.514-1.264-.575-.072-.061-.242-.648-.377-1.305-.769-3.727-3.998-7.095-9.87-10.296-7.632-4.159-16.205-6.314-27.128-6.817-3.681-.169-3.954-.17-7.41-.016m38.45 19.323c1.935.51 3.153.895 3.153.997 0 .272-.777 1.502-1.321 2.093-2.411 2.616-6.41 3.481-8.51 1.84-.573-.448-1.161-1.426-1.161-1.932.001-1.364.949-2.686 2.315-3.229 1.132-.449 3.286-.359 5.524.231" fill-rule="evenodd" fill="#000"/></svg>