<svg width="14" height="26" viewBox="0 0 14 26" fill="none" xmlns="http://www.w3.org/2000/svg">
<path d="M0.278238 0.505196C0.116303 0.669867 0.0253476 0.893086 0.0253476 1.12582C0.0253476 1.35856 0.116303 1.58178 0.278238 1.74645L11.1954 12.8357L0.278239 23.925C0.125494 24.0915 0.0423402 24.3117 0.0462923 24.5392C0.0502453 24.7668 0.140997 24.9838 0.29943 25.1447C0.457863 25.3057 0.671606 25.3978 0.895629 25.4018C1.11965 25.4059 1.33646 25.3214 1.50039 25.1663L13.0301 13.4564C13.192 13.2917 13.283 13.0685 13.283 12.8357C13.283 12.603 13.192 12.3798 13.0301 12.2151L1.50039 0.505196C1.33825 0.340729 1.11847 0.248351 0.889313 0.248351C0.660159 0.248351 0.440375 0.340729 0.278238 0.505196Z" fill="#335451"/>
</svg>
