<svg width="10" height="6" fill="none" xmlns="http://www.w3.org/2000/svg"><path d="M.972.266c-.61.161-.912.83-.636 1.413.05.106.169.228 2.053 2.115C3.942 5.35 4.41 5.81 4.49 5.857c.291.173.646.185.96.033.121-.059.181-.116 2.105-2.038 1.13-1.129 2.006-2.016 2.041-2.068.033-.05.083-.155.11-.233a.723.723 0 0 0 .048-.309.946.946 0 0 0-.326-.735.938.938 0 0 0-.67-.257.95.95 0 0 0-.454.103c-.105.05-.211.152-1.708 1.646L5 3.591 3.404 1.997 1.808.403 1.667.336a1 1 0 0 0-.695-.07" fill="#002926" fill-rule="evenodd"/></svg>