<svg width="76" height="57" fill="none" xmlns="http://www.w3.org/2000/svg"><path d="M9.929.251c-.454.183-.809.751-.809 1.296 0 .719.486 1.168 1.465 1.356 4.563.875 7.389 1.794 11.252 3.663 9.938 4.806 19.71 13.811 28.821 26.557 3.61 5.051 7.133 10.738 10.184 16.437l.594 1.109-9.343-6.232c-5.139-3.427-9.549-6.288-9.801-6.356-.64-.173-1.25.186-1.492.88-.366 1.044-.964.583 12.164 9.367 6.557 4.386 12.127 8.083 12.377 8.215.412.216.505.222.955.063.274-.097.612-.33.751-.518.243-.328.268-.846.614-12.667.199-6.778.33-12.506.292-12.728-.094-.553-.708-1.053-1.292-1.053-.612 0-1.268.506-1.36 1.047-.071.417-.572 17.055-.577 19.15l-.002 1.146-.708-1.33c-5.762-10.823-11.311-19.1-18.216-27.17-1.964-2.294-7.381-7.721-9.571-9.589C28.399 6.221 20.588 2.135 12.54.502 10.582.104 10.348.082 9.929.251" fill-rule="evenodd" fill="#000"/></svg>