<svg width="91" height="91" fill="none" xmlns="http://www.w3.org/2000/svg"><path d="M71.006.717c-.467.087-1.84 1.475-3.041 3.075-.532.709-2.299 3.302-3.927 5.763-3.725 5.63-5.551 8.21-6.662 9.409-.744.804-.873 1.029-.873 1.518 0 .704.381 1.166 1.07 1.295 1.275.239 2.246-.927 8.226-9.882 2.168-3.247 4.142-6.139 4.386-6.426l.443-.522.347 1.432c.537 2.218 1.444 4.827 2.332 6.709 1.072 2.274 1.655 2.735 2.688 2.124.528-.311.777-.941.602-1.52-.07-.232-.467-1.138-.882-2.014-.415-.876-.93-2.104-1.143-2.73-.483-1.41-1.772-6.451-1.772-6.926 0-.408-.7-1.211-1.137-1.305a2.01 2.01 0 0 0-.657 0M67.678 18.15c-.398.16-.639.985-.798 2.728-.932 10.209-3.204 18.668-6.966 25.934-3.209 6.199-7.177 10.969-10.462 12.579-.866.424-2.338.878-2.255.695.421-.922 1.687-4.281 1.87-4.961.76-2.821.272-5.559-1.29-7.254-2.361-2.562-5.749-2.711-8.104-.356-1.391 1.392-2.06 3.101-2.06 5.268 0 3.332 1.72 6.802 4.318 8.709.545.4.991.776.991.837 0 .192-2.107 3.481-3.002 4.686-4.029 5.425-9.259 9.917-14.801 12.714-3.07 1.549-7.213 2.772-10.938 3.229-1.48.181-2.019.447-2.238 1.106-.095.285-.063.55.111.917.368.775.78.9 2.332.705 8.812-1.102 16.396-4.959 23.232-11.814 2.863-2.872 5.915-6.882 7.596-9.981l.513-.946.835-.004C51 62.92 55.901 58.87 60.508 51.417c4.857-7.859 8.024-18.318 9.109-30.077.197-2.137.153-2.529-.336-2.984-.315-.294-1.126-.398-1.603-.206M45.01 49.08c1.327.778 1.937 2.563 1.565 4.583-.175.952-.998 3.234-1.888 5.232l-.393.883-.476-.276c-.744-.432-2.027-1.938-2.543-2.985-1.302-2.645-1.21-5.552.221-6.982 1.054-1.052 2.235-1.205 3.514-.455" fill-rule="evenodd" fill="#000"/></svg>