<svg width="8" height="14" viewBox="0 0 8 14" fill="none" xmlns="http://www.w3.org/2000/svg">
<path fill-rule="evenodd" clip-rule="evenodd" d="M7.44435 6.29294C7.63314 6.48046 7.7392 6.73477 7.7392 6.99994C7.7392 7.2651 7.63314 7.51941 7.44435 7.70694L1.74751 13.3639C1.65461 13.4594 1.54349 13.5356 1.42063 13.588C1.29776 13.6404 1.16562 13.668 1.03191 13.6692C0.898192 13.6703 0.765585 13.645 0.641824 13.5948C0.518062 13.5445 0.405623 13.4702 0.311069 13.3763C0.216515 13.2824 0.141739 13.1708 0.091104 13.0479C0.040469 12.925 0.0149894 12.7933 0.0161513 12.6605C0.0173132 12.5278 0.0450938 12.3965 0.0978719 12.2745C0.15065 12.1525 0.227368 12.0422 0.323551 11.9499L5.30841 6.99994L0.323551 2.04994C0.14011 1.86133 0.0386061 1.60873 0.0409006 1.34653C0.043195 1.08434 0.149104 0.833526 0.335818 0.648118C0.522532 0.46271 0.775111 0.357541 1.03915 0.355262C1.3032 0.352984 1.55758 0.453778 1.74751 0.635936L7.44435 6.29294Z" fill="white"/>
</svg>
