<svg width="36" height="37" fill="none" xmlns="http://www.w3.org/2000/svg"><path d="M21.757.852c-1.122.145-1.901 1.389-1.572 2.513.121.416.208.534 1.165 1.582 5.45 5.965 9.662 11.804 10.218 14.165.196.834.289 1.04.619 1.375.449.457.786.6 1.413.6.67.001 1.019-.15 1.465-.632.499-.539.639-1.075.488-1.876-.286-1.526-1.337-3.65-3.079-6.219-1.896-2.797-5.191-6.871-8.214-10.155-.999-1.086-1.266-1.282-1.846-1.358a3.08 3.08 0 0 0-.657.005M1.926 11.946c-.303.092-.81.435-.987.667-.459.601-.566 1.405-.271 2.034.21.449.534.796.912.979.171.083.769.274 1.33.425 2.834.765 5.954 1.712 7.86 2.388 4.75 1.684 8.797 3.724 12.026 6.061.938.678 1.233.795 1.876.741a1.973 1.973 0 0 0 1.814-1.959 1.936 1.936 0 0 0-.457-1.291c-.339-.384-1.943-1.518-3.499-2.472-1.726-1.058-4.179-2.324-6.18-3.188-3.172-1.37-6.892-2.626-11.79-3.981-1.592-.44-2.206-.535-2.634-.404M21.36 29.675c-3.695.442-9.133 1.76-10.852 2.631-1.082.548-1.372 2.09-.569 3.029.374.436.986.725 1.537.725.131 0 .783-.184 1.474-.416a34.023 34.023 0 0 1 3.28-.957 50.377 50.377 0 0 1 5.82-1.059c.936-.108 1.3-.235 1.691-.588.636-.575.819-1.566.434-2.36-.172-.356-.704-.825-1.107-.976-.383-.143-.705-.149-1.708-.029" fill-rule="evenodd" fill="#000"/></svg>