<svg width="14" height="12" fill="none" xmlns="http://www.w3.org/2000/svg"><path d="M7.42.394a.607.607 0 0 0-.397.389.652.652 0 0 0 .036.412c.022.042.975 1.014 2.119 2.159l2.08 2.082-5.31.006-5.31.006-.114.071a.605.605 0 0 0-.185.185c-.063.101-.071.135-.071.293 0 .158.008.191.071.293.044.07.114.141.185.184l.114.071 5.31.006 5.31.006-2.08 2.082c-1.144 1.146-2.097 2.117-2.119 2.16a.647.647 0 0 0-.034.418.5.5 0 0 0 .149.229c.172.172.351.213.586.136.105-.035.33-.253 2.711-2.631 2.019-2.016 2.61-2.618 2.655-2.708a.549.549 0 0 0 0-.493c-.045-.089-.634-.69-2.643-2.696C8.733 1.307 7.87.461 7.809.433 7.706.387 7.504.366 7.42.394" fill="#fff" fill-rule="evenodd"/></svg>