<svg width="50" height="72" fill="none" xmlns="http://www.w3.org/2000/svg"><path d="M1.458 3.639c-.56.296-.805.676-.805 1.249 0 .321.838 2.077 6.349 13.303 3.492 7.114 6.43 13.056 6.528 13.206.254.387.798.635 1.277.581.431-.049.731-.242 1.013-.652.432-.63.624-.181-4.809-11.233-2.713-5.518-4.922-10.042-4.909-10.054.075-.07 4.247 3.045 6.856 5.117 6.539 5.196 12.384 10.703 17.215 16.219 8.847 10.102 14.273 20.269 15.901 29.797.246 1.443.441 3.229.573 5.264.074 1.14.14 1.314.635 1.684.174.13.355.172.745.172.638 0 1-.227 1.244-.779.152-.344.162-.485.11-1.55-.511-10.511-5.073-21.246-13.701-32.243C28.693 24.814 18.875 15.7 7.879 7.912c-.921-.652-1.524-1.13-1.446-1.145.074-.015 4.479.429 9.789.985 5.425.568 9.863.997 10.132.978.391-.026.527-.077.737-.277.353-.336.492-.632.492-1.046 0-.464-.321-1.009-.701-1.19-.216-.102-3.445-.468-12.621-1.427A2777.02 2777.02 0 0 0 1.819 3.503c-.061.002-.223.063-.361.136" fill-rule="evenodd" fill="#000"/></svg>