<svg width="13" height="11" viewBox="0 0 13 11" fill="none" xmlns="http://www.w3.org/2000/svg">
<path d="M1.66679 4.66673L1.19545 5.13806L0.724121 4.66673L1.19545 4.19539L1.66679 4.66673ZM13.0001 10.0001C13.0001 10.1769 12.9299 10.3464 12.8049 10.4715C12.6798 10.5965 12.5103 10.6667 12.3335 10.6667C12.1566 10.6667 11.9871 10.5965 11.862 10.4715C11.737 10.3464 11.6668 10.1769 11.6668 10.0001H13.0001ZM4.52879 8.47139L1.19545 5.13806L2.13812 4.19539L5.47145 7.52873L4.52879 8.47139ZM1.19545 4.19539L4.52879 0.862061L5.47145 1.80473L2.13812 5.13806L1.19545 4.19539ZM1.66679 4.00006H8.33345V5.33339H1.66679V4.00006ZM13.0001 8.66673V10.0001H11.6668V8.66673H13.0001ZM8.33345 4.00006C9.57113 4.00006 10.7581 4.49173 11.6333 5.3669C12.5085 6.24207 13.0001 7.42905 13.0001 8.66673H11.6668C11.6668 7.78267 11.3156 6.93483 10.6905 6.3097C10.0654 5.68458 9.21751 5.33339 8.33345 5.33339V4.00006Z" fill="white"/>
</svg>
