<svg width="16" height="16" viewBox="0 0 16 16" fill="none" xmlns="http://www.w3.org/2000/svg">
<path d="M12.9595 12.5C12.127 12.5 11.4595 13.1675 11.4595 14C11.4595 14.3978 11.6175 14.7794 11.8988 15.0607C12.1801 15.342 12.5616 15.5 12.9595 15.5C13.3573 15.5 13.7388 15.342 14.0201 15.0607C14.3014 14.7794 14.4595 14.3978 14.4595 14C14.4595 13.6022 14.3014 13.2206 14.0201 12.9393C13.7388 12.658 13.3573 12.5 12.9595 12.5ZM0.959473 0.5V2H2.45947L5.15947 7.6925L4.13947 9.53C4.02697 9.74 3.95947 9.9875 3.95947 10.25C3.95947 10.6478 4.11751 11.0294 4.39881 11.3107C4.68012 11.592 5.06165 11.75 5.45947 11.75H14.4595V10.25H5.77447C5.72474 10.25 5.67705 10.2302 5.64189 10.1951C5.60673 10.1599 5.58697 10.1122 5.58697 10.0625C5.58697 10.025 5.59447 9.995 5.60947 9.9725L6.28447 8.75H11.872C12.4345 8.75 12.9295 8.435 13.1845 7.9775L15.8695 3.125C15.922 3.005 15.9595 2.8775 15.9595 2.75C15.9595 2.55109 15.8805 2.36032 15.7398 2.21967C15.5992 2.07902 15.4084 2 15.2095 2H4.11697L3.41197 0.5M5.45947 12.5C4.62697 12.5 3.95947 13.1675 3.95947 14C3.95947 14.3978 4.11751 14.7794 4.39881 15.0607C4.68012 15.342 5.06165 15.5 5.45947 15.5C5.8573 15.5 6.23883 15.342 6.52013 15.0607C6.80144 14.7794 6.95947 14.3978 6.95947 14C6.95947 13.6022 6.80144 13.2206 6.52013 12.9393C6.23883 12.658 5.8573 12.5 5.45947 12.5Z" fill="white"/>
</svg>
