<svg width="35" height="35" viewBox="0 0 35 35" fill="none" xmlns="http://www.w3.org/2000/svg">
<path d="M26.2062 11.2274L23.6879 11.4926L24.7871 6.12233C24.8858 5.63844 25.1139 5.19037 25.4471 4.82586C25.7803 4.46135 26.2062 4.19404 26.6793 4.05241L31.7351 2.5321C32.7387 2.23132 33.7504 2.98054 33.7504 4.03054C33.7504 5.01765 32.7687 5.70671 31.8418 5.37038L31.1391 5.21179L28.3062 6.05124C28.0308 6.13322 27.7816 6.28591 27.5835 6.49411C27.3853 6.70231 27.2452 6.95877 27.1769 7.23796L26.2062 11.2274ZM23.5949 22.627L21.8422 30.0782L19.7121 29.3262L21.0246 22.627H23.5949Z" fill="#65878D"/>
<path d="M22.3562 27.8906H5.15155V30.1684H21.968L22.3562 27.8906Z" fill="#65878D"/>
<path d="M0.533202 13.1469L2.55937 23.0235C2.71523 23.7891 3.38789 24.336 4.16719 24.336H22.9031C23.0268 24.336 23.1469 24.2942 23.2438 24.2172C23.3406 24.1402 23.4085 24.0327 23.4363 23.9121L26.723 9.69065C26.8078 9.32697 26.5125 8.99065 26.1406 9.02346L1.99336 11.1836C1.76324 11.2041 1.54006 11.273 1.33844 11.3858C1.13682 11.4986 0.961319 11.6528 0.823447 11.8381C0.685575 12.0235 0.588445 12.2359 0.538425 12.4615C0.488405 12.687 0.486625 12.9206 0.533202 13.1469ZM4.34766 13.4449L5.5125 13.341C5.62603 13.3308 5.74044 13.3444 5.84844 13.3808C5.95644 13.4173 6.05567 13.4758 6.13979 13.5527C6.22391 13.6296 6.29108 13.7232 6.33703 13.8276C6.38297 13.9319 6.40668 14.0446 6.40664 14.1586V15.4766C6.40664 15.9305 6.04023 16.2969 5.58633 16.2969H4.36133C3.97305 16.2969 3.63672 16.0235 3.55742 15.6406L3.37695 14.7547C3.34506 14.6039 3.34554 14.4481 3.37836 14.2975C3.41119 14.147 3.47562 14.0051 3.56738 13.8813C3.65914 13.7574 3.77615 13.6545 3.91066 13.5793C4.04517 13.5041 4.19412 13.4583 4.34766 13.4449ZM14.7957 18.4817H16.3488C16.8027 18.4817 17.1691 18.8481 17.1691 19.302V21.0547C17.1691 21.5086 16.8027 21.875 16.3488 21.875H14.7957C14.3418 21.875 13.9754 21.5086 13.9754 21.0547V19.302C13.9754 18.8481 14.3418 18.4817 14.7957 18.4817ZM16.3488 16.2942H14.7957C14.3418 16.2942 13.9754 15.9278 13.9754 15.4738V13.3328C13.9754 12.909 14.3008 12.5535 14.7219 12.5153L16.275 12.3758C16.3885 12.3656 16.5029 12.3791 16.6109 12.4156C16.7189 12.452 16.8182 12.5106 16.9023 12.5875C16.9864 12.6644 17.0536 12.758 17.0995 12.8623C17.1455 12.9666 17.1692 13.0794 17.1691 13.1934V15.4738C17.1691 15.9278 16.8027 16.2942 16.3488 16.2942ZM11.7879 19.302V21.0547C11.7879 21.5086 11.4215 21.875 10.9676 21.875H9.41445C8.96055 21.875 8.59414 21.5086 8.59414 21.0547V19.302C8.59414 18.8481 8.96055 18.4817 9.41445 18.4817H10.9676C11.4215 18.4817 11.7879 18.8481 11.7879 19.302ZM10.9676 16.2942H9.41445C8.96055 16.2942 8.59414 15.9278 8.59414 15.4738V13.8141C8.59414 13.3903 8.91953 13.0348 9.34062 12.9965L10.8937 12.8571C11.0073 12.8468 11.1217 12.8604 11.2297 12.8968C11.3377 12.9333 11.4369 12.9918 11.521 13.0687C11.6052 13.1457 11.6723 13.2393 11.7183 13.3436C11.7642 13.4479 11.7879 13.5606 11.7879 13.6746V15.4738C11.7879 15.9278 11.4215 16.2942 10.9676 16.2942ZM23.4746 12.8106L22.8156 15.6571C22.7739 15.8375 22.6722 15.9985 22.5272 16.1137C22.3822 16.2289 22.2024 16.2916 22.0172 16.2914H20.177C19.723 16.2914 19.3566 15.925 19.3566 15.4711V12.8516C19.3566 12.4278 19.682 12.0723 20.1031 12.034L22.5996 11.8098C23.1574 11.7606 23.6004 12.2692 23.4746 12.8106ZM20.5105 21.875H19.9062C19.6055 21.875 19.3594 21.6289 19.3594 21.3281V19.302C19.3594 18.8481 19.7258 18.4817 20.1797 18.4817H21.134C21.6617 18.4817 22.0527 18.9738 21.9324 19.4879L21.577 21.0301C21.5203 21.2704 21.3842 21.4846 21.1906 21.638C20.9971 21.7913 20.7575 21.8748 20.5105 21.875ZM4.30664 19.2938C4.21914 18.8727 4.5418 18.4789 4.97109 18.4789H5.58633C6.04023 18.4789 6.40664 18.8453 6.40664 19.2992V21.1942C6.40664 21.374 6.33519 21.5465 6.20802 21.6737C6.08085 21.8008 5.90836 21.8723 5.72851 21.8723C5.20898 21.8723 4.76055 21.5059 4.65664 20.9973L4.30664 19.2938Z" fill="#002926"/>
<path d="M20.6555 32.0825C22.3166 32.0825 23.6633 30.7359 23.6633 29.0747C23.6633 27.4135 22.3166 26.0669 20.6555 26.0669C18.9943 26.0669 17.6476 27.4135 17.6476 29.0747C17.6476 30.7359 18.9943 32.0825 20.6555 32.0825Z" fill="#2F2F2F"/>
<path d="M20.6555 30.4773C21.4302 30.4773 22.0582 29.8493 22.0582 29.0746C22.0582 28.2999 21.4302 27.6719 20.6555 27.6719C19.8808 27.6719 19.2527 28.2999 19.2527 29.0746C19.2527 29.8493 19.8808 30.4773 20.6555 30.4773Z" fill="#65878D"/>
<path d="M6.20703 32.0825C7.8682 32.0825 9.21484 30.7359 9.21484 29.0747C9.21484 27.4135 7.8682 26.0669 6.20703 26.0669C4.54586 26.0669 3.19922 27.4135 3.19922 29.0747C3.19922 30.7359 4.54586 32.0825 6.20703 32.0825Z" fill="#2F2F2F"/>
<path d="M6.20703 30.4773C6.98173 30.4773 7.60976 29.8493 7.60976 29.0746C7.60976 28.2999 6.98173 27.6719 6.20703 27.6719C5.43232 27.6719 4.80429 28.2999 4.80429 29.0746C4.80429 29.8493 5.43232 30.4773 6.20703 30.4773Z" fill="#65878D"/>
<path d="M32.427 6.46958C33.546 6.46958 34.4531 5.56243 34.4531 4.44341C34.4531 3.32438 33.546 2.41724 32.427 2.41724C31.3079 2.41724 30.4008 3.32438 30.4008 4.44341C30.4008 5.56243 31.3079 6.46958 32.427 6.46958Z" fill="#65878D"/>
</svg>
