<svg width="13" height="10" viewBox="0 0 13 10" fill="none" xmlns="http://www.w3.org/2000/svg">
<path d="M13 1.95286C13 2.17733 12.9217 2.36813 12.7652 2.52525L6.6929 8.61953L5.55226 9.76431C5.3957 9.92144 5.20559 10 4.98194 10C4.75828 10 4.56817 9.92144 4.41161 9.76431L3.27097 8.61953L0.234839 5.57239C0.0782796 5.41526 0 5.22447 0 5C0 4.77553 0.0782796 4.58474 0.234839 4.42761L1.37548 3.28283C1.53204 3.1257 1.72215 3.04714 1.94581 3.04714C2.16946 3.04714 2.35957 3.1257 2.51613 3.28283L4.98194 5.76599L10.4839 0.23569C10.6404 0.0785634 10.8305 0 11.0542 0C11.2779 0 11.468 0.0785634 11.6245 0.23569L12.7652 1.38047C12.9217 1.5376 13 1.7284 13 1.95286Z" fill="#73B640"/>
</svg>
