<svg width="42" height="42" viewBox="0 0 42 42" fill="none" xmlns="http://www.w3.org/2000/svg">
<path d="M40.42 14.42C42.92 11.92 41.78 8.99998 40.42 7.57998L34.42 1.57998C31.9 -0.92002 29 0.21998 27.58 1.57998L24.18 4.99998H19C15.2 4.99998 13 6.99998 11.88 9.29998L2.99998 18.18V26.18L1.57998 27.58C-0.92002 30.1 0.21998 33 1.57998 34.42L7.57998 40.42C8.65998 41.5 9.81998 41.9 10.92 41.9C12.34 41.9 13.64 41.2 14.42 40.42L19.82 35H27C30.4 35 32.12 32.88 32.74 30.8C35 30.2 36.24 28.48 36.74 26.8C39.84 26 41 23.06 41 21V15H39.82L40.42 14.42ZM37 21C37 21.9 36.62 23 35 23H33V25C33 25.9 32.62 27 31 27H29V29C29 29.9 28.62 31 27 31H18.18L11.62 37.56C11 38.14 10.64 37.8 10.42 37.58L4.43998 31.62C3.85998 31 4.19998 30.64 4.41998 30.42L6.99998 27.82V19.82L11 15.82V19C11 21.42 12.6 25 17 25C21.4 25 23 21.42 23 19H37V21ZM37.58 11.58L34.18 15H19V19C19 19.9 18.62 21 17 21C15.38 21 15 19.9 15 19V13C15 12.08 15.34 8.99998 19 8.99998H25.82L30.38 4.43998C31 3.85998 31.36 4.19998 31.58 4.41998L37.56 10.38C38.14 11 37.8 11.36 37.58 11.58Z" fill="#72B540"/>
</svg>
