<svg width="16" height="16" fill="none" xmlns="http://www.w3.org/2000/svg"><path d="M.76.038a.905.905 0 0 0-.471.273.905.905 0 0 0-.265.522c-.039.21-.003.437.101.646.053.106.744.812 3.257 3.328L6.572 8l-3.19 3.193C.841 13.737.178 14.414.124 14.523c-.206.413-.132.881.187 1.188.16.154.298.224.522.265.21.039.437.003.646-.101.106-.053.812-.744 3.328-3.257L8 9.428l3.193 3.19c2.544 2.541 3.221 3.204 3.33 3.258.413.206.881.132 1.188-.187a.905.905 0 0 0 .265-.522c.039-.21.003-.437-.101-.646-.053-.106-.744-.812-3.257-3.328L9.428 8l3.19-3.193c3.436-3.44 3.292-3.284 3.358-3.641a.957.957 0 0 0-.265-.855.945.945 0 0 0-.545-.287 1.032 1.032 0 0 0-.645.101c-.106.053-.812.744-3.328 3.257L8 6.572l-3.193-3.19C1.422.001 1.526.098 1.205.03A.84.84 0 0 0 .76.038" fill-rule="evenodd" fill="#000"/></svg>