<?xml version="1.0" encoding="utf-8"?>
<!-- Generator: Adobe Illustrator 26.1.0, SVG Export Plug-In . SVG Version: 6.00 Build 0)  -->
<svg version="1.1" id="Слой_1" xmlns="http://www.w3.org/2000/svg" xmlns:xlink="http://www.w3.org/1999/xlink" x="0px" y="0px"
	 viewBox="0 0 18 18" style="enable-background:new 0 0 18 18;" xml:space="preserve">
<style type="text/css">
	.st0{clip-path:url(#SVGID_00000130642040110430460410000009997117443858684820_);}
	.st1{fill:#58C761;}
</style>
<g>
	<defs>
		<rect id="SVGID_1_" width="18" height="18"/>
	</defs>
	<clipPath id="SVGID_00000072241577367650006420000015611334595034354864_">
		<use xlink:href="#SVGID_1_"  style="overflow:visible;"/>
	</clipPath>
	<g style="clip-path:url(#SVGID_00000072241577367650006420000015611334595034354864_);">
		<g>
			<path class="st1" d="M1.5,6.8c0-1.4,0-2.1,0.4-2.6c0.4-0.4,1.1-0.4,2.6-0.4h9c1.4,0,2.1,0,2.6,0.4c0.4,0.4,0.4,1.1,0.4,2.6
				c0,0.4,0,0.5-0.1,0.6c-0.1,0.1-0.3,0.1-0.6,0.1H2.2c-0.4,0-0.5,0-0.6-0.1C1.5,7.3,1.5,7.1,1.5,6.8z M1.5,13.5
				c0,1.4,0,2.1,0.4,2.6c0.4,0.4,1.1,0.4,2.6,0.4h9c1.4,0,2.1,0,2.6-0.4c0.4-0.4,0.4-1.1,0.4-2.6V9.8c0-0.4,0-0.5-0.1-0.6
				C16.3,9,16.1,9,15.8,9H2.2C1.9,9,1.7,9,1.6,9.1C1.5,9.2,1.5,9.4,1.5,9.8V13.5z"/>
		</g>
		<g>
			<path class="st1" d="M12.8,7.2c-1.5,0-2.7-1.2-2.7-2.7V2.2c0-1.5,1.2-2.7,2.7-2.7s2.7,1.2,2.7,2.7v2.2C15.4,6,14.2,7.2,12.8,7.2z
				 M5.2,7.2C3.8,7.2,2.6,6,2.6,4.5V2.2c0-1.5,1.2-2.7,2.7-2.7s2.7,1.2,2.7,2.7v2.2C7.9,6,6.7,7.2,5.2,7.2z"/>
		</g>
	</g>
</g>
</svg>
