<svg width="16" height="12" viewBox="0 0 16 12" fill="none" xmlns="http://www.w3.org/2000/svg">
<path fill-rule="evenodd" clip-rule="evenodd" d="M1.379 0.879C0.5 1.75725 0.5 3.17175 0.5 6C0.5 8.82825 0.5 10.2427 1.379 11.121C2.25725 12 3.67175 12 6.5 12H9.5C12.3283 12 13.7428 12 14.621 11.121C15.5 10.2427 15.5 8.82825 15.5 6C15.5 3.17175 15.5 1.75725 14.621 0.879C13.7428 -8.9407e-08 12.3283 0 9.5 0H6.5C3.67175 0 2.25725 -8.9407e-08 1.379 0.879ZM12.932 2.64C13.0274 2.75459 13.0735 2.90239 13.06 3.05091C13.0465 3.19942 12.9745 3.3365 12.86 3.432L11.213 4.8045C10.5478 5.3595 10.0093 5.808 9.533 6.114C9.038 6.43275 8.55575 6.63375 8 6.63375C7.44425 6.63375 6.962 6.432 6.46625 6.114C5.99075 5.808 5.45225 5.35875 4.787 4.80525L3.14 3.43275C3.02533 3.33727 2.95328 3.20015 2.93971 3.05155C2.92613 2.90295 2.97215 2.75505 3.06763 2.64038C3.1631 2.5257 3.30022 2.45365 3.44882 2.44008C3.59742 2.42651 3.74533 2.47252 3.86 2.568L5.48 3.91725C6.17975 4.5 6.665 4.9035 7.076 5.1675C7.47275 5.4225 7.742 5.50875 8.00075 5.50875C8.2595 5.50875 8.52875 5.42325 8.9255 5.1675C9.33575 4.9035 9.82175 4.5 10.5215 3.91725L12.1408 2.56725C12.2554 2.4719 12.4033 2.426 12.5518 2.43964C12.7003 2.45329 12.8366 2.52535 12.932 2.64Z" fill="white"/>
</svg>
