<svg width="21" height="20" viewBox="0 0 21 20" fill="none" xmlns="http://www.w3.org/2000/svg">
<path d="M15.1419 16L10.8984 13.45L6.65502 16L7.77857 11.19L4.03673 7.96L8.97235 7.54L10.8984 3L12.8245 7.53L17.7602 7.95L14.0183 11.18L15.1419 16ZM10.8984 0C5.35089 0 0.866699 4.5 0.866699 10C0.866699 12.6522 1.92361 15.1957 3.80493 17.0711C4.73646 17.9997 5.84235 18.7363 7.05946 19.2388C8.27657 19.7413 9.58106 20 10.8984 20C13.559 20 16.1106 18.9464 17.992 17.0711C19.8733 15.1957 20.9302 12.6522 20.9302 10C20.9302 8.68678 20.6707 7.38642 20.1666 6.17317C19.6624 4.95991 18.9235 3.85752 17.992 2.92893C17.0604 2.00035 15.9545 1.26375 14.7374 0.761205C13.5203 0.258658 12.2158 0 10.8984 0Z" fill="#73B640"/>
</svg>
