<svg width="20" height="20" viewBox="0 0 20 20" fill="none" xmlns="http://www.w3.org/2000/svg">
<path d="M17.3333 8.16663C17.3333 7.92352 17.2368 7.69036 17.0649 7.51845C16.893 7.34654 16.6598 7.24997 16.4167 7.24997C16.1736 7.24997 15.9404 7.34654 15.7685 7.51845C15.5966 7.69036 15.5 7.92352 15.5 8.16663H17.3333ZM4.50001 8.16663C4.50001 7.92352 4.40344 7.69036 4.23153 7.51845C4.05962 7.34654 3.82646 7.24997 3.58335 7.24997C3.34023 7.24997 3.10707 7.34654 2.93517 7.51845C2.76326 7.69036 2.66668 7.92352 2.66668 8.16663H4.50001ZM17.6019 10.6481C17.7748 10.815 18.0064 10.9074 18.2467 10.9053C18.4871 10.9032 18.717 10.8068 18.8869 10.6369C19.0569 10.4669 19.1533 10.237 19.1554 9.99667C19.1575 9.75632 19.0651 9.52477 18.8981 9.35188L17.6019 10.6481ZM10 1.74997L10.6481 1.10188C10.4762 0.930035 10.2431 0.833496 10 0.833496C9.75695 0.833496 9.52383 0.930035 9.35193 1.10188L10 1.74997ZM1.10193 9.35188C1.01438 9.43644 0.944545 9.53759 0.896504 9.64943C0.848462 9.76127 0.823175 9.88155 0.822117 10.0033C0.821059 10.125 0.844253 10.2457 0.890344 10.3583C0.936434 10.471 1.0045 10.5733 1.09057 10.6594C1.17664 10.7455 1.27898 10.8135 1.39164 10.8596C1.50429 10.9057 1.625 10.9289 1.74671 10.9279C1.86843 10.9268 1.98871 10.9015 2.10055 10.8535C2.21239 10.8054 2.31354 10.7356 2.3981 10.6481L1.10193 9.35188ZM5.41668 19.1666H14.5833V17.3333H5.41668V19.1666ZM17.3333 16.4166V8.16663H15.5V16.4166H17.3333ZM4.50001 16.4166V8.16663H2.66668V16.4166H4.50001ZM18.8981 9.35188L10.6481 1.10188L9.35193 2.39805L17.6019 10.6481L18.8981 9.35188ZM9.35193 1.10188L1.10193 9.35188L2.3981 10.6481L10.6481 2.39805L9.35193 1.10188ZM14.5833 19.1666C15.3127 19.1666 16.0122 18.8769 16.5279 18.3612C17.0436 17.8455 17.3333 17.146 17.3333 16.4166H15.5C15.5 16.6597 15.4034 16.8929 15.2315 17.0648C15.0596 17.2367 14.8265 17.3333 14.5833 17.3333V19.1666ZM5.41668 17.3333C5.17356 17.3333 4.94041 17.2367 4.7685 17.0648C4.59659 16.8929 4.50001 16.6597 4.50001 16.4166H2.66668C2.66668 17.146 2.95641 17.8455 3.47214 18.3612C3.98786 18.8769 4.68733 19.1666 5.41668 19.1666V17.3333Z" fill="#58C761"/>
</svg>
