<svg width="36" height="36" viewBox="0 0 36 36" fill="none" xmlns="http://www.w3.org/2000/svg">
<path d="M18 0C22.7739 0 27.3523 1.89642 30.7279 5.27208C34.1036 8.64773 36 13.2261 36 18C36 22.7739 34.1036 27.3523 30.7279 30.7279C27.3523 34.1036 22.7739 36 18 36C13.2261 36 8.64773 34.1036 5.27208 30.7279C1.89642 27.3523 0 22.7739 0 18C0 13.2261 1.89642 8.64773 5.27208 5.27208C8.64773 1.89642 13.2261 0 18 0ZM20.6998 11.0512C22.0369 11.0512 23.1219 10.123 23.1219 8.74738C23.1219 7.37176 22.0343 6.44354 20.6998 6.44354C19.3628 6.44354 18.2828 7.37176 18.2828 8.74738C18.2828 10.123 19.3628 11.0512 20.6998 11.0512ZM21.1703 25.5196C21.1703 25.2445 21.2655 24.5297 21.2115 24.1234L19.0979 26.5558C18.6608 27.0161 18.1131 27.3349 17.856 27.2501C17.7394 27.2071 17.6418 27.124 17.581 27.0156C17.5202 26.9072 17.5001 26.7806 17.5243 26.6587L21.0469 15.5303C21.3349 14.1187 20.543 12.8305 18.8639 12.666C17.0924 12.666 14.4851 14.4633 12.8986 16.7439C12.8986 17.0165 12.8472 17.6953 12.9012 18.1016L15.0122 15.6666C15.4493 15.2115 15.9584 14.8901 16.2156 14.9775C16.3422 15.023 16.446 15.1163 16.5047 15.2374C16.5633 15.3586 16.5722 15.4979 16.5292 15.6255L13.0375 26.6998C12.6338 27.9957 13.3975 29.2659 15.2488 29.5539C17.9743 29.5539 19.5839 27.8003 21.1729 25.5196H21.1703Z" fill="#DEE2E2"/>
</svg>
