<svg width="82" height="96" viewBox="0 0 82 96" fill="none" xmlns="http://www.w3.org/2000/svg">
<path fill-rule="evenodd" clip-rule="evenodd" d="M29.4151 21.852C29.4151 28.1371 34.3538 33.2618 40.4489 33.2618C46.5441 33.2618 51.4827 28.1371 51.4827 21.852V11.538C51.4827 5.25293 46.5441 0.1604 40.4489 0.1604C34.3538 0.1604 29.4151 5.25293 29.4151 11.538V21.852ZM32.072 11.538C32.072 6.7678 35.8228 2.90005 40.4489 2.90005C45.075 2.90005 48.8259 6.7678 48.8259 11.538V21.852C48.8259 26.6222 45.075 30.49 40.4489 30.49C35.8228 30.49 32.072 26.6222 32.072 21.852V11.538ZM38.6099 12.3306C38.6099 13.2359 39.4653 13.9527 40.4489 13.9527C41.4753 13.9527 42.2879 13.2359 42.2879 12.3306V8.21885C42.2879 7.31352 41.4753 6.59679 40.4489 6.59679C39.4225 6.59679 38.6099 7.35124 38.6099 8.21885V12.3306ZM31.81 48.0994V58.3945H33.7716V48.0994H31.81ZM3.35284 50.1167C2.9633 50.1167 2.64332 50.2187 2.3929 50.4228C2.15175 50.6175 2.03118 50.8912 2.03118 51.2436C2.03118 51.596 2.11929 51.8743 2.29551 52.0783C2.48101 52.2731 2.72215 52.4261 3.01895 52.5374C3.31574 52.6395 3.64036 52.7322 3.9928 52.8157C4.34524 52.8992 4.69768 53.0012 5.05013 53.1217C5.40257 53.2423 5.72719 53.3907 6.02398 53.5669C6.32077 53.7432 6.55728 54.0029 6.7335 54.346C6.919 54.6799 7.01175 55.088 7.01175 55.5703C7.01175 56.3679 6.69177 57.0543 6.0518 57.6293C5.42112 58.2043 4.57711 58.4919 3.51978 58.4919C2.47173 58.4919 1.62309 58.2461 0.973853 57.7545C0.324617 57.2537 0 56.5534 0 55.6538H2.08683C2.16103 56.507 2.64795 56.9337 3.54761 56.9337C3.9928 56.9337 4.34524 56.8178 4.60494 56.5859C4.86463 56.354 4.99448 56.0479 4.99448 55.6677C4.99448 55.2781 4.82289 54.9721 4.47973 54.7495C4.13656 54.5269 3.71919 54.3599 3.22763 54.2486C2.74534 54.1373 2.25841 54.0028 1.76685 53.8452C1.27528 53.6875 0.857916 53.4139 0.514749 53.0244C0.171581 52.6255 0 52.1015 0 51.4523C0 50.5712 0.319978 49.8663 0.959939 49.3376C1.5999 48.809 2.42072 48.5446 3.4224 48.5446C4.43335 48.5446 5.2449 48.7765 5.85703 49.2402C6.46917 49.6947 6.80307 50.3903 6.85871 51.3271H4.71623C4.67913 50.9561 4.54001 50.6639 4.29887 50.4506C4.05772 50.228 3.74238 50.1167 3.35284 50.1167ZM9.40497 57.4206C8.70008 56.6972 8.34764 55.7372 8.34764 54.5408C8.34764 53.3443 8.70008 52.3844 9.40497 51.661C10.1099 50.9375 11.0234 50.5758 12.1457 50.5758C13.0824 50.5758 13.8661 50.803 14.4968 51.2575C15.1275 51.712 15.5495 52.3566 15.7628 53.1913H13.6482C13.3978 52.5513 12.8969 52.2314 12.1457 52.2314C11.5799 52.2314 11.1347 52.44 10.8101 52.8574C10.4948 53.2655 10.3371 53.8266 10.3371 54.5408C10.3371 55.2549 10.4948 55.8207 10.8101 56.2381C11.1347 56.6462 11.5799 56.8502 12.1457 56.8502C12.8877 56.8502 13.3885 56.5256 13.6482 55.8764H15.7628C15.5402 56.6833 15.109 57.3232 14.469 57.7962C13.8383 58.2693 13.0639 58.5058 12.1457 58.5058C11.0234 58.5058 10.1099 58.144 9.40497 57.4206ZM19.1937 52.0505V50.6871H17.2321V58.3945H19.1937V54.5269C19.1937 53.8127 19.3421 53.3119 19.6389 53.0244C19.9357 52.7276 20.3763 52.5792 20.9606 52.5792H21.4475V50.5758C20.4644 50.5758 19.7131 51.0674 19.1937 52.0505ZM26.2656 56.8502C26.8128 56.8502 27.2812 56.6508 27.6707 56.252C28.0695 55.8439 28.2689 55.2735 28.2689 54.5408C28.2689 53.7988 28.0742 53.2284 27.6846 52.8296C27.2951 52.4308 26.8221 52.2314 26.2656 52.2314C25.7184 52.2314 25.2546 52.4308 24.8744 52.8296C24.4941 53.2284 24.304 53.7988 24.304 54.5408C24.304 55.2828 24.4941 55.8532 24.8744 56.252C25.2546 56.6508 25.7184 56.8502 26.2656 56.8502ZM23.4414 57.4067C22.6901 56.674 22.3145 55.7141 22.3145 54.5269C22.3145 53.3397 22.6948 52.3844 23.4553 51.661C24.2158 50.9375 25.1572 50.5758 26.2795 50.5758C27.411 50.5758 28.357 50.9375 29.1176 51.661C29.8781 52.3844 30.2584 53.3397 30.2584 54.5269C30.2584 55.7141 29.8735 56.674 29.1037 57.4067C28.3431 58.1394 27.3971 58.5058 26.2656 58.5058C25.1341 58.5058 24.1927 58.1394 23.4414 57.4067ZM35.8587 58.3945V48.0994H37.8203V58.3945H35.8587ZM49.6014 54.5408C49.6014 55.2457 49.3974 55.8022 48.9893 56.2103C48.5812 56.6091 48.1036 56.8085 47.5563 56.8085C47.0184 56.8085 46.5454 56.6044 46.1373 56.1963C45.7292 55.7882 45.5252 55.2318 45.5252 54.5269C45.5252 53.822 45.7246 53.2701 46.1234 52.8713C46.5315 52.4725 47.0091 52.2731 47.5563 52.2731C48.1036 52.2731 48.5812 52.4771 48.9893 52.8852C49.3974 53.2841 49.6014 53.8359 49.6014 54.5408ZM43.5357 54.5269C43.5357 55.6862 43.8789 56.6415 44.5652 57.3928C45.2608 58.1348 46.128 58.5058 47.1668 58.5058C48.2056 58.5058 49.0171 58.0374 49.6014 57.1006V58.3945H51.5491V48.0994H49.6014V51.8836C49.045 51.0117 48.238 50.5758 47.1807 50.5758C46.1234 50.5758 45.2516 50.9468 44.5652 51.6888C43.8789 52.4215 43.5357 53.3675 43.5357 54.5269ZM57.0517 56.8502C57.599 56.8502 58.0673 56.6508 58.4569 56.252C58.8557 55.8439 59.0551 55.2735 59.0551 54.5408C59.0551 53.7988 58.8603 53.2284 58.4708 52.8296C58.0812 52.4308 57.6082 52.2314 57.0517 52.2314C56.5045 52.2314 56.0408 52.4308 55.6605 52.8296C55.2803 53.2284 55.0901 53.7988 55.0901 54.5408C55.0901 55.2828 55.2803 55.8532 55.6605 56.252C56.0408 56.6508 56.5045 56.8502 57.0517 56.8502ZM54.2276 57.4067C53.4763 56.674 53.1007 55.7141 53.1007 54.5269C53.1007 53.3397 53.4809 52.3844 54.2415 51.661C55.002 50.9375 55.9434 50.5758 57.0657 50.5758C58.1972 50.5758 59.1432 50.9375 59.9037 51.661C60.6643 52.3844 61.0445 53.3397 61.0445 54.5269C61.0445 55.7141 60.6596 56.674 59.8898 57.4067C59.1293 58.1394 58.1833 58.5058 57.0517 58.5058C55.9202 58.5058 54.9788 58.1394 54.2276 57.4067ZM73.2112 50.6871H71.3331L69.914 56.5302L68.5228 50.6871H66.4638L65.0447 56.5441L63.6257 50.6871H61.6502L64.0152 58.3945H66.1021L67.4376 53.2191L68.7593 58.3945H70.8461L73.2112 50.6871ZM76.2962 50.6871V51.8418C76.7878 50.9978 77.5854 50.5758 78.6891 50.5758C79.5702 50.5758 80.289 50.868 80.8455 51.4523C81.402 52.0273 81.6803 52.8296 81.6803 53.8591V58.3945H79.7325V54.1373C79.7325 53.5345 79.5795 53.0754 79.2735 52.76C78.9674 52.4354 78.55 52.2731 78.0213 52.2731C77.4927 52.2731 77.0707 52.4354 76.7553 52.76C76.4493 53.0754 76.2962 53.5345 76.2962 54.1373V58.3945H74.3346V50.6871H76.2962ZM41.3012 95.6419L45.6207 91.3744C46.0404 90.9354 46.0404 90.2282 45.5961 89.8137C45.1518 89.3991 44.4606 89.3991 44.041 89.8137L41.6467 92.1791V75.4563C41.6467 74.8467 41.1284 74.359 40.5113 74.359C39.8942 74.359 39.4006 74.8467 39.4006 75.4563V92.1791L37.0063 89.8137C36.562 89.3991 35.8462 89.3991 35.4266 89.838C35.0069 90.277 35.0069 90.9598 35.4266 91.3744L39.7461 95.6419C40.1657 96.0808 40.8569 96.1296 41.3012 95.7151C41.3012 95.7069 41.3039 95.7015 41.3067 95.6961C41.3121 95.6853 41.3176 95.6744 41.3012 95.6419Z" fill="#002926"/>
</svg>
