<svg width="19" height="20" viewBox="0 0 19 20" fill="none" xmlns="http://www.w3.org/2000/svg">
<path fill-rule="evenodd" clip-rule="evenodd" d="M14.319 13.4331C15.566 11.8255 16.1537 9.80314 15.9625 7.77757C15.7713 5.752 14.8157 3.87533 13.29 2.52936C11.7642 1.18339 9.78304 0.469224 7.74944 0.532152C5.71584 0.59508 3.7826 1.43038 2.34301 2.8681C0.902165 4.30683 0.064139 6.24082 -0.000292832 8.27597C-0.0647247 10.3111 0.649287 12.2942 1.99624 13.8212C3.34319 15.3482 5.22171 16.3041 7.24898 16.4942C9.27626 16.6843 11.2997 16.0941 12.907 14.8441L12.95 14.8891L17.192 19.1321C17.2849 19.225 17.3952 19.2987 17.5166 19.349C17.638 19.3993 17.7681 19.4252 17.8995 19.4252C18.0309 19.4252 18.161 19.3993 18.2824 19.349C18.4038 19.2987 18.5141 19.225 18.607 19.1321C18.6999 19.0392 18.7736 18.9289 18.8239 18.8075C18.8742 18.6861 18.9001 18.556 18.9001 18.4246C18.9001 18.2932 18.8742 18.1631 18.8239 18.0417C18.7736 17.9203 18.6999 17.81 18.607 17.7171L14.364 13.4751C14.3494 13.4607 14.3344 13.4467 14.319 13.4331ZM12.243 4.28311C12.8076 4.83858 13.2566 5.50035 13.5642 6.23024C13.8718 6.96013 14.0318 7.74369 14.035 8.53573C14.0382 9.32776 13.8846 10.1126 13.583 10.845C13.2814 11.5773 12.8378 12.2427 12.2777 12.8028C11.7176 13.3629 11.0522 13.8065 10.3199 14.1081C9.5875 14.4097 8.80266 14.5633 8.01063 14.5601C7.21859 14.5569 6.43503 14.3969 5.70514 14.0893C4.97526 13.7817 4.31349 13.3327 3.75801 12.7681C2.64793 11.6398 2.02866 10.1185 2.03511 8.53573C2.04155 6.9529 2.67319 5.43675 3.79242 4.31752C4.91165 3.19828 6.42781 2.56665 8.01063 2.56021C9.59345 2.55376 11.1147 3.17302 12.243 4.28311Z" fill="#58C761"/>
</svg>
