<svg width="33" height="66" viewBox="0 0 33 66" fill="none" xmlns="http://www.w3.org/2000/svg">
<path d="M24.0393 24.4409L17.3395 25.7788C16.7466 28.1013 16.4274 30.4853 16.3883 32.882C16.4009 35.2917 16.7149 37.6903 17.3229 40.022L24.0242 41.6285C27.7789 42.5278 30.6506 45.584 31.2751 49.3471L32.2306 55.0991C32.6253 57.4148 32.1029 59.7931 30.7743 61.7304C29.4456 63.6676 27.415 65.0114 25.1126 65.4773C17.004 67.1678 7.93485 63.9963 4.68522 55.6369C1.83114 48.2811 0.362896 40.4608 0.354652 32.5707C0.320604 24.7042 1.7963 16.9043 4.70171 9.59389C7.98926 1.37931 17.0614 -1.38439 25.1457 0.625827C29.9684 1.82116 33.0939 6.51352 32.2739 11.3296L31.3075 17.0093C30.6686 20.7465 27.7974 23.6919 24.0393 24.4409Z" fill="#002926"/>
</svg>
