<svg width="31" height="30" viewBox="0 0 31 30" fill="none" xmlns="http://www.w3.org/2000/svg">
<path d="M29.0983 29.3362C25.5218 29.3362 21.9813 28.6028 18.477 27.136C14.9726 25.6692 11.7892 23.5776 8.9269 20.8613C6.06457 18.145 3.86146 15.1299 2.31756 11.816C0.773664 8.50207 0.00114447 5.13384 0 1.71128V0H10.1286L11.7166 8.18969L6.82393 12.8753C7.45339 13.9347 8.15438 14.9397 8.9269 15.8904C9.69942 16.8412 10.5292 17.724 11.4161 18.5388C12.2459 19.3266 13.1546 20.0806 14.1423 20.801C15.1299 21.5214 16.1955 22.1934 17.3388 22.817L22.3172 18.0907L30.9008 19.7612V29.3362H29.0983Z" fill="#002926"/>
</svg>
