<svg width="33" height="30" viewBox="0 0 33 30" fill="none" xmlns="http://www.w3.org/2000/svg">
<path d="M29.7728 0.870101C29.3816 0.898566 28.9975 0.990353 28.6357 1.14188H28.6308C28.2835 1.2796 26.6321 1.97429 24.1215 3.02729L15.1247 6.81638C8.66894 9.53419 2.32291 12.2106 2.32291 12.2106L2.39848 12.1813C2.39848 12.1813 1.96094 12.3251 1.50391 12.6384C1.22156 12.818 0.9786 13.0531 0.789726 13.3294C0.565476 13.6584 0.385101 14.1618 0.452132 14.6822C0.56182 15.5621 1.13219 16.0899 1.54169 16.3811C1.95607 16.6761 2.35094 16.8138 2.35094 16.8138H2.36069L8.31185 18.8186C8.57876 19.6754 10.1253 24.76 10.4971 25.9313C10.7164 26.6308 10.9297 27.0684 11.1966 27.4023C11.3258 27.5729 11.4769 27.7155 11.6585 27.8301C11.7529 27.885 11.8536 27.9284 11.9583 27.9593L11.8974 27.9446C11.9157 27.9495 11.9303 27.9641 11.9437 27.969C11.9925 27.9824 12.0254 27.9873 12.0875 27.997C13.0296 28.2822 13.7865 27.6972 13.7865 27.6972L13.8291 27.6631L17.3428 24.4639L23.2318 28.9818L23.3658 29.0391C24.5931 29.5778 25.8363 29.2779 26.4932 28.749C27.1549 28.2164 27.4121 27.5351 27.4121 27.5351L27.4548 27.4254L32.0056 4.11198C32.1348 3.53673 32.1677 2.99804 32.0251 2.4752C31.878 1.94604 31.5385 1.49094 31.0732 1.19916C30.6825 0.961647 30.2295 0.847004 29.7728 0.870101ZM29.6497 3.36854C29.6448 3.44532 29.6595 3.43679 29.6253 3.58426V3.59766L25.1172 26.6686C25.0977 26.7015 25.0648 26.7734 24.9746 26.8453C24.8795 26.9209 24.804 26.9684 24.4079 26.8112L17.2051 21.289L12.8541 25.2549L13.7682 19.417L25.5364 8.44829C26.0215 7.99735 25.8594 7.90229 25.8594 7.90229C25.8935 7.34898 25.1269 7.7402 25.1269 7.7402L10.2874 16.9332L10.2826 16.9089L3.16994 14.514V14.5091L3.15166 14.5055C3.16413 14.5013 3.17634 14.4965 3.18823 14.4909L3.22723 14.4714L3.26501 14.4579C3.26501 14.4579 9.61591 11.7816 16.0716 9.06376C19.3038 7.70241 22.5603 6.33132 25.0648 5.27345C26.5501 4.64823 28.037 4.02667 29.5254 3.40876C29.6253 3.36976 29.5778 3.36854 29.6497 3.36854Z" fill="white"/>
</svg>
