<svg width="33" height="33" viewBox="0 0 33 33" fill="none" xmlns="http://www.w3.org/2000/svg">
<path d="M27.9563 4.97885C26.4665 3.47398 24.6919 2.28081 22.7362 1.46893C20.7804 0.657053 18.6826 0.24272 16.565 0.250097C7.6925 0.250097 0.461253 7.48135 0.461253 16.3538C0.461253 19.1976 1.20875 21.9601 2.60625 24.3976L0.331253 32.7501L8.8625 30.5076C11.2188 31.7913 13.8675 32.4738 16.565 32.4738C25.4375 32.4738 32.6688 25.2426 32.6688 16.3701C32.6688 12.0638 30.995 8.0176 27.9563 4.97885ZM16.565 29.7438C14.16 29.7438 11.8038 29.0938 9.74 27.8751L9.2525 27.5826L4.1825 28.9151L5.53125 23.9751L5.20625 23.4713C3.87009 21.3377 3.16061 18.8714 3.15875 16.3538C3.15875 8.97635 9.17125 2.96385 16.5488 2.96385C20.1238 2.96385 23.4875 4.36135 26.0063 6.89635C27.2534 8.13779 28.2418 9.61442 28.914 11.2407C29.5863 12.8669 29.9291 14.6104 29.9225 16.3701C29.955 23.7476 23.9425 29.7438 16.565 29.7438ZM23.91 19.7338C23.5038 19.5388 21.5213 18.5638 21.1638 18.4176C20.79 18.2876 20.53 18.2226 20.2538 18.6126C19.9775 19.0188 19.2138 19.9288 18.9863 20.1888C18.7588 20.4651 18.515 20.4976 18.1088 20.2863C17.7025 20.0913 16.4025 19.6526 14.875 18.2876C13.6725 17.2151 12.8763 15.8988 12.6325 15.4926C12.405 15.0863 12.6 14.8751 12.8113 14.6638C12.99 14.4851 13.2175 14.1926 13.4125 13.9651C13.6075 13.7376 13.6888 13.5588 13.8188 13.2988C13.9488 13.0226 13.8838 12.7951 13.7863 12.6001C13.6888 12.4051 12.8763 10.4226 12.5513 9.6101C12.2263 8.8301 11.885 8.9276 11.6413 8.91135H10.8613C10.585 8.91135 10.1625 9.00885 9.78875 9.4151C9.43125 9.82135 8.39125 10.7963 8.39125 12.7788C8.39125 14.7613 9.8375 16.6788 10.0325 16.9388C10.2275 17.2151 12.8763 21.2776 16.9063 23.0163C17.865 23.4388 18.6125 23.6826 19.1975 23.8613C20.1563 24.1701 21.0338 24.1213 21.7325 24.0238C22.5125 23.9101 24.1213 23.0488 24.4463 22.1063C24.7875 21.1638 24.7875 20.3676 24.6738 20.1888C24.56 20.0101 24.3163 19.9288 23.91 19.7338Z" fill="white"/>
</svg>
