<svg width="1206" height="1059" viewBox="0 0 1206 1059" fill="none" xmlns="http://www.w3.org/2000/svg">
<g opacity="0.2">
<mask id="mask0_2237_168" style="mask-type:alpha" maskUnits="userSpaceOnUse" x="490" y="81" width="741" height="655">
<rect x="1087.45" y="81" width="495.423" height="622.921" transform="rotate(73.2361 1087.45 81)" fill="url(#paint0_linear_2237_168)"/>
</mask>
<g mask="url(#mask0_2237_168)">
<path d="M827.98 606.822C731.34 635.933 629.399 581.19 600.289 484.551C571.178 387.911 625.921 285.97 722.56 256.86C819.2 227.749 790.922 321.718 820.033 418.357C849.143 514.997 924.619 577.712 827.98 606.822Z" fill="#0075FF"/>
<g filter="url(#filter0_f_2237_168)">
<path d="M824.49 607.873C749.683 630.407 665.44 570.333 636.33 473.693C607.219 377.054 644.263 280.444 719.071 257.91C793.878 235.376 878.12 295.45 907.231 392.09C936.342 488.729 899.297 585.339 824.49 607.873Z" fill="#0075FF"/>
</g>
<g filter="url(#filter1_f_2237_168)">
<ellipse cx="778.755" cy="430.79" rx="182.748" ry="141.463" transform="rotate(73.2361 778.755 430.79)" fill="#0075FF"/>
</g>
<g filter="url(#filter2_f_2237_168)">
<ellipse cx="797.942" cy="425.011" rx="182.748" ry="142.07" transform="rotate(73.2361 797.942 425.011)" fill="#0075FF"/>
</g>
<g filter="url(#filter3_f_2237_168)">
<ellipse cx="855.492" cy="407.675" rx="182.748" ry="141.463" transform="rotate(73.2361 855.492 407.675)" fill="#0075FF"/>
</g>
<g filter="url(#filter4_f_2237_168)">
<ellipse cx="933.39" cy="384.209" rx="153.605" ry="141.463" transform="rotate(73.2361 933.39 384.209)" fill="#0075FF"/>
</g>
</g>
<mask id="mask1_2237_168" style="mask-type:alpha" maskUnits="userSpaceOnUse" x="-5" y="-1" width="797" height="1020">
<path d="M-4.22668 1018.73L263.85 -0.92998L791.53 343.393L748.553 861.285L-4.22668 1018.73Z" fill="url(#paint1_linear_2237_168)"/>
</mask>
<g mask="url(#mask1_2237_168)">
<path d="M552.812 393.878C658.318 402.634 736.75 495.262 727.995 600.768C719.239 706.274 626.612 784.707 521.105 775.951C415.599 767.196 479.333 686.366 488.089 580.859C496.844 475.353 447.305 385.123 552.812 393.878Z" fill="#00FF85"/>
<g filter="url(#filter5_f_2237_168)">
<path d="M556.62 394.195C638.291 400.973 697.401 491.997 688.645 597.504C679.89 703.01 606.585 783.046 524.913 776.268C443.242 769.491 384.133 678.466 392.888 572.96C401.644 467.454 474.949 387.418 556.62 394.195Z" fill="#00FF85"/>
</g>
<g filter="url(#filter6_f_2237_168)">
<ellipse cx="533.153" cy="584.598" rx="191.693" ry="148.387" transform="rotate(-85.2562 533.153 584.598)" fill="#00FF85"/>
</g>
<g filter="url(#filter7_f_2237_168)">
<ellipse cx="512.205" cy="582.862" rx="191.693" ry="149.024" transform="rotate(-85.2562 512.205 582.862)" fill="#00FF85"/>
</g>
<g filter="url(#filter8_f_2237_168)">
<ellipse cx="449.374" cy="577.647" rx="191.693" ry="148.387" transform="rotate(-85.2562 449.374 577.647)" fill="#00FF85"/>
</g>
<g filter="url(#filter9_f_2237_168)">
<ellipse cx="364.329" cy="570.589" rx="161.124" ry="148.387" transform="rotate(-85.2562 364.329 570.589)" fill="#00FF85"/>
</g>
</g>
<mask id="mask2_2237_168" style="mask-type:alpha" maskUnits="userSpaceOnUse" x="5" y="-72" width="976" height="944">
<path d="M5.54924 285.977L690.535 -71.0436L980.5 514.505L295.514 871.526L5.54924 285.977Z" fill="url(#paint2_linear_2237_168)"/>
</mask>
<g mask="url(#mask2_2237_168)">
<path d="M734.824 402.056C781.806 496.93 742.982 611.926 648.108 658.908C553.235 705.889 438.238 667.065 391.257 572.191C344.275 477.318 446.406 490.161 541.279 443.179C636.153 396.198 687.843 307.183 734.824 402.056Z" fill="#C0FF3A"/>
<g filter="url(#filter10_f_2237_168)">
<path d="M736.522 405.478C772.89 478.919 725.462 576.54 630.588 623.522C535.714 670.503 429.322 649.054 392.954 575.614C356.587 502.173 404.015 404.552 498.889 357.571C593.762 310.589 700.154 332.038 736.522 405.478Z" fill="#C0FF3A"/>
</g>
<g filter="url(#filter11_f_2237_168)">
<ellipse cx="561.346" cy="483.699" rx="191.693" ry="148.387" transform="rotate(-26.3447 561.346 483.699)" fill="#C0FF3A"/>
</g>
<g filter="url(#filter12_f_2237_168)">
<ellipse cx="552.021" cy="464.867" rx="191.693" ry="149.024" transform="rotate(-26.3447 552.021 464.867)" fill="#C0FF3A"/>
</g>
<g filter="url(#filter13_f_2237_168)">
<ellipse cx="524.042" cy="408.365" rx="191.693" ry="148.387" transform="rotate(-26.3447 524.042 408.365)" fill="#C0FF3A"/>
</g>
<g filter="url(#filter14_f_2237_168)">
<ellipse cx="486.17" cy="331.89" rx="161.124" ry="148.387" transform="rotate(-26.3447 486.17 331.89)" fill="#C0FF3A"/>
</g>
</g>
<path d="M759.972 746.586C662.482 772.709 562.275 714.854 536.153 617.364C510.03 519.874 567.885 419.667 665.375 393.545C762.865 367.422 731.708 460.476 757.83 557.966C783.952 655.456 857.462 720.464 759.972 746.586Z" fill="#00FF38"/>
<g filter="url(#filter15_f_2237_168)">
<path d="M756.452 747.529C680.986 767.75 598.633 705.111 572.511 607.621C546.388 510.132 586.389 414.708 661.854 394.487C737.32 374.266 819.673 436.905 845.795 534.395C871.918 631.885 831.917 727.308 756.452 747.529Z" fill="#00FF38"/>
</g>
<g filter="url(#filter16_f_2237_168)">
<ellipse cx="716.189" cy="569.122" rx="182.748" ry="141.463" transform="rotate(75 716.189 569.122)" fill="#00FF38"/>
</g>
<g filter="url(#filter17_f_2237_168)">
<ellipse cx="735.545" cy="563.937" rx="182.748" ry="142.07" transform="rotate(75 735.545 563.937)" fill="#00FF38"/>
</g>
<g filter="url(#filter18_f_2237_168)">
<ellipse cx="793.601" cy="548.38" rx="182.748" ry="141.463" transform="rotate(75 793.601 548.38)" fill="#00FF38"/>
</g>
<g filter="url(#filter19_f_2237_168)">
<ellipse cx="872.185" cy="527.323" rx="153.605" ry="141.463" transform="rotate(75 872.185 527.323)" fill="#00FF38"/>
</g>
<mask id="mask3_2237_168" style="mask-type:alpha" maskUnits="userSpaceOnUse" x="387" y="334" width="793" height="790">
<rect x="1179.54" y="766.559" width="495.423" height="622.921" transform="rotate(133.911 1179.54 766.559)" fill="url(#paint3_linear_2237_168)"/>
</mask>
<g mask="url(#mask3_2237_168)">
<path d="M594.019 797.865C521.309 727.867 519.111 612.178 589.11 539.468C659.109 466.757 774.797 464.559 847.507 534.558C920.218 604.557 824.441 625.924 754.442 698.634C684.444 771.345 666.73 867.864 594.019 797.865Z" fill="#00FF38"/>
<g filter="url(#filter20_f_2237_168)">
<path d="M591.395 795.339C535.111 741.154 546.229 638.285 616.227 565.574C686.226 492.864 788.599 477.846 844.883 532.032C901.167 586.217 890.049 689.086 820.05 761.796C750.051 834.506 647.679 849.524 591.395 795.339Z" fill="#00FF38"/>
</g>
<g filter="url(#filter21_f_2237_168)">
<ellipse cx="723.389" cy="668.738" rx="182.748" ry="141.463" transform="rotate(133.911 723.389 668.738)" fill="#00FF38"/>
</g>
<g filter="url(#filter22_f_2237_168)">
<ellipse cx="737.821" cy="682.633" rx="182.748" ry="142.07" transform="rotate(133.911 737.821 682.633)" fill="#00FF38"/>
</g>
<g filter="url(#filter23_f_2237_168)">
<ellipse cx="781.123" cy="724.32" rx="182.748" ry="141.463" transform="rotate(133.911 781.123 724.32)" fill="#00FF38"/>
</g>
<g filter="url(#filter24_f_2237_168)">
<ellipse cx="839.733" cy="780.744" rx="153.605" ry="141.463" transform="rotate(133.911 839.733 780.744)" fill="#00FF38"/>
</g>
</g>
</g>
<defs>
<filter id="filter0_f_2237_168" x="622.396" y="249.176" width="298.768" height="367.431" filterUnits="userSpaceOnUse" color-interpolation-filters="sRGB">
<feFlood flood-opacity="0" result="BackgroundImageFix"/>
<feBlend mode="normal" in="SourceGraphic" in2="BackgroundImageFix" result="shape"/>
<feGaussianBlur stdDeviation="2" result="effect1_foregroundBlur_2237_168"/>
</filter>
<filter id="filter1_f_2237_168" x="619.371" y="237.075" width="318.768" height="387.431" filterUnits="userSpaceOnUse" color-interpolation-filters="sRGB">
<feFlood flood-opacity="0" result="BackgroundImageFix"/>
<feBlend mode="normal" in="SourceGraphic" in2="BackgroundImageFix" result="shape"/>
<feGaussianBlur stdDeviation="7" result="effect1_foregroundBlur_2237_168"/>
</filter>
<filter id="filter2_f_2237_168" x="618.016" y="211.256" width="359.852" height="427.511" filterUnits="userSpaceOnUse" color-interpolation-filters="sRGB">
<feFlood flood-opacity="0" result="BackgroundImageFix"/>
<feBlend mode="normal" in="SourceGraphic" in2="BackgroundImageFix" result="shape"/>
<feGaussianBlur stdDeviation="17" result="effect1_foregroundBlur_2237_168"/>
</filter>
<filter id="filter3_f_2237_168" x="636.108" y="153.959" width="438.768" height="507.431" filterUnits="userSpaceOnUse" color-interpolation-filters="sRGB">
<feFlood flood-opacity="0" result="BackgroundImageFix"/>
<feBlend mode="normal" in="SourceGraphic" in2="BackgroundImageFix" result="shape"/>
<feGaussianBlur stdDeviation="37" result="effect1_foregroundBlur_2237_168"/>
</filter>
<filter id="filter4_f_2237_168" x="660.839" y="101.539" width="545.102" height="565.341" filterUnits="userSpaceOnUse" color-interpolation-filters="sRGB">
<feFlood flood-opacity="0" result="BackgroundImageFix"/>
<feBlend mode="normal" in="SourceGraphic" in2="BackgroundImageFix" result="shape"/>
<feGaussianBlur stdDeviation="65" result="effect1_foregroundBlur_2237_168"/>
</filter>
<filter id="filter5_f_2237_168" x="385.411" y="387.178" width="310.711" height="396.108" filterUnits="userSpaceOnUse" color-interpolation-filters="sRGB">
<feFlood flood-opacity="0" result="BackgroundImageFix"/>
<feBlend mode="normal" in="SourceGraphic" in2="BackgroundImageFix" result="shape"/>
<feGaussianBlur stdDeviation="3.30857" result="effect1_foregroundBlur_2237_168"/>
</filter>
<filter id="filter6_f_2237_168" x="361.254" y="370.001" width="343.797" height="429.194" filterUnits="userSpaceOnUse" color-interpolation-filters="sRGB">
<feFlood flood-opacity="0" result="BackgroundImageFix"/>
<feBlend mode="normal" in="SourceGraphic" in2="BackgroundImageFix" result="shape"/>
<feGaussianBlur stdDeviation="11.58" result="effect1_foregroundBlur_2237_168"/>
</filter>
<filter id="filter7_f_2237_168" x="306.59" y="335.176" width="411.23" height="495.372" filterUnits="userSpaceOnUse" color-interpolation-filters="sRGB">
<feFlood flood-opacity="0" result="BackgroundImageFix"/>
<feBlend mode="normal" in="SourceGraphic" in2="BackgroundImageFix" result="shape"/>
<feGaussianBlur stdDeviation="28.1228" result="effect1_foregroundBlur_2237_168"/>
</filter>
<filter id="filter8_f_2237_168" x="178.219" y="263.793" width="542.311" height="627.708" filterUnits="userSpaceOnUse" color-interpolation-filters="sRGB">
<feFlood flood-opacity="0" result="BackgroundImageFix"/>
<feBlend mode="normal" in="SourceGraphic" in2="BackgroundImageFix" result="shape"/>
<feGaussianBlur stdDeviation="61.2085" result="effect1_foregroundBlur_2237_168"/>
</filter>
<filter id="filter9_f_2237_168" x="0.785431" y="194.484" width="727.088" height="752.21" filterUnits="userSpaceOnUse" color-interpolation-filters="sRGB">
<feFlood flood-opacity="0" result="BackgroundImageFix"/>
<feBlend mode="normal" in="SourceGraphic" in2="BackgroundImageFix" result="shape"/>
<feGaussianBlur stdDeviation="107.528" result="effect1_foregroundBlur_2237_168"/>
</filter>
<filter id="filter10_f_2237_168" x="374.099" y="326.052" width="381.279" height="328.988" filterUnits="userSpaceOnUse" color-interpolation-filters="sRGB">
<feFlood flood-opacity="0" result="BackgroundImageFix"/>
<feBlend mode="normal" in="SourceGraphic" in2="BackgroundImageFix" result="shape"/>
<feGaussianBlur stdDeviation="3.30857" result="effect1_foregroundBlur_2237_168"/>
</filter>
<filter id="filter11_f_2237_168" x="354.164" y="302.662" width="414.364" height="362.074" filterUnits="userSpaceOnUse" color-interpolation-filters="sRGB">
<feFlood flood-opacity="0" result="BackgroundImageFix"/>
<feBlend mode="normal" in="SourceGraphic" in2="BackgroundImageFix" result="shape"/>
<feGaussianBlur stdDeviation="11.58" result="effect1_foregroundBlur_2237_168"/>
</filter>
<filter id="filter12_f_2237_168" x="311.652" y="250.262" width="480.738" height="429.208" filterUnits="userSpaceOnUse" color-interpolation-filters="sRGB">
<feFlood flood-opacity="0" result="BackgroundImageFix"/>
<feBlend mode="normal" in="SourceGraphic" in2="BackgroundImageFix" result="shape"/>
<feGaussianBlur stdDeviation="28.1228" result="effect1_foregroundBlur_2237_168"/>
</filter>
<filter id="filter13_f_2237_168" x="217.603" y="128.071" width="612.878" height="560.588" filterUnits="userSpaceOnUse" color-interpolation-filters="sRGB">
<feFlood flood-opacity="0" result="BackgroundImageFix"/>
<feBlend mode="normal" in="SourceGraphic" in2="BackgroundImageFix" result="shape"/>
<feGaussianBlur stdDeviation="61.2085" result="effect1_foregroundBlur_2237_168"/>
</filter>
<filter id="filter14_f_2237_168" x="112.378" y="-34.177" width="747.584" height="732.133" filterUnits="userSpaceOnUse" color-interpolation-filters="sRGB">
<feFlood flood-opacity="0" result="BackgroundImageFix"/>
<feBlend mode="normal" in="SourceGraphic" in2="BackgroundImageFix" result="shape"/>
<feGaussianBlur stdDeviation="107.528" result="effect1_foregroundBlur_2237_168"/>
</filter>
<filter id="filter15_f_2237_168" x="560.517" y="386.694" width="297.273" height="368.628" filterUnits="userSpaceOnUse" color-interpolation-filters="sRGB">
<feFlood flood-opacity="0" result="BackgroundImageFix"/>
<feBlend mode="normal" in="SourceGraphic" in2="BackgroundImageFix" result="shape"/>
<feGaussianBlur stdDeviation="2" result="effect1_foregroundBlur_2237_168"/>
</filter>
<filter id="filter16_f_2237_168" x="557.553" y="374.808" width="317.273" height="388.628" filterUnits="userSpaceOnUse" color-interpolation-filters="sRGB">
<feFlood flood-opacity="0" result="BackgroundImageFix"/>
<feBlend mode="normal" in="SourceGraphic" in2="BackgroundImageFix" result="shape"/>
<feGaussianBlur stdDeviation="7" result="effect1_foregroundBlur_2237_168"/>
</filter>
<filter id="filter17_f_2237_168" x="556.354" y="349.591" width="358.382" height="428.692" filterUnits="userSpaceOnUse" color-interpolation-filters="sRGB">
<feFlood flood-opacity="0" result="BackgroundImageFix"/>
<feBlend mode="normal" in="SourceGraphic" in2="BackgroundImageFix" result="shape"/>
<feGaussianBlur stdDeviation="17" result="effect1_foregroundBlur_2237_168"/>
</filter>
<filter id="filter18_f_2237_168" x="574.965" y="294.066" width="437.273" height="508.628" filterUnits="userSpaceOnUse" color-interpolation-filters="sRGB">
<feFlood flood-opacity="0" result="BackgroundImageFix"/>
<feBlend mode="normal" in="SourceGraphic" in2="BackgroundImageFix" result="shape"/>
<feGaussianBlur stdDeviation="37" result="effect1_foregroundBlur_2237_168"/>
</filter>
<filter id="filter19_f_2237_168" x="599.84" y="244.466" width="544.691" height="565.716" filterUnits="userSpaceOnUse" color-interpolation-filters="sRGB">
<feFlood flood-opacity="0" result="BackgroundImageFix"/>
<feBlend mode="normal" in="SourceGraphic" in2="BackgroundImageFix" result="shape"/>
<feGaussianBlur stdDeviation="65" result="effect1_foregroundBlur_2237_168"/>
</filter>
<filter id="filter20_f_2237_168" x="551.498" y="495.485" width="333.28" height="336.401" filterUnits="userSpaceOnUse" color-interpolation-filters="sRGB">
<feFlood flood-opacity="0" result="BackgroundImageFix"/>
<feBlend mode="normal" in="SourceGraphic" in2="BackgroundImageFix" result="shape"/>
<feGaussianBlur stdDeviation="2" result="effect1_foregroundBlur_2237_168"/>
</filter>
<filter id="filter21_f_2237_168" x="546.748" y="490.538" width="353.28" height="356.401" filterUnits="userSpaceOnUse" color-interpolation-filters="sRGB">
<feFlood flood-opacity="0" result="BackgroundImageFix"/>
<feBlend mode="normal" in="SourceGraphic" in2="BackgroundImageFix" result="shape"/>
<feGaussianBlur stdDeviation="7" result="effect1_foregroundBlur_2237_168"/>
</filter>
<filter id="filter22_f_2237_168" x="540.906" y="484.181" width="393.829" height="396.904" filterUnits="userSpaceOnUse" color-interpolation-filters="sRGB">
<feFlood flood-opacity="0" result="BackgroundImageFix"/>
<feBlend mode="normal" in="SourceGraphic" in2="BackgroundImageFix" result="shape"/>
<feGaussianBlur stdDeviation="17" result="effect1_foregroundBlur_2237_168"/>
</filter>
<filter id="filter23_f_2237_168" x="544.483" y="486.12" width="473.28" height="476.401" filterUnits="userSpaceOnUse" color-interpolation-filters="sRGB">
<feFlood flood-opacity="0" result="BackgroundImageFix"/>
<feBlend mode="normal" in="SourceGraphic" in2="BackgroundImageFix" result="shape"/>
<feGaussianBlur stdDeviation="37" result="effect1_foregroundBlur_2237_168"/>
</filter>
<filter id="filter24_f_2237_168" x="562.305" y="502.854" width="554.857" height="555.781" filterUnits="userSpaceOnUse" color-interpolation-filters="sRGB">
<feFlood flood-opacity="0" result="BackgroundImageFix"/>
<feBlend mode="normal" in="SourceGraphic" in2="BackgroundImageFix" result="shape"/>
<feGaussianBlur stdDeviation="65" result="effect1_foregroundBlur_2237_168"/>
</filter>
<linearGradient id="paint0_linear_2237_168" x1="1451.12" y1="577.03" x2="1451.12" y2="81" gradientUnits="userSpaceOnUse">
<stop stop-color="white"/>
<stop offset="1" stop-color="white" stop-opacity="0"/>
</linearGradient>
<linearGradient id="paint1_linear_2237_168" x1="647.454" y1="470.109" x2="128.927" y2="427.079" gradientUnits="userSpaceOnUse">
<stop stop-color="white"/>
<stop offset="1" stop-color="white" stop-opacity="0"/>
</linearGradient>
<linearGradient id="paint2_linear_2237_168" x1="718.412" y1="522.468" x2="487.514" y2="56.1976" gradientUnits="userSpaceOnUse">
<stop stop-color="white"/>
<stop offset="1" stop-color="white" stop-opacity="0"/>
</linearGradient>
<linearGradient id="paint3_linear_2237_168" x1="1543.21" y1="1262.59" x2="1543.21" y2="766.559" gradientUnits="userSpaceOnUse">
<stop stop-color="white"/>
<stop offset="1" stop-color="white" stop-opacity="0"/>
</linearGradient>
</defs>
</svg>
