<svg width="196" height="53" viewBox="0 0 196 53" fill="none" xmlns="http://www.w3.org/2000/svg">
<path d="M22.4022 0.558838H1.01514V52.1866L22.4022 0.558838Z" fill="#868686"/>
<path d="M37.45 0.558838H58.8091V52.1866L37.45 0.558838Z" fill="#868686"/>
<path d="M29.9261 19.5869L43.5386 52.1865H34.6076L30.5392 41.8075H20.5771L29.9261 19.5869Z" fill="#868686"/>
<path d="M93.7 33.3906L96.2218 40.6897C96.3054 40.8725 96.4308 40.9569 96.6537 40.9569H101.502C101.767 40.9569 101.809 40.8303 101.767 40.5631L91.7494 12.4779C91.7076 12.2529 91.6658 12.2107 91.4428 12.2107H85.4238C85.2566 12.2107 85.1591 12.3373 85.1591 12.5201C85.0755 13.9968 84.9501 14.4468 84.769 14.8828L75.838 40.5209C75.7962 40.8303 75.8937 40.9569 76.1445 40.9569H80.4776C80.7424 40.9569 80.8678 40.8725 80.9653 40.6053L83.3478 33.3906H93.7ZM84.7272 28.623C86.0369 24.6289 87.7646 19.5097 88.4612 16.5845H88.503C89.3668 19.6504 91.401 25.7259 92.3206 28.623H84.7272Z" fill="#868686"/>
<path d="M114.646 41.3929C117.251 41.3929 120.024 40.9148 122.838 39.6912C123.061 39.6068 123.103 39.5084 123.103 39.2974C123.019 38.5099 122.922 37.3707 122.922 36.4988V10.0591C122.922 9.89029 122.922 9.80591 122.713 9.80591H117.99C117.809 9.80591 117.725 9.89029 117.725 10.1153V19.0739C116.987 18.9895 116.471 18.9473 115.858 18.9473C108.237 18.9473 103.555 24.0243 103.555 30.367C103.555 37.7223 108.362 41.3929 114.646 41.3929ZM117.725 36.4988C116.945 36.7519 116.081 36.8504 115.203 36.8504C111.748 36.8504 108.919 34.8815 108.919 30.0998C108.919 25.8666 111.831 23.3633 115.691 23.3633C116.471 23.3633 117.154 23.4477 117.725 23.6727V36.4988Z" fill="#868686"/>
<path d="M138.171 18.947C131.665 18.947 127.638 23.9818 127.638 30.198C127.638 35.7531 130.843 41.3927 138.074 41.3927C144.19 41.3927 148.482 36.8501 148.482 30.0573C148.482 24.0662 144.845 18.947 138.171 18.947ZM137.906 23.363C141.585 23.363 143.145 26.5555 143.145 30.198C143.145 34.6984 140.846 36.9345 138.171 36.9345C134.869 36.9345 132.919 34.1358 132.919 30.0995C132.919 25.9507 134.995 23.363 137.906 23.363Z" fill="#868686"/>
<path d="M153.365 9.80591C153.184 9.80591 153.058 9.89029 153.058 10.1153V40.0428C153.058 40.1694 153.184 40.3944 153.365 40.4366C155.441 41.0835 157.614 41.3929 159.857 41.3929C166.28 41.3929 172.522 37.3707 172.522 29.27C172.522 23.4055 168.538 18.9473 162.296 18.9473C160.861 18.9473 159.523 19.1723 158.353 19.5661L158.297 10.1575C158.297 9.8481 158.213 9.80591 157.907 9.80591H153.365ZM167.186 29.8045C167.186 34.6564 163.898 36.9347 160.345 36.9347C159.607 36.9347 158.952 36.8925 158.353 36.7097V23.9399C159.035 23.6727 159.857 23.4477 161.376 23.4477C164.804 23.4477 167.186 25.6416 167.186 29.8045Z" fill="#868686"/>
<path d="M190.15 31.3793C192.267 31.3793 194.009 31.3371 194.608 31.1965C194.831 31.1543 194.915 31.0699 194.956 30.8871C195.082 30.4089 195.138 29.4104 195.138 28.1869C195.138 24.024 192.658 18.947 186.248 18.947C179.7 18.947 176.063 24.3334 176.063 30.4089C176.063 35.7953 178.878 41.3927 186.764 41.3927C189.718 41.3927 191.627 40.9145 193.271 40.1269C193.438 40.0425 193.521 39.9019 193.521 39.6488V36.0063C193.521 35.7953 193.396 35.7531 193.271 35.8375C191.627 36.5407 189.843 36.8923 187.893 36.8923C183.476 36.8923 181.469 34.4311 181.344 31.3793H190.15ZM181.344 27.6103C181.692 25.4726 183.03 23.1521 186.025 23.1521C189.328 23.1521 190.191 25.9507 190.191 27.2165C190.191 27.2587 190.191 27.4415 190.191 27.5681C190.01 27.6103 189.453 27.6103 187.809 27.6103H181.344Z" fill="#868686"/>
</svg>
