<svg width="184" height="39" viewBox="0 0 184 39" fill="none" xmlns="http://www.w3.org/2000/svg">
<path fill-rule="evenodd" clip-rule="evenodd" d="M179.217 29.0971C179.328 30.3905 180.341 32.0368 182.097 32.0368H183.123C183.521 32.0368 183.848 31.7037 183.848 31.2968V8.23286H183.843C183.823 7.84429 183.508 7.5331 183.123 7.5331H179.942C179.556 7.5331 179.242 7.84429 179.222 8.23286H179.217V10.1069C177.268 7.65277 174.194 6.63415 171.113 6.63415C164.107 6.63415 158.429 12.4389 158.429 19.5997C158.429 26.7611 164.107 32.5659 171.113 32.5659C174.194 32.5659 177.554 31.3443 179.217 29.0942V29.0971ZM171.125 28.0281C166.67 28.0281 163.058 24.2549 163.058 19.5997C163.058 14.9454 166.67 11.1721 171.125 11.1721C175.581 11.1721 179.192 14.9454 179.192 19.5997C179.192 24.2549 175.581 28.0281 171.125 28.0281Z" fill="#868686"/>
<path fill-rule="evenodd" clip-rule="evenodd" d="M154.405 17.9557C154.405 11.2282 150.254 6.68971 143.632 6.68971C140.472 6.68971 137.881 8.5579 136.966 10.1627C136.768 8.90787 136.116 7.58886 134.095 7.58886H133.065C132.666 7.58886 132.341 7.9223 132.341 8.32917V29.1548C132.341 29.1555 132.341 29.157 132.341 29.158V31.3951H132.345C132.366 31.783 132.68 32.0945 133.065 32.0945H136.247C136.295 32.0945 136.343 32.0886 136.389 32.0795C136.41 32.0753 136.43 32.0668 136.45 32.0609C136.474 32.0535 136.499 32.0477 136.521 32.0382C136.55 32.0262 136.575 32.0102 136.602 31.9951C136.614 31.987 136.628 31.9815 136.64 31.973C136.672 31.952 136.701 31.9269 136.729 31.9012C136.734 31.8964 136.74 31.8932 136.744 31.8888C136.776 31.8576 136.805 31.8231 136.83 31.7872C136.91 31.6755 136.959 31.5403 136.966 31.3951H136.971V17.7706C136.971 14.1575 139.836 11.2282 143.371 11.2282C146.906 11.2282 149.772 14.1575 149.772 17.7706L149.775 29.1588L149.776 29.1548C149.776 29.1649 149.777 29.1752 149.777 29.1861V31.3951H149.782C149.803 31.783 150.117 32.0945 150.502 32.0945H153.683C153.732 32.0945 153.78 32.0886 153.826 32.0795C153.845 32.0759 153.862 32.0682 153.881 32.0629C153.907 32.0551 153.933 32.0486 153.958 32.0382C153.984 32.0273 154.008 32.0119 154.033 31.9977C154.048 31.9891 154.063 31.9828 154.078 31.973C154.107 31.9532 154.134 31.9294 154.161 31.9059C154.167 31.8995 154.175 31.8947 154.181 31.8883C154.211 31.8586 154.238 31.8265 154.263 31.7928C154.265 31.7903 154.267 31.7882 154.268 31.7857C154.347 31.675 154.395 31.5413 154.403 31.397C154.403 31.3959 154.403 31.3951 154.403 31.3951H154.408L154.405 17.9557Z" fill="#868686"/>
<path fill-rule="evenodd" clip-rule="evenodd" d="M121.272 29.097C121.383 30.3904 122.396 32.0368 124.151 32.0368H125.178C125.576 32.0368 125.902 31.7036 125.902 31.2967V8.23286H125.897C125.877 7.84429 125.562 7.5331 125.178 7.5331H121.996C121.611 7.5331 121.297 7.84429 121.276 8.23286H121.272V10.1069C119.322 7.65277 116.249 6.63415 113.167 6.63415C106.162 6.63415 100.483 12.4388 100.483 19.5998C100.483 26.761 106.162 32.566 113.167 32.566C116.249 32.566 119.608 31.3444 121.272 29.0941L121.272 29.097ZM113.18 28.0281C108.725 28.0281 105.113 24.255 105.113 19.5998C105.113 14.9454 108.725 11.1721 113.18 11.1721C117.635 11.1721 121.246 14.9454 121.246 19.5998C121.246 24.255 117.635 28.0281 113.18 28.0281Z" fill="#868686"/>
<path fill-rule="evenodd" clip-rule="evenodd" d="M81.669 25.7938C83.7929 27.2978 86.1112 28.0284 88.3391 28.0284C90.4615 28.0284 92.6557 26.9037 92.6557 24.946C92.6557 22.3325 87.8745 21.9258 84.8705 20.8822C81.8659 19.8386 79.2781 17.6812 79.2781 14.1876C79.2781 8.8417 83.9382 6.63379 88.2876 6.63379C91.0433 6.63379 93.8866 7.56267 95.73 8.89328C96.3648 9.38498 95.9783 9.9495 95.9783 9.9495L94.2186 12.5184C94.0208 12.8078 93.675 13.0577 93.1787 12.7446C92.6822 12.4316 90.9411 11.1718 88.2876 11.1718C85.6338 11.1718 84.0353 12.4245 84.0353 13.9772C84.0353 15.839 86.1129 16.4246 88.5462 17.0592C92.7869 18.2276 97.4129 19.6321 97.4129 24.946C97.4129 29.6561 93.1027 32.567 88.3391 32.567C84.7292 32.567 81.6557 31.5151 79.078 29.5816C78.541 29.0322 78.916 28.5221 78.916 28.5221L80.6671 25.9662C81.0234 25.4884 81.4725 25.6551 81.669 25.7938Z" fill="#868686"/>
<path fill-rule="evenodd" clip-rule="evenodd" d="M69.4378 29.097C69.549 30.3904 70.562 32.0368 72.3167 32.0368H73.3435C73.7415 32.0368 74.0677 31.7036 74.0677 31.2967V8.23286H74.0633C74.0424 7.84429 73.7281 7.5331 73.3435 7.5331H70.162C69.7772 7.5331 69.463 7.84429 69.4416 8.23286H69.4378V10.1069C67.4885 7.65277 64.4152 6.63415 61.3332 6.63415C54.328 6.63415 48.649 12.4388 48.649 19.5998C48.649 26.761 54.328 32.566 61.3332 32.566C64.4152 32.566 67.7738 31.3444 69.4373 29.0941L69.4378 29.097ZM61.3456 28.0281C56.8903 28.0281 53.2785 24.255 53.2785 19.5998C53.2785 14.9454 56.8903 11.1721 61.3456 11.1721C65.8008 11.1721 69.4123 14.9454 69.4123 19.5998C69.4123 24.255 65.8008 28.0281 61.3456 28.0281Z" fill="#868686"/>
<path fill-rule="evenodd" clip-rule="evenodd" d="M30.8664 20.4811C26.1522 20.4811 22.3304 24.3845 22.3304 29.1999C22.3304 34.015 26.1522 37.9184 30.8664 37.9184C35.5807 37.9184 39.4024 34.015 39.4024 29.1999C39.4024 24.3845 35.5807 20.4811 30.8664 20.4811ZM8.68929 20.4819C3.97504 20.4819 0.15332 24.3845 0.15332 29.1999C0.15332 34.015 3.97504 37.9184 8.68929 37.9184C13.4037 37.9184 17.2257 34.015 17.2257 29.1999C17.2257 24.3845 13.4037 20.4819 8.68929 20.4819ZM28.3137 9.58276C28.3137 14.3982 24.4922 18.302 19.7779 18.302C15.0634 18.302 11.2419 14.3982 11.2419 9.58276C11.2419 4.76831 15.0634 0.864502 19.7779 0.864502C24.4922 0.864502 28.3137 4.76831 28.3137 9.58276Z" fill="#868686"/>
</svg>
