<svg width="146" height="63" viewBox="0 0 146 63" fill="none" xmlns="http://www.w3.org/2000/svg">
<g clip-path="url(#clip0_1_1115)">
<path fill-rule="evenodd" clip-rule="evenodd" d="M32.9155 57.7071C35.7106 55.9532 38.0599 53.8129 40.0475 51.5842C41.4705 54.5222 44.3262 56.5276 47.3544 56.5276C49.688 56.5276 52.0215 55.3481 53.6258 53.1364C54.2092 55.2006 55.6677 56.5276 58.1471 56.5276C60.0077 56.5276 64.0639 54.6079 67.7419 51.7634L67.3353 53.8736C67.1894 54.4633 67.1894 54.9057 67.1894 55.2006C67.3353 56.0852 67.9187 56.5276 68.7938 56.5276C70.5439 56.5276 73.0233 54.9057 73.6067 52.2517L74.4818 48.5656C75.5027 43.8473 82.3575 36.77 84.2535 36.77C84.3994 36.77 84.6911 36.9174 84.6911 37.2123C84.7489 37.6805 84.4163 38.5667 83.9301 39.8618C83.1913 41.8298 82.0981 44.7418 81.4824 48.5656C81.1907 49.7451 81.1907 50.9247 81.3366 51.8093C81.6283 54.6108 83.2326 56.5276 86.2954 56.5276C88.9164 56.5276 94.5991 54.2657 98.5819 49.742C98.8822 52.1975 99.3959 54.2861 100.151 55.643C100.443 56.2328 101.172 56.3802 101.901 56.3802C102.776 56.3802 103.943 56.0853 105.256 55.3481C108.318 53.7262 112.256 49.8926 116.048 44.2897C116.632 44.4372 117.069 44.4372 117.507 44.4372C119.02 44.4372 120.711 43.8972 122.282 42.9418C121.629 44.9343 121.375 46.9692 121.59 48.8604C122.174 53.2838 125.82 56.675 129.758 56.675C131.946 56.675 134.279 55.348 135.883 53.2838C136.467 56.0852 138.217 59.0341 142.592 60.8035C142.884 60.9509 143.176 60.9509 143.467 60.9509C144.343 60.9509 144.926 60.3611 144.78 59.6239C144.78 59.329 144.634 58.8867 144.197 58.5918C143.176 57.7071 142.009 56.0852 141.717 53.5787C141.571 52.3991 141.571 50.9247 142.301 49.4502C143.176 45.4692 143.322 44.2897 143.322 43.8473C143.176 42.8152 142.447 42.3729 141.571 42.3729C139.821 42.3729 137.342 44.1422 136.759 46.6488C135.738 50.4823 133.112 52.9889 131.362 52.9889C129.174 52.9889 128.008 50.6298 127.716 48.1232C126.987 41.9305 130.779 34.4109 136.467 34.4109C138.071 34.4109 139.967 35.0006 140.113 36.77C140.292 38.4007 139.315 38.8068 138.569 39.1169C138.101 39.3115 137.723 39.4684 137.779 39.8663C137.925 41.0459 139.821 41.3408 141.134 41.3408C142.301 41.3408 146.093 40.4561 145.509 36.1802C145.072 32.789 141.426 31.1671 137.342 31.1671C132.467 31.1671 128.318 33.6625 125.493 37.1155C125.102 37.3486 124.689 37.7654 124.216 38.2445C123.341 39.2766 121.59 40.3087 119.403 40.3087C119.111 40.3087 118.528 40.1613 118.528 40.1613C119.986 37.3598 121.007 34.4109 121.007 31.9044C121.007 27.7759 118.528 25.7117 115.757 25.7117C112.256 25.7117 108.61 28.808 108.61 35.0007C108.61 38.6868 110.068 41.6357 112.548 43.2576C109.631 47.9758 105.693 51.9569 105.11 51.9569C104.908 51.9569 104.846 51.746 104.779 51.5184C104.748 51.4164 104.717 51.3109 104.672 51.2196C104.235 49.5977 103.797 46.354 103.797 44.4372C103.797 40.8985 104.38 37.3598 105.693 33.6737C105.839 33.2314 105.985 32.789 105.985 32.4942C105.985 31.462 105.256 31.0197 104.38 31.0197C102.63 31.0197 99.8592 33.0839 99.13 35.2956C98.5466 37.3598 98.2549 40.3087 98.2549 43.8474C98.2549 44.4964 98.2653 45.1401 98.2864 45.774C94.8057 50.5174 90.5107 52.1042 89.2123 52.1042C87.608 52.1042 87.3163 50.6298 87.608 50.04C88.6289 45.7641 89.9415 40.8984 91.1083 37.5072C91.6917 35.8853 91.9834 34.4109 91.8376 33.5262C91.5459 31.9043 90.5249 31.1671 89.0665 31.1671C85.5661 31.1671 80.024 34.7058 76.3778 39.5714L77.5446 34.2634C77.6904 33.6736 77.6904 33.2313 77.6904 32.9364C77.5446 31.9043 76.9612 31.462 76.0861 31.462C72.0024 31.462 71.2731 33.5262 70.8356 35.5904C70.7511 36.1028 69.5904 42.1542 68.6284 47.1569C65.5162 50.0445 62.029 51.9569 61.064 51.9569C59.8973 51.9569 59.4597 51.0722 59.4597 50.335C59.4597 49.8258 59.7496 48.4374 60.0235 47.1257C60.2254 46.1585 60.4187 45.2327 60.4806 44.7321C60.6265 44.1423 60.6265 43.7 60.6265 43.4051C60.4806 42.5204 59.7514 42.0781 58.8763 42.0781C57.1262 42.0781 54.6468 43.8474 54.0634 46.354C53.1883 50.1875 50.5631 52.6941 48.8129 52.6941C46.6252 52.6941 45.4584 50.335 45.1667 47.9758C44.4375 42.6678 47.792 34.1161 53.9175 34.1161C55.6677 34.1161 57.4179 34.7058 57.5637 36.4752C57.7403 38.1714 56.8476 38.5703 56.148 38.8829C55.6922 39.0866 55.3185 39.2536 55.376 39.7189C55.5219 40.8985 57.4179 41.1934 58.5846 41.1934C59.8973 41.1934 63.5434 40.3087 62.96 36.0328C62.5225 32.6416 59.0222 30.8723 54.7926 30.8723C44.9832 30.8723 38.4555 40.681 39.161 48.4566C36.6699 51.4037 34.181 53.1759 29.7069 55.4955C27.2275 56.8225 24.3106 57.5597 21.6853 57.5597C13.5179 57.5597 9.58002 50.04 8.85079 43.5524C6.80893 27.0386 21.3936 4.1847 31.457 4.1847C33.7906 4.1847 35.8325 6.24893 36.27 9.49271C36.8534 14.5058 36.7075 18.0445 31.6029 22.3204C31.0195 22.7627 30.8737 23.5 31.1654 23.9423C31.6029 24.5321 33.0614 24.6795 35.8325 23.2051C41.3746 20.4036 43.2706 16.1277 42.6872 11.1146C42.1039 5.5117 37.2909 0.940918 30.8737 0.940918C27.665 0.940918 24.3106 1.82559 21.2478 3.74237C7.97571 11.9993 -0.629254 30.5773 0.975061 44.732C1.55845 49.3028 3.45446 54.1685 6.95478 57.5597C9.28833 59.7714 13.5179 62.4254 18.6225 62.4254C24.1647 62.4254 28.8318 60.3611 32.9155 57.7071ZM114.881 38.2445C113.423 36.6226 112.256 34.1161 112.256 31.7569C112.256 30.4299 112.694 28.9555 113.715 28.9555C114.59 28.9555 115.757 30.2825 115.757 33.3788C115.757 35.0007 115.465 36.6226 114.881 38.2445Z" fill="#868686"/>
</g>
<defs>
<clipPath id="clip0_1_1115">
<rect width="146" height="63" fill="white"/>
</clipPath>
</defs>
</svg>
