<svg width="197" height="35" viewBox="0 0 197 35" fill="none" xmlns="http://www.w3.org/2000/svg">
<g clip-path="url(#clip0_1_1090)">
<path d="M39.7991 9.68223C32.6818 9.68223 27.1206 15.0238 27.1206 22.1745C27.1206 29.3252 32.5413 34.621 39.7991 34.621C47.057 34.621 52.5719 29.2338 52.5719 22.1288C52.5719 15.0695 47.1512 9.68223 39.7991 9.68223ZM39.8472 29.4677C35.794 29.4677 32.824 26.3556 32.824 22.1763C32.824 17.9494 35.746 14.8391 39.7991 14.8391C43.9002 14.8391 46.8685 17.9969 46.8685 22.1763C46.8685 26.3556 43.9002 29.4677 39.8472 29.4677ZM54.1263 15.1169H57.6616V34.1586H63.3171V10.1464H54.1263V15.1169ZM12.8877 14.8374C15.8577 14.8374 18.2141 16.6484 19.1087 19.3419H25.0949C24.0101 13.5837 19.203 9.68223 12.9357 9.68223C5.81833 9.68223 0.257141 15.0238 0.257141 22.1763C0.257141 29.3287 5.67785 34.6228 12.9357 34.6228C19.0624 34.6228 23.9638 30.7213 25.0487 24.9156H19.1087C18.2604 27.6092 15.9039 29.4677 12.9339 29.4677C8.83281 29.4677 5.95882 26.3556 5.95882 22.1763C5.96062 17.9494 8.78835 14.8374 12.8877 14.8374ZM161.583 19.8536L157.436 19.2505C155.457 18.9728 154.043 18.3222 154.043 16.789C154.043 15.1169 155.882 14.2818 158.379 14.2818C161.113 14.2818 162.857 15.4422 163.234 17.3464H168.701C168.088 12.5165 164.317 9.68396 158.521 9.68396C152.535 9.68396 148.576 12.7029 148.576 16.9754C148.576 21.0615 151.169 23.4317 156.399 24.1736L160.547 24.7767C162.574 25.0545 163.705 25.8457 163.705 27.3314C163.705 29.2356 161.726 30.025 158.992 30.025C155.645 30.025 153.76 28.6782 153.477 26.6352H147.916C148.436 31.3261 152.158 34.6228 158.944 34.6228C165.119 34.6228 169.218 31.836 169.218 27.0518C169.218 22.7793 166.25 20.5499 161.583 19.8536ZM60.4893 0.254548C58.4157 0.254548 56.8599 1.74026 56.8599 3.78333C56.8599 5.8264 58.4141 7.31211 60.4893 7.31211C62.563 7.31211 64.1193 5.8264 64.1193 3.78333C64.1193 1.74026 62.563 0.254548 60.4893 0.254548ZM143.486 18.3679C143.486 13.167 140.282 9.68396 133.495 9.68396C127.085 9.68396 123.503 12.8893 122.796 17.8123H128.405C128.687 15.9081 130.196 14.3292 133.401 14.3292C136.277 14.3292 137.69 15.5828 137.69 17.1161C137.69 19.1134 135.097 19.6233 131.892 19.9486C127.557 20.4127 122.184 21.8984 122.184 27.4721C122.184 31.7921 125.436 34.5771 130.621 34.5771C134.674 34.5771 137.219 32.905 138.492 30.2571C138.681 32.6255 140.472 34.1586 142.97 34.1586H146.27V29.1899H143.488V18.3679H143.486ZM137.925 24.4057C137.925 27.6109 135.097 29.9793 131.656 29.9793C129.534 29.9793 127.744 29.0967 127.744 27.24C127.744 24.8716 130.619 24.2211 133.258 23.9433C135.803 23.7112 137.217 23.1538 137.925 22.0848V24.4057ZM107.903 9.68223C104.744 9.68223 102.105 10.9833 100.22 13.1653V0.0224609H94.5648V34.1586H100.126V31.0009C102.011 33.276 104.698 34.6228 107.903 34.6228C114.689 34.6228 119.827 29.3287 119.827 22.1763C119.827 15.0238 114.595 9.68223 107.903 9.68223ZM107.055 29.4677C103.002 29.4677 100.032 26.3556 100.032 22.1763C100.032 17.9969 103.048 14.8391 107.101 14.8391C111.202 14.8391 114.076 17.9512 114.076 22.1763C114.076 26.3556 111.107 29.4677 107.055 29.4677ZM81.0376 9.68223C77.3617 9.68223 74.9572 11.1679 73.5436 13.2584V10.1464H67.9341V34.1569H73.5895V21.1073C73.5895 17.4378 75.9459 14.8374 79.4337 14.8374C82.6863 14.8374 84.7118 17.1126 84.7118 20.411V34.1586H90.3673V19.9943C90.3695 13.9547 87.2125 9.68223 81.0376 9.68223ZM196.178 21.3868C196.178 14.5138 191.088 9.68396 184.253 9.68396C176.996 9.68396 171.669 15.0712 171.669 22.1763C171.669 29.654 177.372 34.6228 184.348 34.6228C190.24 34.6228 194.858 31.1855 196.036 26.3099H190.143C189.295 28.4461 187.222 29.654 184.44 29.654C180.81 29.654 178.077 27.4246 177.465 23.5231H196.176V21.3868H196.178ZM177.796 19.5284C178.693 16.1842 181.237 14.5596 184.159 14.5596C187.364 14.5596 189.815 16.3705 190.38 19.5284H177.796Z" fill="#868686"/>
</g>
<defs>
<clipPath id="clip0_1_1090">
<rect width="197" height="35" fill="white"/>
</clipPath>
</defs>
</svg>
