<svg width="163" height="42" viewBox="0 0 163 42" fill="none" xmlns="http://www.w3.org/2000/svg">
<path fill-rule="evenodd" clip-rule="evenodd" d="M162.4 33.4462C155.607 45.2241 144.849 41.8065 141.618 39.1307C140.243 40.0849 137.831 42.1762 134.616 41.9347C127.769 41.4207 125.316 31.4139 125.316 31.4139C125.366 31.4539 123.277 32.151 122.148 32.1385C122.133 35.0731 119.653 42.0832 112.958 41.9936C105.446 41.8934 103.919 30.4481 103.919 30.4481C103.919 30.4481 103.171 31.5097 100.329 32.5671C100.472 30.3125 100.367 41.6504 91.3635 41.817C84.2454 41.9489 82.324 30.2716 82.324 30.2716C82.324 30.2716 81.0892 31.5834 78.6961 32.0384C78.8482 29.7471 78.6009 41.8555 69.5961 41.817C63.5108 41.7912 61.4313 34.6238 61.593 33.629C61.7994 32.3612 59.5364 41.9953 53.6254 41.8453C51.1861 41.772 49.3676 39.9659 48.2264 37.558C46.6988 39.3455 44.4809 41.8453 41.9929 41.8453C37.5267 41.8453 35.5578 38.0252 35.8913 27.1146C35.9197 25.8205 35.8284 25.3115 34.5705 25.1179C33.8154 24.9891 33.0422 24.7452 32.224 24.6166C31.9618 25.5114 29.7377 41.5541 22.0899 41.8586C19.5242 41.9607 18.1212 39.6878 16.9691 38.0009C15.203 40.3902 12.8716 41.9347 9.55036 41.9347C3.92443 41.9347 0.0913086 37.2837 0.0913086 31.5464C0.0913086 25.8089 3.92443 21.1584 9.55036 21.1584C10.5451 21.1584 10.8243 21.3042 11.7331 21.5753C9.86421 4.17474 14.2777 1.45527 18.1385 1.45527C21.8452 1.45527 28.1776 10.253 19.2673 32.5688C21.2456 39.225 25.5103 38.8485 27.5596 25.1464C27.9767 22.3611 26.8614 18.6026 28.5961 18.078C31.7672 17.1193 32.1036 19.9957 33.5904 20.4749C35.1625 20.9814 36.0801 20.932 37.5894 21.2543C40.1683 21.7693 41.1747 23.1861 40.8605 26.3416C40.4832 30.3342 39.8231 36.1454 41.8357 36.8537C43.2869 37.3681 45.9367 34.2903 46.4017 32.6062C46.8665 30.9221 46.9636 30.3458 47.0049 29.1106C47.0678 26.4706 47.1467 24.5354 47.5869 22.5389C47.7753 21.7663 47.9901 21.2547 48.8448 21.2198C49.5481 21.2014 50.8343 20.9849 51.4004 21.4355C52.1551 22.0153 52.0607 22.6037 51.9741 24.1522C51.0965 46.2303 57.8513 35.2087 59.8654 26.3838C59.1482 16.4048 59.6406 1.638 65.7554 1.39034C68.9356 1.26154 70.3416 3.86691 70.4962 5.81158C70.9336 11.304 68.4835 20.4022 65.2611 26.5207C63.4195 39.0052 73.3132 41.4736 74.8954 31.5086C72.3068 30.25 69.5093 25.1556 71.7858 22.6729C73.0632 21.2796 78.3804 23.2812 78.4675 27.6468C81.0757 26.9335 81.4239 25.4274 81.4601 25.677C80.7431 15.698 81.4081 1.63813 87.5234 1.39047C90.7032 1.26167 92.1089 3.86704 92.2635 5.81171C92.701 11.3042 90.2508 20.4023 87.0289 26.5209C85.187 39.0052 95.081 41.4738 96.6627 31.5088C94.7462 31.1306 90.7006 25.712 93.0349 22.673C94.2823 21.0491 99.5801 24.4263 100.173 27.7913C102.679 27.0662 103.019 25.6081 103.055 25.8535C102.338 15.8749 103.003 1.81498 109.118 1.56732C112.298 1.43852 113.704 4.04389 113.858 5.98856C114.296 11.481 111.845 20.5794 108.623 26.6979C106.782 39.1823 116.675 41.6504 118.258 31.6853C115.624 31.2369 111.881 25.5156 114.894 22.5887C116.097 21.4193 120.696 24.4549 121.773 27.9182C123.268 27.8594 124.199 27.3318 124.399 27.2786C122.011 15.5639 123.789 1.50797 130.367 1.39064C133.923 1.32728 137.399 3.35636 135.873 14.5014C134.417 25.135 129.182 29.5975 129.194 29.6657C129.498 30.9396 132.185 41.6009 138.949 35.9756C138.599 35.1648 138.249 34.3364 138.053 33.3329C136.931 27.4871 139.134 20.8842 145.12 19.8171C148.549 19.2057 151.78 20.9132 152.291 24.7627C153.131 31.0617 147.569 35.6235 145.454 36.613C144.507 36.0627 154.041 42.316 159.7 29.7843C160.028 29.0688 160.423 29.1294 160.936 29.4982C161.298 29.7587 163.359 31.7558 162.4 33.4462ZM13.6427 29.9986C13.3548 29.1184 12.764 27.1789 12.555 26.3385C11.4044 25.3152 10.5831 25.149 9.10606 25.149C5.82372 25.149 3.89179 28.2524 3.89179 31.5989C3.89179 34.9452 5.99648 38.0491 9.27884 38.0491C12.1234 38.0491 14.2883 36.0712 14.9488 33.2714C14.4865 32.1799 14.0279 31.1768 13.6427 29.9986ZM18.0581 6.06133C15.7518 6.06133 14.9694 11.6877 15.1212 16.4875C15.2555 20.7312 16.4151 24.4672 17.0166 26.1412C17.1693 26.351 17.141 26.2145 17.2773 26.4369C21.2818 17.4641 19.6209 6.06133 18.0581 6.06133ZM66.0848 6.23807C63.104 5.88846 63.1232 18.5871 63.4933 21.4355C65.0414 18.9028 67.7308 6.92001 66.0848 6.23807ZM87.8522 6.23807C84.8713 5.88846 84.8905 18.5871 85.2608 21.4355C86.8088 18.9028 89.4983 6.92001 87.8522 6.23807ZM109.447 6.41475C106.466 6.06514 106.485 18.7638 106.856 21.6124C108.403 19.0795 111.093 7.09664 109.447 6.41475ZM130.696 5.49471C126.052 6.44845 127.133 22.2839 127.839 25.0613C133.309 17.3773 133.422 5.20609 130.696 5.49471ZM148.102 25.2837C147.866 24.274 146.685 23.7344 145.87 23.8674C143.538 24.1931 141.277 27.1631 142.152 31.6849C142.347 32.6919 142.835 33.619 142.827 33.5881C148.045 30.0076 148.489 27.1861 148.102 25.2837ZM49.759 17.7245C49.0925 17.7247 48.441 17.5227 47.8868 17.1441C47.3326 16.7655 46.9005 16.2274 46.6453 15.5977C46.3901 14.968 46.3234 14.2751 46.4535 13.6066C46.5833 12.9381 46.9043 12.3241 47.3756 11.8421C47.8468 11.3601 48.4472 11.0318 49.1008 10.8989C49.7545 10.7659 50.4321 10.8341 51.0479 11.0949C51.6637 11.3558 52.1899 11.7975 52.5602 12.3642C52.9304 12.9309 53.1281 13.5972 53.1281 14.2788C53.1281 14.7313 53.041 15.1793 52.8716 15.5974C52.7024 16.0154 52.4543 16.3953 52.1414 16.7152C51.8284 17.0352 51.4571 17.289 51.0484 17.4622C50.6396 17.6354 50.2016 17.7245 49.759 17.7245Z" fill="#868686"/>
</svg>
