<svg width="240" height="48" viewBox="0 0 240 48" fill="none" xmlns="http://www.w3.org/2000/svg">
<path d="M67.0431 9.95387H78.1805C85.2808 9.95387 91.1464 14.0413 91.1464 23.374V25.335C91.1464 34.7385 85.6608 38.9678 78.3942 38.9678H67.0431V9.95387ZM73.2648 15.2227V33.6753H78.038C82.075 33.6753 84.7822 31.0527 84.7822 25.2169V23.6811C84.7822 17.8453 81.9325 15.2227 77.8243 15.2227H73.2648ZM94.4472 15.5062H99.4341L100.241 20.964C101.191 17.2546 103.614 15.2699 108.007 15.2699H109.55V21.5311H106.986C101.928 21.5311 100.693 23.2795 100.693 28.2411V39.0387H94.5422V15.5062H94.4472ZM110.785 27.745V27.0834C110.785 19.2156 115.843 14.9155 122.73 14.9155C129.759 14.9155 134.675 19.2156 134.675 27.0834V27.745C134.675 35.471 129.902 39.6293 122.73 39.6293C115.107 39.5585 110.785 35.4946 110.785 27.745ZM128.382 27.6741V27.0834C128.382 22.7124 126.173 20.0898 122.659 20.0898C119.215 20.0898 116.936 22.4998 116.936 27.0834V27.6741C116.936 31.9033 119.144 34.3133 122.659 34.3133C126.173 34.2424 128.382 31.9033 128.382 27.6741ZM137.904 15.5062H143.034L143.627 19.9481C144.862 16.9711 147.498 14.9155 151.393 14.9155C157.401 14.9155 161.366 19.2156 161.366 27.1779V27.8395C161.366 35.5655 156.973 39.653 151.393 39.653C147.664 39.653 145.1 37.9754 143.841 35.282V47.1663H137.833L137.904 15.5062ZM155.121 27.6741V27.1543C155.121 22.4762 152.699 20.1607 149.469 20.1607C146.026 20.1607 143.746 22.7833 143.746 27.1543V27.6032C143.746 31.7616 145.955 34.3841 149.398 34.3841C152.936 34.3133 155.121 32.0687 155.121 27.6741ZM170.462 34.6913L169.939 38.9914H164.667V7.63843H170.675V19.6646C172.005 16.593 174.641 14.9155 178.369 14.9155C184.021 14.9864 188.201 18.8612 188.201 26.6581V27.3906C188.201 35.1875 184.235 39.653 178.227 39.653C174.261 39.5584 171.696 37.7392 170.462 34.6913ZM181.884 27.3906V26.7999C181.884 22.4998 179.533 20.0898 176.232 20.0898C172.86 20.0898 170.509 22.7833 170.509 26.8708V27.3906C170.509 31.7616 172.789 34.3133 176.161 34.3133C179.77 34.3133 181.884 32.0687 181.884 27.3906ZM190.837 27.745V27.0834C190.837 19.2156 195.895 14.9155 202.781 14.9155C209.811 14.9155 214.726 19.2156 214.726 27.0834V27.745C214.726 35.471 209.882 39.6293 202.781 39.6293C195.159 39.5585 190.837 35.4946 190.837 27.745ZM208.481 27.6741V27.0834C208.481 22.7124 206.272 20.0898 202.758 20.0898C199.314 20.0898 197.035 22.4998 197.035 27.0834V27.6741C197.035 31.9033 199.243 34.3133 202.758 34.3133C206.296 34.2424 208.481 31.9033 208.481 27.6741ZM222.776 26.7999L214.489 15.5062H221.589L226.362 22.5707L231.207 15.5062H238.236L229.829 26.729L238.687 38.9914H231.729L226.315 31.1945L221.043 38.9914H213.776L222.776 26.7999Z" fill="#868686"/>
<path d="M28.7627 9.95462L14.9894 18.6966L28.7627 27.4386L14.9894 36.1805L1.21606 27.3913L14.9894 18.6493L1.21606 9.95462L14.9894 1.21265L28.7627 9.95462ZM14.9181 38.9922L28.6914 30.2502L42.4647 38.9922L28.6914 47.7341L14.9181 38.9922ZM28.7627 27.3913L42.536 18.6493L28.7627 9.95462L42.4647 1.21265L56.238 9.95462L42.4647 18.6966L56.238 27.4386L42.4647 36.1805L28.7627 27.3913Z" fill="#868686"/>
</svg>
