<svg width="199" height="51" viewBox="0 0 199 51" fill="none" xmlns="http://www.w3.org/2000/svg">
<path fill-rule="evenodd" clip-rule="evenodd" d="M26.8367 0.510254C12.7524 0.510254 1.34473 11.8891 1.34473 25.9379C1.34473 37.1896 8.6418 46.6932 18.7749 50.0624C20.0495 50.2849 20.5274 49.5221 20.5274 48.8546C20.5274 48.2507 20.4956 46.2482 20.4956 44.1187C14.0907 45.2947 12.4337 42.5612 11.9239 41.1309C11.6371 40.3999 10.3944 38.1432 9.31097 37.5393C8.41875 37.0625 7.14415 35.8865 9.27911 35.8547C11.2866 35.8229 12.7205 37.6982 13.1985 38.461C15.4928 42.307 19.1572 41.2263 20.623 40.5588C20.8461 38.906 21.5153 37.7935 22.2481 37.1579C16.5762 36.5222 10.6493 34.329 10.6493 24.603C10.6493 21.8377 11.6371 19.5492 13.2622 17.7693C13.0073 17.1336 12.1151 14.5272 13.5171 11.0309C13.5171 11.0309 15.6521 10.3635 20.5274 13.6373C22.5668 13.0652 24.7336 12.7791 26.9004 12.7791C29.0673 12.7791 31.2341 13.0652 33.2734 13.6373C38.1488 10.3317 40.2837 11.0309 40.2837 11.0309C41.6858 14.5272 40.7936 17.1336 40.5386 17.7693C42.1638 19.5492 43.1516 21.8059 43.1516 24.603C43.1516 34.3608 37.1928 36.5222 31.5209 37.1579C32.4449 37.9525 33.2416 39.4781 33.2416 41.862C33.2416 45.2629 33.2097 47.9964 33.2097 48.8546C33.2097 49.5221 33.6877 50.3167 34.9623 50.0624C40.0229 48.3583 44.4204 45.1141 47.5357 40.7865C50.651 36.4588 52.3273 31.2656 52.3287 25.9379C52.3287 11.8891 40.921 0.510254 26.8367 0.510254Z" fill="#868686"/>
<path d="M120.184 38.2112H120.125C120.151 38.2112 120.169 38.2409 120.196 38.2438H120.214L120.184 38.2142V38.2112ZM120.196 38.2438C119.919 38.2468 119.223 38.3922 118.489 38.3922C116.169 38.3922 115.366 37.3242 115.366 35.9299V26.6416H120.095C120.363 26.6416 120.571 26.4043 120.571 26.078V21.0348C120.571 20.7678 120.333 20.5305 120.095 20.5305H115.366V14.2711C115.366 14.0337 115.217 13.8854 114.95 13.8854H108.526C108.258 13.8854 108.109 14.0337 108.109 14.2711V20.7085C108.109 20.7085 104.868 21.5095 104.659 21.5391C104.422 21.5985 104.273 21.8061 104.273 22.0434V26.078C104.273 26.4043 104.511 26.6416 104.778 26.6416H108.08V36.3719C108.08 43.6103 113.136 44.352 116.585 44.352C118.162 44.352 120.065 43.8477 120.363 43.6993C120.541 43.64 120.63 43.4323 120.63 43.2247V38.7748C120.634 38.6486 120.593 38.5252 120.513 38.4271C120.433 38.329 120.321 38.2629 120.196 38.2409V38.2438ZM190.669 31.7144C190.669 26.345 188.498 25.633 186.208 25.8703C184.424 25.989 182.996 26.8789 182.996 26.8789V37.3212C182.996 37.3212 184.454 38.3299 186.625 38.3892C189.688 38.4782 190.669 37.3806 190.669 31.7144ZM197.896 31.2398C197.896 41.4151 194.595 44.3223 188.826 44.3223C183.948 44.3223 181.331 41.8601 181.331 41.8601C181.331 41.8601 181.212 43.2247 181.063 43.4027C180.974 43.5807 180.825 43.64 180.647 43.64H176.245C175.948 43.64 175.68 43.4027 175.68 43.1357L175.74 10.1772C175.74 9.91022 175.978 9.67289 176.245 9.67289H182.58C182.848 9.67289 183.086 9.91022 183.086 10.1772V21.3611C183.086 21.3611 185.524 19.7889 189.093 19.7889L189.063 19.7295C192.632 19.7295 197.896 21.0645 197.896 31.2398ZM171.963 20.5305H165.717C165.39 20.5305 165.211 20.7678 165.211 21.0941V37.2322C165.211 37.2322 163.576 38.3892 161.345 38.3892C159.115 38.3892 158.46 37.3806 158.46 35.1556V21.0645C158.46 20.7975 158.222 20.5602 157.955 20.5602H151.59C151.323 20.5602 151.085 20.7975 151.085 21.0645V36.2236C151.085 42.75 154.743 44.3816 159.769 44.3816C163.903 44.3816 167.264 42.0974 167.264 42.0974C167.264 42.0974 167.412 43.2543 167.501 43.4323C167.561 43.5807 167.769 43.6993 167.977 43.6993H171.963C172.29 43.6993 172.468 43.462 172.468 43.195L172.528 21.0348C172.528 20.7678 172.29 20.5305 171.963 20.5305ZM101.477 20.5008H95.1425C94.8748 20.5008 94.6369 20.7678 94.6369 21.0941V42.8687C94.6369 43.462 95.0235 43.6697 95.5291 43.6697H101.239C101.834 43.6697 101.983 43.4027 101.983 42.8687V21.0051C101.983 20.7382 101.745 20.5008 101.477 20.5008ZM98.3545 10.4739C96.0644 10.4739 94.2502 12.2835 94.2502 14.5677C94.2502 16.852 96.0644 18.6616 98.3545 18.6616C100.585 18.6616 102.399 16.852 102.399 14.5677C102.399 12.2835 100.585 10.4739 98.3545 10.4739ZM147.397 9.73222H141.122C140.854 9.73222 140.616 9.96955 140.616 10.2365V22.3698H130.772V10.2365C130.772 9.96955 130.534 9.73222 130.266 9.73222H123.931C123.664 9.73222 123.426 9.96955 123.426 10.2365V43.195C123.426 43.462 123.693 43.6993 123.931 43.6993H130.266C130.534 43.6993 130.772 43.462 130.772 43.195V29.1039H140.616L140.556 43.195C140.556 43.462 140.794 43.6993 141.062 43.6993H147.397C147.664 43.6993 147.902 43.462 147.902 43.195V10.2365C147.902 9.96955 147.664 9.73222 147.397 9.73222ZM91.2762 24.3277V41.3557C91.2762 41.4744 91.2464 41.6821 91.0977 41.7414C91.0977 41.7414 87.3802 44.3816 81.2536 44.3816C73.8482 44.3816 65.0747 42.0677 65.0747 26.8196C65.0747 11.5715 72.7478 8.42694 80.2424 8.4566C86.7259 8.4566 89.343 9.91022 89.7594 10.1772C89.8784 10.3255 89.9379 10.4442 89.9379 10.5925L88.6888 15.873C88.6888 16.14 88.4211 16.4663 88.0939 16.3773C87.0233 16.051 85.4173 15.3984 81.6402 15.3984C77.2683 15.3984 72.5693 16.6443 72.5693 26.4636C72.5693 36.2829 77.0304 37.4399 80.2424 37.4399C82.9785 37.4399 83.96 37.1136 83.96 37.1136V30.2905H79.5881C79.261 30.2905 79.023 30.0532 79.023 29.7862V24.3277C79.023 24.0607 79.261 23.8234 79.5881 23.8234H90.7111C91.0383 23.8234 91.2762 24.0607 91.2762 24.3277Z" fill="#868686"/>
</svg>
