<svg width="200" height="65" viewBox="0 0 200 65" fill="none" xmlns="http://www.w3.org/2000/svg">
<path d="M144.598 17.5811H140.698V46.692H156.52V43.077H144.598V17.5811ZM171.58 41.5865C170.597 42.6013 168.948 43.616 166.729 43.616C163.749 43.616 162.544 42.1573 162.544 40.2229C162.544 37.3372 164.541 35.9419 168.822 35.9419C169.614 35.9419 170.914 36.0371 171.58 36.1639V41.5865ZM167.553 23.9551C164.383 23.9551 161.497 25.065 159.246 26.9359L160.641 29.346C162.227 28.4264 164.193 27.475 167.014 27.475C170.217 27.475 171.643 29.124 171.643 31.8829V33.3099C171.009 33.183 169.741 33.0879 168.917 33.0879C162.068 33.0879 158.612 35.498 158.612 40.5083C158.612 45.0113 161.371 47.2628 165.556 47.2628C168.378 47.2628 171.073 45.9627 171.992 43.8697L172.69 46.7237H175.448V31.8195C175.416 27.0945 173.356 23.9551 167.553 23.9551ZM188.035 43.7746C186.577 43.7746 185.277 43.5843 184.294 43.1404V29.6948C185.626 28.5849 187.274 27.7921 189.367 27.7921C193.14 27.7921 194.599 30.4559 194.599 34.7686C194.63 40.8889 192.252 43.7746 188.035 43.7746ZM189.684 23.9551C186.196 23.9551 184.294 26.3334 184.294 26.3334V22.5598V17.5811H180.458V45.9944C182.36 46.7872 184.992 47.2311 187.845 47.2311C195.138 47.2311 198.657 42.5696 198.657 34.5149C198.657 28.1727 195.423 23.9551 189.684 23.9551ZM102.049 20.7522C105.505 20.7522 107.756 21.8938 109.214 23.0672L110.895 20.1497C108.612 18.1519 105.505 17.0737 102.239 17.0737C93.9321 17.0737 88.0982 22.1475 88.0982 32.3586C88.0982 43.077 94.376 47.2628 101.573 47.2628C105.188 47.2628 108.231 46.4066 110.229 45.5821L110.134 34.1344V30.4876H99.4489V34.1027H106.266L106.361 42.7916C105.473 43.2355 103.919 43.5843 101.827 43.5843C96.0564 43.5843 92.1882 39.9375 92.1882 32.2951C92.1882 24.5259 96.1832 20.7522 102.049 20.7522ZM129.57 17.5811H125.733V22.4646V39.3667C125.733 44.0917 127.794 47.2311 133.596 47.2311C134.389 47.2311 135.182 47.1677 135.942 47.0092V43.5843C135.403 43.6795 134.801 43.7112 134.167 43.7112C130.965 43.7112 129.538 42.0622 129.538 39.3033V27.6653H135.942V24.4942H129.538L129.57 17.5811ZM116.031 46.692H119.868V24.4942H116.031V46.692ZM116.031 21.4182H119.868V17.5811H116.031V21.4182Z" fill="#868686"/>
<path d="M35.6878 64.0694L48.497 24.6841H22.8786L35.6878 64.0694Z" fill="#868686"/>
<path d="M35.6876 64.0694L22.8784 24.6841H4.96451L35.6876 64.0694Z" fill="#868686"/>
<path d="M4.96523 24.6841L1.06539 36.6392C0.716627 37.7174 1.0971 38.9224 2.01657 39.5884L35.6566 64.0377L4.96523 24.6841Z" fill="#868686"/>
<path d="M4.96451 24.6844H22.9101L15.1738 0.964419C14.7934 -0.272319 13.0495 -0.272319 12.6691 0.964419L4.96451 24.6844Z" fill="#868686"/>
<path d="M35.688 64.0694L48.4972 24.6841H66.4428L35.688 64.0694Z" fill="#868686"/>
<path d="M66.4115 24.6841L70.3114 36.6392C70.6601 37.7174 70.2797 38.9224 69.3602 39.5884L35.7202 64.0377L66.4115 24.6841Z" fill="#868686"/>
<path d="M66.411 24.6843H48.4654L56.17 0.964317C56.5822 -0.24071 58.2943 -0.24071 58.6748 0.964317L66.411 24.6843Z" fill="#868686"/>
</svg>
