<svg width="166" height="55" viewBox="0 0 166 55" fill="none" xmlns="http://www.w3.org/2000/svg">
<path d="M71.433 29.4441C71.433 37.1747 65.3537 42.8713 57.893 42.8713C50.4323 42.8713 44.353 37.1747 44.353 29.4441C44.353 21.6589 50.4323 16.0168 57.893 16.0168C65.3537 16.0168 71.433 21.6589 71.433 29.4441ZM65.5058 29.4441C65.5058 24.6132 61.9824 21.3078 57.893 21.3078C53.8036 21.3078 50.2802 24.6132 50.2802 29.4441C50.2802 34.2265 53.8036 37.5803 57.893 37.5803C61.9824 37.5803 65.5058 34.2205 65.5058 29.4441Z" fill="#868686"/>
<path d="M100.643 29.4441C100.643 37.1747 94.5638 42.8713 87.1031 42.8713C79.6424 42.8713 73.5631 37.1747 73.5631 29.4441C73.5631 21.665 79.6424 16.0168 87.1031 16.0168C94.5638 16.0168 100.643 21.6589 100.643 29.4441ZM94.7159 29.4441C94.7159 24.6132 91.1925 21.3078 87.1031 21.3078C83.0137 21.3078 79.4903 24.6132 79.4903 29.4441C79.4903 34.2265 83.0137 37.5803 87.1031 37.5803C91.1925 37.5803 94.7159 34.2205 94.7159 29.4441Z" fill="#868686"/>
<path d="M128.636 16.828V40.9341C128.636 50.8501 122.758 54.9001 115.808 54.9001C109.267 54.9001 105.329 50.5474 103.844 46.9878L109.005 44.8508C109.924 47.0362 112.175 49.6151 115.802 49.6151C120.251 49.6151 123.007 46.8849 123.007 41.7453V39.8141H122.8C121.474 41.4426 118.918 42.8652 115.693 42.8652C108.944 42.8652 102.761 37.0173 102.761 29.4925C102.761 21.9132 108.944 16.0168 115.693 16.0168C118.912 16.0168 121.468 17.4395 122.8 19.0195H123.007V16.8341H128.636V16.828ZM123.427 29.4925C123.427 24.7645 120.257 21.3078 116.222 21.3078C112.133 21.3078 108.707 24.7645 108.707 29.4925C108.707 34.172 112.133 37.5803 116.222 37.5803C120.257 37.5803 123.427 34.172 123.427 29.4925Z" fill="#868686"/>
<path d="M137.916 2.69873V42.0481H132.135V2.69873H137.916Z" fill="#868686"/>
<path d="M160.445 33.8635L165.045 36.9146C163.56 39.1 159.982 42.8654 153.799 42.8654C146.132 42.8654 140.405 36.969 140.405 29.4382C140.405 21.4533 146.18 16.011 153.136 16.011C160.14 16.011 163.566 21.5562 164.686 24.5528L165.301 26.0784L147.258 33.5124C148.639 36.2063 150.787 37.5805 153.799 37.5805C156.818 37.5805 158.911 36.1034 160.445 33.8635ZM146.284 29.0326L158.345 24.0504C157.682 22.3735 155.686 21.2051 153.337 21.2051C150.325 21.2051 146.132 23.8506 146.284 29.0326Z" fill="#868686"/>
<path d="M22.4699 25.9508V20.2542H41.7666C41.9553 21.247 42.0527 22.4214 42.0527 23.6927C42.0527 27.9667 40.8782 33.2516 37.0931 37.017C33.4114 40.8309 28.7074 42.8649 22.476 42.8649C10.9259 42.8649 1.21362 33.5059 1.21362 22.0158C1.21362 10.5258 10.9259 1.16675 22.476 1.16675C28.8656 1.16675 33.4175 3.66089 36.8375 6.91175L32.7968 10.9314C30.3444 8.64312 27.0218 6.86332 22.4699 6.86332C14.0355 6.86332 7.43897 13.6254 7.43897 22.0158C7.43897 30.4063 14.0355 37.1684 22.4699 37.1684C27.9406 37.1684 31.0564 34.983 33.0524 32.9973C34.6711 31.387 35.736 29.0866 36.1559 25.9447L22.4699 25.9508Z" fill="#868686"/>
</svg>
