<svg width="264" height="62" viewBox="0 0 264 62" fill="none" xmlns="http://www.w3.org/2000/svg">
<path fill-rule="evenodd" clip-rule="evenodd" d="M80.6677 45.2617C79.7054 44.8973 79.0754 44.1255 79.0754 43.0965C79.0754 41.8509 80.1111 40.8241 81.3711 40.8241C81.7422 40.8241 82.04 40.897 82.2989 41.0063C84.0173 41.7936 85.8892 42.1947 87.7814 42.1811C91.6371 42.1811 93.4517 40.3481 93.4517 36.8237V35.8698C91.7838 37.8528 89.9693 39.064 86.968 39.064C82.3356 39.064 78.1476 35.724 78.1476 29.8886V29.8178C78.1476 23.946 82.409 20.6445 86.968 20.6445C90.0426 20.6445 91.8572 21.9308 93.3761 23.5815V23.5429C93.3761 22.038 94.6362 20.7924 96.194 20.7924C97.7475 20.7924 99.0075 22.038 99.0075 23.5794V36.2385C99.0075 39.7607 98.1574 42.3269 96.4896 43.9776C94.6362 45.8148 91.7838 46.6209 87.9303 46.6209C85.4434 46.6426 82.9763 46.1808 80.6677 45.2617ZM93.4517 29.8907V29.8178C93.4517 27.1381 91.3372 25.2665 88.597 25.2665C85.8568 25.2665 83.7812 27.1381 83.7812 29.8178V29.8907C83.7812 32.6048 85.8568 34.4398 88.597 34.4398C91.3372 34.4398 93.4517 32.5683 93.4517 29.8907ZM102.197 23.5794C102.197 22.038 103.457 20.7924 105.012 20.7924C106.57 20.7924 107.828 22.038 107.828 23.5794V24.4583C108.643 22.5525 109.977 20.7924 111.647 20.7924C113.388 20.7924 114.387 21.9287 114.387 23.5065C114.387 24.9728 113.425 25.8539 112.275 26.1112C109.422 26.7736 107.83 28.9367 107.83 32.8985V38.1079C107.83 39.6493 106.57 40.897 105.012 40.897C104.643 40.8978 104.277 40.8264 103.936 40.6867C103.595 40.5471 103.285 40.342 103.023 40.0832C102.762 39.8244 102.554 39.5169 102.412 39.1783C102.27 38.8398 102.197 38.4767 102.197 38.11V23.5794ZM113.72 35.0272V34.9544C113.72 30.6603 117.017 28.6795 121.725 28.6795C123.725 28.6795 125.171 29.0096 126.58 29.4855V29.1554C126.58 26.8465 125.134 25.5602 122.318 25.5602C121 25.5463 119.688 25.7321 118.426 26.1112C118.166 26.2071 117.89 26.2571 117.613 26.2591C117.308 26.2648 117.006 26.2101 116.723 26.0983C116.44 25.9864 116.182 25.8196 115.964 25.6076C115.747 25.3957 115.574 25.1427 115.457 24.8637C115.339 24.5846 115.278 24.285 115.278 23.9824C115.278 22.992 115.904 22.1495 116.797 21.8172C118.575 21.1569 120.502 20.7924 123.132 20.7924C126.207 20.7924 128.431 21.5985 129.838 22.992C131.32 24.4583 131.989 26.6257 131.989 29.2669V38.2172C131.989 39.7222 130.766 40.897 129.247 40.897C127.615 40.897 126.541 39.7607 126.541 38.5859V38.5474C125.171 40.0523 123.283 41.0427 120.538 41.0427C116.797 41.0427 113.72 38.9161 113.72 35.0272ZM126.653 33.741V32.7527C125.521 32.2582 124.296 32.0076 123.059 32.0174C120.648 32.0174 119.168 32.9713 119.168 34.7335V34.8064C119.168 36.3114 120.428 37.1925 122.243 37.1925C124.875 37.1925 126.653 35.7604 126.653 33.741ZM134.99 23.5794C134.99 22.038 136.25 20.7924 137.808 20.7924C139.364 20.7924 140.624 22.038 140.624 23.5794V23.8002C141.918 22.1495 143.625 20.6445 146.477 20.6445C149.071 20.6445 151.034 21.7807 152.072 23.7637C153.813 21.7464 155.891 20.6445 158.592 20.6445C162.78 20.6445 165.303 23.1399 165.303 27.8734V38.1079C165.303 39.6493 164.04 40.897 162.485 40.897C162.116 40.8978 161.75 40.8264 161.408 40.6868C161.067 40.5472 160.757 40.3421 160.495 40.0833C160.233 39.8246 160.025 39.5171 159.883 39.1785C159.741 38.8399 159.668 38.4769 159.667 38.11V29.7063C159.667 27.0652 158.48 25.7082 156.37 25.7082C154.258 25.7082 152.961 27.0652 152.961 29.7063V38.11C152.961 39.6493 151.703 40.897 150.145 40.897C149.4 40.8981 148.685 40.6052 148.157 40.0826C147.629 39.56 147.331 38.8505 147.33 38.11V29.7063C147.33 27.0652 146.143 25.7082 144.033 25.7082C141.918 25.7082 140.624 27.0652 140.624 29.7063V38.11C140.624 39.6493 139.364 40.897 137.808 40.897C137.439 40.8981 137.073 40.8269 136.731 40.6874C136.39 40.5479 136.079 40.3428 135.818 40.084C135.556 39.8251 135.348 39.5175 135.206 39.1788C135.064 38.8401 134.991 38.4769 134.99 38.11V23.5794ZM168.341 23.5794C168.341 22.038 169.601 20.7924 171.156 20.7924C172.714 20.7924 173.974 22.038 173.974 23.5794V23.8002C175.269 22.1495 176.973 20.6445 179.828 20.6445C182.421 20.6445 184.385 21.7807 185.422 23.7637C187.164 21.7464 189.239 20.6445 191.943 20.6445C196.131 20.6445 198.651 23.1399 198.651 27.8734V38.1079C198.651 39.6493 197.391 40.897 195.833 40.897C195.088 40.8981 194.373 40.6052 193.845 40.0826C193.317 39.56 193.019 38.8505 193.017 38.11V29.7063C193.017 27.0652 191.831 25.7082 189.72 25.7082C187.606 25.7082 186.311 27.0652 186.311 29.7063V38.11C186.311 39.6493 185.051 40.897 183.496 40.897C183.127 40.8978 182.761 40.8264 182.42 40.6867C182.078 40.5471 181.768 40.342 181.507 40.0832C181.245 39.8244 181.038 39.5169 180.896 39.1783C180.754 38.8398 180.681 38.4767 180.68 38.11V29.7063C180.68 27.0652 179.493 25.7082 177.381 25.7082C175.269 25.7082 173.972 27.0652 173.972 29.7063V38.11C173.972 39.6493 172.714 40.897 171.156 40.897C170.787 40.8978 170.422 40.8264 170.08 40.6867C169.739 40.5471 169.429 40.342 169.167 40.0832C168.906 39.8244 168.698 39.5169 168.556 39.1783C168.414 38.8398 168.341 38.4767 168.341 38.11V23.5794ZM200.504 35.0272V34.9544C200.504 30.6603 203.803 28.6795 208.509 28.6795C210.161 28.6646 211.804 28.9374 213.362 29.4855V29.1554C213.362 26.8465 211.916 25.5602 209.1 25.5602C207.545 25.5602 206.285 25.7811 205.21 26.1112C204.95 26.2071 204.674 26.2571 204.397 26.2591C204.092 26.2654 203.789 26.2111 203.505 26.0995C203.222 25.9879 202.964 25.8211 202.746 25.6091C202.529 25.397 202.356 25.1439 202.238 24.8645C202.12 24.5852 202.06 24.2853 202.06 23.9824C202.06 22.992 202.692 22.1495 203.579 21.8172C205.359 21.1569 207.286 20.7924 209.916 20.7924C212.993 20.7924 215.215 21.5985 216.622 22.992C218.104 24.4583 218.771 26.6257 218.771 29.2669V38.2172C218.771 38.5728 218.7 38.9248 218.561 39.2527C218.423 39.5807 218.221 39.878 217.966 40.1274C217.711 40.3768 217.408 40.5733 217.076 40.7054C216.744 40.8375 216.388 40.9026 216.031 40.897C214.399 40.897 213.325 39.7607 213.325 38.5859V38.5474C211.955 40.0523 210.062 41.0427 207.322 41.0427C203.579 41.0427 200.504 38.9161 200.504 35.0272ZM213.437 33.741V32.7527C212.304 32.2583 211.079 32.0077 209.842 32.0174C207.432 32.0174 205.952 32.9713 205.952 34.7335V34.8064C205.952 36.3114 207.21 37.1925 209.027 37.1925C211.657 37.1925 213.437 35.7604 213.437 33.741ZM221.774 23.5794C221.774 22.038 223.034 20.7924 224.59 20.7924C226.148 20.7924 227.405 22.038 227.405 23.5794V24.4583C228.221 22.5525 229.554 20.7924 231.224 20.7924C232.964 20.7924 233.965 21.9287 233.965 23.5065C233.965 24.9728 233 25.8539 231.852 26.1112C229 26.7736 227.405 28.9367 227.405 32.8985V38.1079C227.405 39.6493 226.148 40.897 224.59 40.897C223.845 40.8981 223.129 40.6052 222.601 40.0826C222.073 39.56 221.776 38.8505 221.774 38.11V23.5794ZM235.669 16.462C235.669 14.9184 236.929 13.675 238.485 13.675C240.043 13.675 241.303 14.9184 241.303 16.462V38.1079C241.303 39.6493 240.043 40.897 238.485 40.897C237.74 40.8981 237.024 40.6052 236.496 40.0826C235.968 39.56 235.671 38.8505 235.669 38.11V16.4598V16.462ZM245.786 46.1428C244.971 45.8513 244.006 45.1888 244.006 43.834C244 43.5388 244.053 43.2454 244.161 42.9707C244.27 42.696 244.433 42.4455 244.64 42.2337C244.847 42.0219 245.094 41.8531 245.367 41.7369C245.64 41.6208 245.934 41.5597 246.231 41.5572C246.675 41.5572 246.934 41.6301 247.156 41.7052C247.638 41.8509 247.935 41.926 248.343 41.926C249.342 41.926 249.825 41.7416 250.343 40.7512L250.529 40.3096L243.749 24.7542C243.58 24.3445 243.479 23.91 243.452 23.4679C243.452 21.8922 244.675 20.7924 246.231 20.7924C247.638 20.7924 248.453 21.5621 248.934 22.8826L253.234 34.3305L257.383 22.9191C257.828 21.7464 258.641 20.7924 260.089 20.7924C261.533 20.7924 262.754 21.8922 262.754 23.3607C262.754 23.8002 262.607 24.424 262.497 24.6813L255.567 41.1542C253.899 45.1524 252.233 46.6573 248.861 46.6573C247.601 46.6573 246.712 46.4751 245.786 46.1428Z" fill="#868686"/>
<path fill-rule="evenodd" clip-rule="evenodd" d="M31.7886 61.2934C48.7842 61.2934 62.5628 47.6503 62.5628 30.8215C62.5628 13.9927 48.7842 0.349609 31.7886 0.349609C14.793 0.349609 1.01447 13.9927 1.01447 30.8215C1.01447 47.6503 14.793 61.2934 31.7886 61.2934ZM37.9643 39.083C36.9395 39.083 35.9923 38.3991 35.811 37.4023C35.7545 37.1032 35.7651 36.7954 35.8421 36.5009C35.919 36.2064 36.0604 35.9323 36.2562 35.6983C36.4519 35.4643 36.6972 35.2761 36.9746 35.1471C37.2519 35.0181 37.5545 34.9514 37.8608 34.9519H49.1818V46.7128C49.1808 47.0169 49.1124 47.3171 48.9815 47.5921C48.8506 47.867 48.6604 48.11 48.4244 48.3038C48.1885 48.4975 47.9125 48.6373 47.616 48.7132C47.3196 48.7891 47.01 48.7992 46.7092 48.7429C45.7016 48.5629 45.0111 47.6239 45.0111 46.612V44.6483L45.4038 42.4745C43.7138 44.4081 41.6237 45.9566 39.2764 47.0143C36.929 48.0721 34.3796 48.6142 31.8022 48.6036C21.465 48.6036 13.156 40.1356 13.7558 29.7596C14.2736 20.8457 21.5556 13.5547 30.5529 12.9566C33.7882 12.7303 37.0252 13.3732 39.9244 14.8179C42.8236 16.2625 45.2782 18.4557 47.0306 21.1673C47.2924 21.6134 47.3738 22.1416 47.2584 22.6451C47.1431 23.1485 46.8395 23.5896 46.4093 23.8792C45.4621 24.5288 44.1589 24.1858 43.5029 23.2489C41.0303 19.8081 36.7194 16.959 31.8022 16.959C22.3669 16.959 15.1281 26.3296 18.9298 36.146C20.6063 40.47 24.5763 43.5678 29.1979 44.286C34.8746 45.1671 40.0658 43.1691 43.0563 38.8257L41.1878 39.083H37.9643Z" fill="#868686"/>
</svg>
