<svg width="215" height="31" viewBox="0 0 215 31" fill="none" xmlns="http://www.w3.org/2000/svg">
<path d="M127.504 0.927485C123.093 0.927485 118.782 4.90942 118.286 10.6629V1.4018H111.953V29.3265H118.364V15.8098C118.364 12.0235 121.056 6.6824 127.504 6.6824V0.927485Z" fill="#868686"/>
<path d="M194.754 24.856V5.72425H198.468C203.419 5.72425 207.443 8.81001 207.443 15.1359C207.443 21.4616 203.419 24.856 198.468 24.856H194.754ZM188.409 29.3304H199.242C205.896 29.3304 214.097 25.0103 214.097 15.1359C214.097 5.41567 205.896 1.40418 199.242 1.40418H188.409V29.3304Z" fill="#868686"/>
<path d="M164.132 15.4447C164.132 10.3532 166.763 6.18745 171.096 6.18745C175.274 6.18745 177.595 10.3532 177.595 15.4447C177.595 20.5363 175.274 24.702 171.096 24.702C166.763 24.702 164.132 20.5363 164.132 15.4447ZM157.633 15.7533C157.633 24.0849 161.965 29.9479 168.775 29.9479C173.726 29.9479 176.667 26.7078 178.214 21.4619V29.3307H184.558V1.40452H178.214V8.81035C176.822 3.87313 173.882 0.941657 169.239 0.941657C162.275 0.941657 157.633 7.26747 157.633 15.7533Z" fill="#868686"/>
<path d="M13.1516 29.9479C5.25942 29.9479 0.616943 23.622 0.616943 15.7533C0.616943 7.57605 5.72367 0.941657 15.4729 0.941657C25.5316 0.941657 28.9361 7.73033 29.0908 11.5875H21.8176C21.6628 9.4275 19.8058 6.18745 15.3181 6.18745C10.5209 6.18745 7.42591 10.3532 7.42591 15.4447C7.42591 20.5363 10.5209 24.702 15.3181 24.702C19.6511 24.702 21.508 21.3077 22.2818 17.9133H15.3181V15.1361H29.9303V29.3307H23.5198V20.382C23.0556 23.622 21.0438 29.9479 13.1516 29.9479Z" fill="#868686"/>
<path d="M42.9279 29.9475C36.8927 29.9475 33.1788 25.936 33.1788 17.913V1.40418H39.6782V17.913C39.6782 22.0788 41.6899 24.0845 45.0944 24.0845C51.7487 24.0845 54.2246 15.9072 54.2246 10.1986V1.40418H60.7241V29.3304H54.3793V18.993C53.1413 24.7017 49.7369 29.9475 42.9279 29.9475Z" fill="#868686"/>
<path d="M99.5631 0.927002C94.0178 0.927002 90.5197 6.26766 89.3779 11.2057C89.1827 4.58811 85.9187 0.927002 80.6961 0.927002C76.184 0.927002 71.9978 4.93887 70.9106 11.2857V1.40205H64.5747V29.3289H70.9918V19.3172C70.9918 16.8352 72.0296 6.64956 78.4895 6.64956C82.6742 6.64956 83.1105 10.413 83.1105 15.5574V29.3289H89.5246V19.3172C89.5246 16.8352 90.6054 6.64956 97.0652 6.64956C101.247 6.64956 101.678 10.413 101.678 15.5574V29.3289H108.101V12.8103C108.13 4.88567 105.324 0.927002 99.5631 0.927002Z" fill="#868686"/>
<path d="M141.271 0.927002C132.964 0.927002 127.335 7.42145 127.335 15.4374C127.335 24.2698 132.688 29.9477 141.271 29.9477C149.579 29.9477 155.308 23.4534 155.308 15.4374C155.308 6.605 149.85 0.927002 141.271 0.927002ZM141.271 25.0045C136.435 25.0045 133.303 20.9224 133.303 15.4374C133.303 9.95241 136.446 5.87011 141.271 5.87011C146.096 5.87011 149.114 9.95241 149.114 15.4374C149.114 20.9224 146.093 25.0045 141.271 25.0045Z" fill="#868686"/>
</svg>
