<svg width="168" height="48" viewBox="0 0 168 48" fill="none" xmlns="http://www.w3.org/2000/svg">
<g clip-path="url(#clip0_1_1210)">
<path d="M18.5874 8.05835V21.2701H6.36119V8.05835H0.556641V39.596H6.36119V26.8133H18.5874V39.596H24.392V8.05835H18.5874Z" fill="#868686"/>
<path d="M42.9688 29.4008C42.9688 30.6647 42.4629 31.8768 41.5623 32.7706C40.6617 33.6643 39.4403 34.1664 38.1667 34.1664C36.8932 34.1664 35.6717 33.6643 34.7712 32.7706C33.8706 31.8768 33.3647 30.6647 33.3647 29.4008V15.8927H27.8588V29.4008C27.8588 32.1113 28.9437 34.7107 30.875 36.6274C32.8062 38.544 35.4256 39.6207 38.1568 39.6207C40.888 39.6207 43.5073 38.544 45.4386 36.6274C47.3698 34.7107 48.4548 32.1113 48.4548 29.4008V15.8927H42.9688V29.4008Z" fill="#868686"/>
<path d="M83.7641 17.2848C83.7641 14.5161 85.6098 13.6383 87.6319 13.6383C89.2615 13.6383 91.4144 14.8689 92.8221 16.3619L96.4283 12.1452C94.628 9.72925 90.9764 8.05838 87.9874 8.05838C82.015 8.05838 77.695 11.5299 77.695 17.2848C77.695 27.962 90.8456 24.5751 90.8456 30.5502C90.8456 32.3932 89.0425 34.0217 86.9777 34.0217C83.7214 34.0217 82.6663 32.4412 81.1704 30.7703L77.1689 34.8995C79.7285 38.0183 82.8853 39.6017 86.6678 39.6017C92.3415 39.6017 96.9061 36.0878 96.9061 30.5953C96.9061 18.7412 83.7555 22.4245 83.7555 17.2848" fill="#868686"/>
<path d="M165.119 34.5576C161.865 34.5576 160.941 33.1605 160.941 31.0212V21.552H165.998V16.7539H160.941V10.4232L155.358 12.9097V32.1981C155.358 37.1317 158.788 39.6182 163.492 39.6182C164.23 39.6316 164.967 39.573 165.693 39.4432L167.056 34.4673C166.441 34.5097 165.736 34.552 165.119 34.552" fill="#868686"/>
<path d="M63.9274 16.052C61.2 16.052 59.2974 16.8366 57.4574 18.6288V8.24798H51.9429V27.4884C51.9429 34.6912 57.19 39.6247 63.0856 39.6247C69.6267 39.6247 75.3801 34.6037 75.3801 27.8412C75.3801 21.1633 70.0846 16.0548 63.9274 16.0548V16.052ZM63.8933 34.1182C62.6558 34.1182 61.4461 33.7541 60.4172 33.0718C59.3883 32.3895 58.5863 31.4197 58.1128 30.2851C57.6392 29.1505 57.5153 27.902 57.7567 26.6975C57.9982 25.493 58.5941 24.3867 59.4691 23.5183C60.3441 22.6499 61.4589 22.0585 62.6726 21.8189C63.8863 21.5793 65.1443 21.7023 66.2876 22.1723C67.4309 22.6422 68.4081 23.4381 69.0956 24.4592C69.7831 25.4803 70.15 26.6808 70.15 27.9089C70.15 29.5557 69.4908 31.1351 68.3175 32.2996C67.1441 33.464 65.5527 34.1182 63.8933 34.1182Z" fill="#868686"/>
<path d="M123.804 27.5521C123.804 20.7783 118.062 15.7685 111.51 15.7685C105.614 15.7685 100.367 20.7021 100.367 27.9049V47.1565H105.881V36.7616C107.719 38.551 109.624 39.3385 112.349 39.3385C118.506 39.3385 123.801 34.2327 123.801 27.5521H123.804ZM118.583 27.4843C118.583 28.7124 118.216 29.9129 117.528 30.934C116.841 31.9551 115.863 32.751 114.72 33.221C113.577 33.6909 112.319 33.8139 111.105 33.5743C109.892 33.3347 108.777 32.7434 107.902 31.875C107.027 31.0066 106.431 29.9002 106.189 28.6957C105.948 27.4912 106.072 26.2427 106.545 25.1081C107.019 23.9735 107.821 23.0038 108.85 22.3215C109.879 21.6392 111.088 21.275 112.326 21.275C113.985 21.275 115.577 21.9292 116.75 23.0937C117.923 24.2582 118.583 25.8375 118.583 27.4843Z" fill="#868686"/>
<path d="M141.563 15.6808V10.2392C142.288 9.90332 142.902 9.37003 143.333 8.70144C143.764 8.03286 143.994 7.2565 143.998 6.4628V6.33579C143.995 5.22661 143.55 4.16371 142.759 3.37939C141.969 2.59508 140.898 2.15314 139.78 2.15016H139.652C138.535 2.15314 137.464 2.59508 136.673 3.37939C135.883 4.16371 135.438 5.22661 135.435 6.33579V6.4628C135.438 7.2565 135.669 8.03286 136.1 8.70144C136.531 9.37003 137.145 9.90332 137.869 10.2392V15.6808C135.786 15.997 133.824 16.8538 132.181 18.1645L117.125 6.53901C117.232 6.15551 117.29 5.75999 117.296 5.36206C117.297 4.42816 117.019 3.5149 116.497 2.73777C115.975 1.96064 115.233 1.35454 114.364 0.996119C113.495 0.637699 112.538 0.543055 111.615 0.724156C110.692 0.905256 109.844 1.35397 109.178 2.01355C108.511 2.67312 108.057 3.51395 107.872 4.42969C107.688 5.34543 107.781 6.29495 108.14 7.15819C108.499 8.02143 109.108 8.75961 109.89 9.27939C110.672 9.79917 111.591 10.0772 112.532 10.0783C113.359 10.0753 114.17 9.85623 114.884 9.44327L129.687 20.8797C128.354 22.876 127.658 25.2249 127.691 27.6197C127.724 30.0145 128.484 32.3437 129.872 34.3031L125.367 38.7738C125.005 38.6595 124.629 38.5987 124.249 38.5931C123.476 38.5931 122.72 38.8208 122.077 39.2472C121.434 39.6736 120.933 40.2797 120.637 40.9888C120.341 41.698 120.263 42.4783 120.414 43.2311C120.565 43.9839 120.937 44.6754 121.484 45.2181C122.031 45.7609 122.728 46.1305 123.486 46.2802C124.245 46.43 125.031 46.3531 125.746 46.0594C126.46 45.7656 127.071 45.2682 127.501 44.63C127.93 43.9918 128.16 43.2415 128.16 42.474C128.155 42.0973 128.093 41.7236 127.978 41.3648L132.434 36.942C133.889 38.0448 135.578 38.8031 137.374 39.1591C139.169 39.515 141.022 39.4593 142.792 38.996C144.562 38.5328 146.202 37.6743 147.587 36.4861C148.971 35.298 150.064 33.8115 150.782 32.1402C151.5 30.469 151.823 28.6571 151.727 26.8428C151.632 25.0286 151.12 23.2601 150.23 21.6722C149.341 20.0843 148.098 18.7191 146.596 17.6807C145.094 16.6424 143.373 15.9583 141.563 15.6808ZM139.718 33.5805C138.498 33.5805 137.306 33.2217 136.292 32.5493C135.278 31.8769 134.488 30.9213 134.021 29.8032C133.555 28.6851 133.433 27.4548 133.67 26.2678C133.908 25.0808 134.496 23.9905 135.358 23.1348C136.22 22.279 137.319 21.6962 138.515 21.4601C139.711 21.224 140.951 21.3452 142.077 21.8083C143.204 22.2715 144.167 23.0558 144.844 24.062C145.522 25.0683 145.883 26.2513 145.883 27.4615C145.883 29.0844 145.234 30.6408 144.078 31.7883C142.921 32.9359 141.353 33.5805 139.718 33.5805Z" fill="#868686"/>
</g>
<defs>
<clipPath id="clip0_1_1210">
<rect width="168" height="48" fill="white"/>
</clipPath>
</defs>
</svg>
