<svg width="184" height="53" viewBox="0 0 184 53" fill="none" xmlns="http://www.w3.org/2000/svg">
<path d="M10.3701 0.807705C6.64841 2.38564 2.557 6.84349 1.2648 12.4391C-0.371678 19.5289 6.43845 22.5269 6.99702 21.5439C7.65446 20.3888 5.77673 19.9982 5.39021 16.3197C4.89067 11.5686 7.07136 6.25975 9.81584 3.93039C10.326 3.49761 10.3017 4.09996 10.3017 5.21412C10.3017 7.2065 10.193 25.0922 10.193 28.825C10.193 33.8759 9.98707 35.4709 9.61715 37.0469C9.24235 38.6441 8.63979 39.7233 9.09637 40.139C9.6065 40.604 11.7846 39.4979 13.0455 37.7154C14.5575 35.5776 15.0868 33.0101 15.1818 30.222C15.2966 26.8609 15.2917 21.5276 15.2966 18.4855C15.3011 15.6955 15.343 7.5256 15.2483 2.61419C15.2251 1.40952 11.9266 0.14564 10.37 0.806239L10.3701 0.807705ZM142.528 24.4456C142.408 27.0714 141.835 29.1238 141.122 30.5716C139.744 33.3742 136.882 34.2445 135.668 30.2155C135.006 28.0194 134.975 24.3515 135.451 21.2868C135.935 18.1647 137.288 15.8069 139.528 16.0195C141.738 16.2297 142.772 19.1135 142.528 24.4456ZM105.281 40.7369C105.251 45.0999 104.573 48.9254 103.119 50.0364C101.057 51.6119 98.2857 50.4301 98.8596 47.2464C99.3673 44.4291 101.769 41.5519 105.287 38.0365C105.287 38.0365 105.294 38.8382 105.281 40.7369ZM104.718 24.4201C104.591 26.8118 103.979 29.2144 103.312 30.5719C101.933 33.3745 99.0511 34.2507 97.8569 30.2159C97.0403 27.4591 97.2359 23.8911 97.6399 21.643C98.1642 18.7261 99.4349 16.0201 101.717 16.0201C103.936 16.0201 105.03 18.4857 104.718 24.4201ZM83.1399 24.3836C83.0046 26.9165 82.5168 29.0339 81.7339 30.5719C80.3174 33.3552 77.5151 34.238 76.2793 30.2159C75.3883 27.3156 75.6916 23.361 76.0622 21.2248C76.6122 18.0547 77.9895 15.8072 80.1396 16.0201C82.3482 16.2387 83.4218 19.1135 83.1399 24.3836ZM182.025 27.3422C181.485 27.3422 181.239 27.9059 181.035 28.8547C180.328 32.1537 179.585 32.8987 178.627 32.8987C177.556 32.8987 176.594 31.2651 176.347 27.995C176.153 25.4237 176.184 20.6898 176.432 15.9808C176.483 15.0133 176.22 14.056 173.658 13.1132C172.555 12.7078 170.953 12.1107 170.155 14.0616C167.9 19.5731 167.018 23.9488 166.811 25.7264C166.8 25.8184 166.689 25.8372 166.669 25.6223C166.537 24.1985 166.241 21.6114 166.204 16.1758C166.197 15.1153 165.975 14.2125 164.82 13.4735C164.07 12.9939 161.793 12.1457 160.973 13.1548C160.262 13.98 159.44 16.2009 158.585 18.8334C157.89 20.9731 157.406 22.4205 157.406 22.4205C157.406 22.4205 157.416 16.6473 157.424 14.4574C157.427 13.6313 156.868 13.356 156.699 13.3061C155.94 13.0829 154.444 12.7099 153.809 12.7099C153.025 12.7099 152.833 13.1535 152.833 13.7999C152.833 13.8845 152.71 21.4009 152.71 26.6567C152.71 26.885 152.71 27.1341 152.712 27.3987C152.279 29.8143 150.873 33.0935 149.345 33.0935C147.815 33.0935 147.093 31.7226 147.093 25.4568C147.093 21.8016 147.201 20.2122 147.254 17.5685C147.285 16.0457 147.345 14.8764 147.341 14.611C147.33 13.7972 145.941 13.3871 145.294 13.2355C144.645 13.0827 144.081 13.0235 143.64 13.0489C143.016 13.0845 142.575 13.499 142.575 14.0691C142.575 14.3748 142.578 14.956 142.578 14.956C141.775 13.6773 140.483 12.7872 139.623 12.5293C137.307 11.8327 134.891 12.45 133.068 15.0332C131.62 17.0858 130.747 19.4105 130.403 22.7505C130.152 25.1923 130.234 27.6684 130.68 29.7625C130.141 32.1254 129.139 33.0935 128.042 33.0935C126.449 33.0935 125.295 30.4607 125.429 25.9076C125.517 22.9128 126.109 20.8111 126.756 17.7706C127.032 16.4744 126.808 15.7958 126.246 15.1454C125.73 14.549 124.632 14.2443 123.053 14.6191C121.929 14.8863 120.321 15.1736 118.85 15.3944C118.85 15.3944 118.939 15.0357 119.012 14.4033C119.394 11.0869 115.836 11.356 114.701 12.4152C114.024 13.0476 113.562 13.7935 113.387 15.1346C113.11 17.2628 114.823 18.2666 114.823 18.2666C114.261 20.8734 112.883 24.2788 111.46 26.7409C110.698 28.06 110.115 29.0374 109.362 30.0765C109.36 29.6896 109.357 29.3027 109.356 28.9176C109.339 23.437 109.411 19.1236 109.443 17.569C109.474 16.0462 109.534 14.9079 109.531 14.6425C109.522 14.0473 109.179 13.8226 108.465 13.538C107.834 13.2863 107.088 13.112 106.314 13.0513C105.337 12.9741 104.748 13.4989 104.764 14.1196C104.767 14.2367 104.767 14.9563 104.767 14.9563C103.963 13.6775 102.671 12.7875 101.811 12.5295C99.4956 11.8333 97.0793 12.4505 95.2567 15.0334C93.8084 17.086 92.8599 19.9662 92.5912 22.7253C92.3408 25.2967 92.387 27.482 92.7283 29.3228C92.3601 31.1661 91.3014 33.0937 90.1044 33.0937C88.5741 33.0937 87.7034 31.7228 87.7034 25.457C87.7034 21.8018 87.8117 20.2124 87.865 17.569C87.8959 16.0462 87.9556 14.8766 87.9522 14.6115C87.9409 13.7978 86.5517 13.3876 85.9053 13.2357C85.2289 13.0773 84.6449 13.019 84.1965 13.0525C83.6049 13.0972 83.189 13.6338 83.189 14.034V14.9563C82.3856 13.6775 81.0934 12.7875 80.2336 12.5295C77.918 11.8333 75.5151 12.4604 73.679 15.0334C72.4817 16.7112 71.5124 18.5712 71.0135 22.6887C70.8694 23.8786 70.8057 24.9928 70.814 26.0343C70.3365 28.9918 68.2277 32.4005 66.5028 32.4005C65.4934 32.4005 64.5321 30.4175 64.5321 26.1911C64.5321 20.5614 64.8761 12.546 64.9342 11.7734C64.9342 11.7734 67.1137 11.7359 67.5358 11.731C68.6229 11.7189 69.6075 11.7449 71.0555 11.6699C71.7817 11.6324 72.4814 8.99238 71.7318 8.66565C71.3921 8.51777 68.9911 8.3882 68.0392 8.36773C67.2389 8.34936 65.0108 8.18234 65.0108 8.18234C65.0108 8.18234 65.2106 2.86204 65.2571 2.30001C65.2966 1.83159 64.6983 1.59042 64.3552 1.44407C63.5208 1.08665 62.7744 0.915514 61.8895 0.730754C60.6671 0.475323 60.1125 0.725174 60.0042 1.7702C59.8411 3.3562 59.7566 8.00161 59.7566 8.00161C58.8595 8.00161 55.7952 7.82399 54.8979 7.82399C54.0642 7.82399 53.1643 11.4557 54.317 11.5003C55.6431 11.5524 57.9542 11.5974 59.4863 11.6442C59.4863 11.6442 59.4181 19.7917 59.4181 22.3071C59.4181 22.5747 59.4204 22.8324 59.4208 23.0825C58.5776 27.5341 55.6076 29.9388 55.6076 29.9388C56.2454 26.9938 54.9425 24.7822 52.5957 22.9101C51.731 22.2202 50.0241 20.9142 48.1143 19.483C48.1143 19.483 49.2204 18.3788 50.2013 16.1573C50.8964 14.5837 50.9264 12.7829 49.2204 12.3858C46.4016 11.7292 44.0774 13.826 43.3841 16.0646C42.847 17.7987 43.1335 19.0856 44.1857 20.4223C44.2625 20.52 44.3458 20.6198 44.4318 20.7202C43.7955 21.9625 42.9214 23.635 42.181 24.932C40.1261 28.533 38.5738 31.3813 37.4006 31.3813C36.4628 31.3813 36.4754 28.4895 36.4754 25.782C36.4754 23.4479 36.6456 19.9387 36.7815 16.3055C36.8265 15.1039 36.2333 14.4194 35.2389 13.7994C34.6348 13.4227 33.3453 12.6821 32.5985 12.6821C31.4807 12.6821 28.2558 12.8362 25.2087 21.764C24.8247 22.8893 24.0703 24.9397 24.0703 24.9397L24.1352 14.2036C24.1352 13.9519 24.0028 13.7085 23.6998 13.5421C23.1863 13.2597 21.8148 12.6821 20.5954 12.6821C20.0144 12.6821 19.7244 12.9559 19.7244 13.5015L19.618 30.2981C19.618 31.5744 19.6509 33.0632 19.7755 33.7144C19.8996 34.3664 20.1007 34.8968 20.3497 35.2124C20.5984 35.5273 20.886 35.7676 21.3603 35.8667C21.8017 35.9588 24.2188 36.2732 24.3444 35.3376C24.4949 34.2164 24.5007 33.0036 25.7699 28.4806C27.7457 21.4388 30.3219 18.003 31.533 16.7829C31.7447 16.5696 31.9865 16.5569 31.9749 16.9059C31.9232 18.4498 31.7414 22.3075 31.619 25.5848C31.2909 34.3555 32.8662 35.9811 35.1173 35.9811C36.8395 35.9811 39.2672 34.2479 41.8696 29.8604C43.492 27.1262 45.0673 24.4453 46.1991 22.513C46.9879 23.2525 47.873 24.0485 48.7575 24.8988C50.813 26.8749 51.4879 28.7525 51.0401 30.5338C50.6976 31.8955 49.4079 33.2989 47.1124 31.9348C46.4434 31.5369 46.1578 31.2295 45.4851 30.7808C45.1236 30.5398 44.5718 30.4678 44.241 30.7202C43.3815 31.3766 42.89 32.2114 42.6093 33.245C42.3363 34.2507 43.3307 34.7823 44.3615 35.2473C45.2491 35.6475 47.1568 36.0102 48.3734 36.0515C53.1137 36.2121 56.911 33.7332 59.5544 27.3391C60.0276 32.8612 62.0415 35.9861 65.5404 35.9861C67.8796 35.9861 70.225 32.9235 71.2506 29.9106C71.545 31.1387 71.9808 32.2067 72.5437 33.1098C75.2398 37.4366 80.4701 36.5053 83.0973 32.8312C83.9096 31.6959 84.0332 31.288 84.0332 31.288C84.4164 34.7572 87.1746 35.9694 88.7539 35.9694C90.5227 35.9694 92.3489 35.1224 93.6289 32.2037C93.7788 32.5205 93.9426 32.823 94.1213 33.1097C96.8174 37.4365 102.048 36.5052 104.675 32.8311C104.799 32.6588 104.906 32.5024 105 32.3621L105.077 34.6409C105.077 34.6409 103.579 36.0335 102.659 36.8878C98.6094 40.6507 95.5304 43.5055 95.3039 46.83C95.0132 51.069 98.4074 52.6444 100.975 52.8509C103.702 53.0701 106.038 51.5443 107.473 49.4089C108.735 47.5294 109.562 43.4841 109.501 39.4888C109.477 37.8888 109.437 35.8546 109.406 33.674C110.829 32 112.433 29.8842 113.909 27.4076C115.518 24.7086 117.242 21.0841 118.125 18.2634C118.125 18.2634 119.624 18.2764 121.222 18.1704C121.734 18.1366 121.881 18.2423 121.786 18.622C121.672 19.0808 119.766 26.5265 121.506 31.4866C122.696 34.8821 125.38 35.9745 126.971 35.9745C128.834 35.9745 130.616 34.5497 131.571 32.434C131.686 32.6699 131.806 32.8981 131.937 33.1088C134.633 37.4356 139.845 36.4987 142.491 32.8302C143.088 32.0025 143.427 31.287 143.427 31.287C143.995 34.8774 146.751 35.9866 148.33 35.9866C149.975 35.9866 151.536 35.3037 152.803 32.2684C152.855 33.6048 152.939 34.6976 153.07 35.0421C153.15 35.2528 153.618 35.5173 153.958 35.6451C155.462 36.2102 156.997 35.943 157.565 35.8267C157.958 35.7461 158.265 35.4265 158.307 34.6012C158.417 32.4343 158.349 28.7936 158.998 26.0879C160.086 21.5469 161.102 19.7855 161.584 18.9134C161.853 18.4249 162.158 18.3443 162.169 18.8614C162.191 19.9076 162.243 22.9801 162.664 27.1081C162.974 30.1441 163.388 31.9386 163.706 32.5065C164.613 34.1306 165.734 34.2075 166.647 34.2075C167.227 34.2075 168.442 34.045 168.333 33.0115C168.28 32.5077 168.373 29.3944 169.446 24.9207C170.147 21.9992 171.316 19.3595 171.737 18.3945C171.892 18.0386 171.965 18.3191 171.962 18.3738C171.873 20.3857 171.674 26.9665 172.483 30.5656C173.58 35.4414 176.754 35.987 177.859 35.987C180.22 35.987 182.151 34.1681 182.801 29.3823C182.958 28.2306 182.726 27.3413 182.031 27.3413" fill="#868686"/>
</svg>
