<svg width="217" height="57" viewBox="0 0 217 57" fill="none" xmlns="http://www.w3.org/2000/svg">
<path d="M0.724015 33.7786L23.4237 56.6044C11.8317 54.6341 2.68346 45.435 0.724015 33.7786Z" fill="#868686"/>
<path d="M0.374817 27.5818L29.5863 56.9555C31.3235 56.8622 33.0184 56.6082 34.6562 56.208L1.11824 22.4836C0.72026 24.1307 0.467642 25.8348 0.374817 27.5818Z" fill="#868686"/>
<path d="M2.57234 18.0999L39.0159 54.746C40.3433 54.1731 41.6173 53.4992 42.8282 52.7337L4.57345 14.2664C3.81224 15.4841 3.14201 16.7651 2.57234 18.0999Z" fill="#868686"/>
<path d="M7.04231 10.9036C12.1308 4.95812 19.6691 1.19336 28.0818 1.19336C43.4061 1.19336 55.8289 13.6851 55.8289 29.0946C55.8289 37.554 52.0849 45.1342 46.1723 50.251L7.04231 10.9036Z" fill="#868686"/>
<path d="M84.738 45.8025H105.069V40.2354H91.4529V13.866H84.738V45.8025ZM109.391 45.8025H115.998V21.8501H109.391V45.8025ZM112.71 19.012C114.633 19.012 116.293 17.5462 116.293 15.6437C116.293 13.7569 114.633 12.291 112.71 12.291C110.803 12.291 109.144 13.7569 109.144 15.6437C109.144 17.5462 110.803 19.012 112.71 19.012ZM127.896 31.955C127.912 28.8674 129.742 27.0585 132.409 27.0585C135.061 27.0585 136.658 28.8051 136.643 31.7368V45.8025H143.249V30.5516C143.249 24.9689 139.993 21.5383 135.03 21.5383C131.494 21.5383 128.935 23.2848 127.865 26.0761H127.586V21.8501H121.29V45.8025H127.896V31.955ZM159.373 46.2705C165.282 46.2705 169.236 43.3854 170.167 38.9412L164.072 38.5357C163.405 40.3603 161.684 41.3115 159.497 41.3115C156.194 41.3115 154.101 39.1127 154.101 35.5417V35.5261H170.322V33.7016C170.322 25.5615 165.421 21.5383 159.125 21.5383C152.116 21.5383 147.572 26.5439 147.572 33.9355C147.572 41.5298 152.054 46.2705 159.373 46.2705ZM154.101 31.4093C154.225 28.6803 156.303 26.4972 159.234 26.4972C162.087 26.4972 164.072 28.5556 164.103 31.4093H154.101ZM181.519 46.2548C185.039 46.2548 187.319 44.7111 188.482 42.481H188.668V45.8025H194.933V29.6471C194.933 23.9397 190.079 21.5383 184.93 21.5383C179.068 21.5383 175.362 24.2828 174.447 28.6491L180.557 29.1481C181.007 27.5576 182.418 26.388 184.791 26.388C187.07 26.388 188.311 27.5108 188.327 29.5224C188.342 31.0974 186.698 31.3313 182.558 31.7368C177.843 32.1734 173.61 33.764 173.61 39.1127C173.61 43.8533 176.975 46.2548 181.519 46.2548ZM183.411 41.6701C181.379 41.6701 179.921 40.7189 179.921 38.8943C179.921 37.0232 181.457 36.1029 183.783 35.7756C185.225 35.5729 187.582 35.2298 188.373 34.6996V37.2415C188.373 39.7521 186.31 41.6701 183.411 41.6701ZM200.058 45.8025H206.665V32.2513C206.68 29.3197 208.789 27.308 211.456 27.308C212.356 27.308 213.085 27.5576 213.705 27.8694L215.69 22.3803C214.822 21.8501 213.705 21.5071 212.433 21.5071C209.751 21.5071 207.579 23.0665 206.711 26.0293H206.463V21.8501H200.058V45.8025Z" fill="#868686"/>
</svg>
