<svg width="245" height="68" viewBox="0 0 245 68" fill="none" xmlns="http://www.w3.org/2000/svg">
<path fill-rule="evenodd" clip-rule="evenodd" d="M112.316 41.5318C110.614 41.925 109.733 41.4005 109.733 40.2714C109.733 38.7243 111.33 38.105 113.613 38.105C114.617 38.105 115.564 38.1918 115.564 38.1918C115.564 38.8541 114.127 41.1139 112.316 41.5318ZM114.049 26.0426C108.598 26.0426 104.685 28.0493 104.685 28.0493V33.9481C104.685 33.9481 109.006 31.4615 112.511 31.4615C115.307 31.4615 115.651 32.9721 115.524 34.2252C115.524 34.2252 114.717 34.0115 112.256 34.0115C106.454 34.0115 103.527 36.6513 103.527 40.8834C103.527 44.8981 106.817 46.5757 109.59 46.5757C113.635 46.5757 115.414 43.8536 115.96 42.5625C116.339 41.6668 116.409 41.0628 116.749 41.0628C117.139 41.0628 117.007 41.4961 116.988 42.3874C116.956 43.9491 117.03 45.1293 117.277 46.1242H122.641V36.4638C122.641 30.4323 120.51 26.0426 114.049 26.0426Z" fill="#868686"/>
<path fill-rule="evenodd" clip-rule="evenodd" d="M149.356 36.319C149.356 34.5545 150.994 32.9476 154.002 32.9476C157.278 32.9476 159.915 34.5275 160.506 34.8864V28.0576C160.506 28.0576 158.423 26.0502 153.305 26.0502C147.91 26.0502 143.417 29.2108 143.417 36.0141C143.417 42.8166 147.495 46.5892 153.291 46.5892C157.819 46.5892 160.517 44.0982 160.517 44.0982V37.613C159.663 38.0907 157.285 39.7443 154.035 39.7443C150.594 39.7443 149.356 38.1586 149.356 36.319ZM77.6575 26.4974C77.6583 26.5017 77.9999 27.9693 77.5497 29.8884C77.3202 30.8644 76.8984 31.6945 77.4076 31.6945C77.7588 31.6945 77.7595 31.4027 78.2163 30.3567C78.8844 28.8279 80.2927 26.0451 83.5837 26.0451C86.7121 26.0451 88.186 27.9482 88.6742 29.7301C89.0457 31.0839 88.7208 31.6945 89.174 31.6945C89.496 31.6945 89.6075 30.992 90.0038 30.1036C90.7156 28.512 92.2638 26.0451 95.3952 26.0451C100.12 26.0451 101.924 29.461 101.924 34.5851V46.1311H94.9049V35.4867C94.9049 33.712 94.6185 31.9906 93.0026 31.9906C91.5054 31.9906 90.8074 34.6472 90.8074 36.362V46.1355H83.6594V35.4874C83.6594 33.2168 83.3396 31.9913 81.7455 31.9913C80.3656 31.9913 79.5605 34.4356 79.5605 36.3627V46.1318H72.441V26.4974H77.6575ZM124.978 26.5244C124.981 26.5258 126.192 27.2253 128.544 27.2253C130.9 27.2253 132.097 26.5244 132.097 26.5244V46.1362H124.978V26.5244ZM183.751 26.5244C183.753 26.5258 184.965 27.2253 187.318 27.2253C189.673 27.2253 190.87 26.5244 190.87 26.5244V46.1362H183.751V26.5244ZM141.52 20.5533V46.1362H134.4V20.5533H141.52ZM168.967 20.5533C168.967 20.5555 169.262 21.2908 169.262 23.4776C169.262 26.7067 168.56 29.3348 168.228 30.3363C168.053 30.8666 167.74 31.685 168.189 31.6996C168.449 31.7076 168.604 31.3166 168.922 30.6383C169.238 29.9592 170.806 26.0495 174.927 26.0495C180.603 26.0495 181.438 30.7032 181.438 35.7427V46.1355H174.319V35.316C174.319 33.0971 173.854 31.995 172.368 31.995C170.574 31.995 169.941 34.7755 169.941 36.3671V46.1355H162.821V20.5526L168.967 20.5533ZM198.492 26.4974C198.492 26.5017 198.834 27.9693 198.384 29.8884C198.154 30.8644 197.732 31.6945 198.242 31.6945C198.593 31.6945 198.594 31.4027 199.05 30.3567C199.718 28.8279 201.127 26.0451 204.418 26.0451C207.689 26.0451 208.987 27.9569 209.508 29.7301C209.858 30.9184 209.555 31.6945 210.008 31.6945C210.33 31.6945 210.442 30.992 210.838 30.1036C211.548 28.512 213.098 26.0451 216.229 26.0451C220.954 26.0451 222.758 29.461 222.758 34.5851V46.1311H215.739V35.4867C215.739 33.712 215.453 31.9906 213.837 31.9906C212.34 31.9906 211.641 34.6472 211.641 36.362V46.1355H204.493V35.4874C204.493 33.2168 204.174 31.9913 202.58 31.9913C201.2 31.9913 200.395 34.4356 200.395 36.3627V46.1318H193.275V26.4974H198.492ZM128.516 20.3549C126.11 20.3549 124.158 21.63 124.158 23.2026C124.158 24.7752 126.109 26.0502 128.516 26.0502C130.923 26.0502 132.874 24.7752 132.874 23.2026C132.874 21.63 130.924 20.3549 128.516 20.3549ZM187.289 20.3549C184.883 20.3549 182.931 21.63 182.931 23.2026C182.931 24.7752 184.882 26.0502 187.289 26.0502C189.696 26.0502 191.648 24.7752 191.648 23.2026C191.648 21.63 189.696 20.3549 187.289 20.3549Z" fill="#868686"/>
<path fill-rule="evenodd" clip-rule="evenodd" d="M234.885 41.9053C233.253 41.9053 232.053 39.833 232.053 36.9453C232.053 34.1406 233.285 31.9867 234.829 31.9867C236.809 31.9867 237.654 33.8051 237.654 36.9453C237.654 40.2123 236.875 41.9053 234.885 41.9053ZM236.839 26.0383C233.181 26.0383 231.503 28.7845 230.774 30.3491C230.293 31.3827 230.318 31.6869 229.965 31.6869C229.458 31.6869 229.879 30.8568 230.108 29.8808C230.56 27.9588 230.217 26.4905 230.217 26.4905H225.003V51.5409H232.12V43.599C232.961 45.0294 234.521 46.5575 236.926 46.5575C242.073 46.5575 244.664 42.1978 244.664 36.3077C244.664 29.6321 241.563 26.0383 236.84 26.0383" fill="#868686"/>
<path fill-rule="evenodd" clip-rule="evenodd" d="M47.2737 31.9657C47.7523 31.9088 48.2106 31.9058 48.6325 31.9657C48.8765 31.4055 48.9181 30.4404 48.6988 29.3893C48.3731 27.8269 47.9316 26.8816 47.0194 27.0289C46.1073 27.1763 46.0737 28.3084 46.4001 29.87C46.5837 30.749 46.9101 31.5003 47.2737 31.9657Z" fill="#868686"/>
<path fill-rule="evenodd" clip-rule="evenodd" d="M39.4481 33.2021C40.1001 33.4887 40.5016 33.6791 40.6582 33.5128C40.7595 33.4092 40.7289 33.2116 40.573 32.957C40.251 32.4311 39.5887 31.8972 38.8856 31.5974C37.4489 30.9781 35.7346 31.1838 34.4122 32.1349C33.9758 32.4552 33.562 32.8987 33.621 33.1678C33.6399 33.2546 33.7055 33.3203 33.8585 33.3421C34.2184 33.383 35.4759 32.7469 36.9251 32.6579C37.9472 32.5952 38.7953 32.9154 39.4481 33.2021Z" fill="#868686"/>
<path fill-rule="evenodd" clip-rule="evenodd" d="M38.1384 33.952C37.2882 34.0862 36.8197 34.367 36.5188 34.6274C36.2624 34.8521 36.1035 35.1008 36.105 35.2752C36.1057 35.3583 36.1414 35.4065 36.1698 35.4305C36.2085 35.4648 36.2544 35.4838 36.3097 35.4838C36.5013 35.4838 36.9319 35.3109 36.9319 35.3109C38.1144 34.8871 38.8947 34.9389 39.6677 35.0264C40.0946 35.0746 40.2972 35.1008 40.3904 34.9542C40.4181 34.9119 40.4516 34.8207 40.3664 34.6821C40.1675 34.359 39.3085 33.8127 38.1384 33.952Z" fill="#868686"/>
<path fill-rule="evenodd" clip-rule="evenodd" d="M44.633 36.7036C45.21 36.9873 45.8453 36.8757 46.0522 36.4548C46.2591 36.034 45.959 35.4621 45.3819 35.1783C44.8049 34.8946 44.1696 35.0062 43.9627 35.4271C43.7558 35.8487 44.056 36.4198 44.633 36.7036Z" fill="#868686"/>
<path fill-rule="evenodd" clip-rule="evenodd" d="M48.3433 33.4586C47.8749 33.4506 47.4858 33.9655 47.4749 34.6096C47.464 35.2537 47.8355 35.781 48.304 35.7891C48.7725 35.7971 49.1615 35.2821 49.1725 34.638C49.1834 33.9947 48.8118 33.4666 48.3433 33.4586Z" fill="#868686"/>
<path fill-rule="evenodd" clip-rule="evenodd" d="M16.8548 45.0632C16.7382 44.9166 16.5466 44.9611 16.3608 45.0049C16.2312 45.0355 16.0847 45.0691 15.9237 45.0669C15.5791 45.0603 15.2869 44.913 15.123 44.6606C14.9095 44.3324 14.9219 43.8429 15.1572 43.2827L15.2673 43.0318C15.6432 42.1871 16.2719 40.7743 15.566 39.4277C15.0341 38.4139 14.1671 37.7829 13.1245 37.6502C12.1235 37.5232 11.0933 37.8945 10.4361 38.6203C9.39938 39.7655 9.23691 41.3242 9.43727 41.8749C9.51085 42.0763 9.62597 42.1324 9.70902 42.1441C9.88534 42.1674 10.1462 42.0391 10.3094 41.5992L10.356 41.4563C10.4288 41.2236 10.5644 40.7903 10.7866 40.4431C11.0547 40.0244 11.4714 39.7363 11.961 39.6305C12.4594 39.5233 12.9694 39.6189 13.3963 39.8989C14.1227 40.3745 14.4025 41.2659 14.0921 42.1157C13.9318 42.5555 13.671 43.3965 13.7285 44.0873C13.8451 45.4856 14.7041 46.0472 15.4756 46.107C16.226 46.1355 16.7506 45.7131 16.8832 45.4053C16.9612 45.223 16.8956 45.1121 16.8526 45.0647" fill="#868686"/>
<path fill-rule="evenodd" clip-rule="evenodd" d="M23.9923 19.3806C26.4403 16.549 29.4529 14.0872 32.1522 12.705C32.2455 12.6569 32.3446 12.7582 32.2943 12.8502C32.0801 13.2389 31.667 14.0712 31.5366 14.7021C31.5162 14.8006 31.6233 14.8743 31.7063 14.8181C33.3857 13.6722 36.3065 12.4439 38.8689 12.2863C38.9789 12.2797 39.0321 12.4205 38.9446 12.4884C38.5549 12.7874 38.1287 13.2017 37.8176 13.6204C37.7644 13.6919 37.8146 13.794 37.9035 13.7947C39.7024 13.8079 42.2385 14.4381 43.8916 15.3666C44.0031 15.4294 43.9237 15.646 43.7984 15.6176C41.2972 15.0435 37.2034 14.608 32.95 15.6467C29.1534 16.5738 26.2552 18.0057 24.1416 19.5447C24.0345 19.6228 23.9056 19.4806 23.9923 19.3806ZM36.1827 46.8155L36.1834 46.817L36.1848 46.8199L36.1827 46.8155ZM46.2762 48.0081C46.3491 47.9775 46.3986 47.895 46.3906 47.8126C46.3804 47.7112 46.29 47.6376 46.1888 47.6478C46.1888 47.6478 40.9657 48.4217 36.0311 46.6135C36.5688 44.8643 37.9975 45.496 40.1577 45.6703C44.0512 45.903 47.541 45.3333 50.1201 44.5922C52.3546 43.9504 55.29 42.6841 57.5697 40.8824C58.3383 42.5732 58.6101 44.4347 58.6101 44.4347C58.6101 44.4347 59.2053 44.3282 59.7029 44.6346C60.1729 44.9241 60.5175 45.5259 60.2822 47.0825C59.8028 49.9899 58.5686 52.3503 56.4936 54.5218C55.2303 55.8829 53.6974 57.066 51.943 57.9267C51.0112 58.4169 50.0196 58.8407 48.9712 59.1828C41.1493 61.7409 33.1423 58.929 30.5618 52.8908C30.3556 52.4371 30.1814 51.9616 30.0445 51.4648C28.9451 47.4858 29.8784 42.7118 32.797 39.7066C32.977 39.5155 33.1606 39.2886 33.1606 39.0049C33.1606 38.7678 33.0098 38.5177 32.8793 38.3397C31.8579 36.8568 28.3207 34.3301 29.031 29.44C29.541 25.9272 32.6098 23.453 35.4708 23.5996L36.1958 23.6412C37.4358 23.7148 38.517 23.8738 39.5377 23.9169C41.2462 23.9913 42.782 23.7425 44.602 22.2246C45.2154 21.7126 45.7079 21.2684 46.5407 21.1276C46.6281 21.1123 46.8459 21.0342 47.2809 21.0546C47.7253 21.0787 48.1479 21.2005 48.5275 21.4536C49.9861 22.4252 50.193 24.7791 50.2687 26.5005C50.3117 27.483 50.4305 29.8609 50.4713 30.5436C50.5638 32.1046 50.974 32.3242 51.8031 32.5977C52.2694 32.7516 52.7022 32.8661 53.3404 33.0456C55.2711 33.5882 56.4157 34.1389 57.1377 34.8465C57.5682 35.2885 57.7686 35.7583 57.8305 36.2061C58.0578 37.8692 56.541 39.9232 52.5244 41.7898C48.134 43.83 42.8075 44.3464 39.1275 43.9358L37.838 43.7899C34.8946 43.3931 33.2152 47.2014 34.982 49.8112C36.1207 51.4933 39.2222 52.5874 42.3252 52.5881C49.4396 52.5888 54.9083 49.5472 56.9424 46.9206L57.1049 46.6886C57.2054 46.5376 57.1224 46.4545 56.9978 46.5398C55.3359 47.6784 47.9541 52.1986 40.0579 50.8382C40.0579 50.8382 39.0984 50.68 38.2226 50.3393C37.5269 50.068 36.0697 49.3969 35.8927 47.9009C42.2647 49.874 46.2762 48.0081 46.2762 48.0081ZM11.2766 32.8472C9.06033 33.2782 7.10704 34.5358 5.91292 36.2732C5.19893 35.6773 3.86929 34.5234 3.63397 34.0733C1.72731 30.4481 5.71475 23.4004 8.50079 19.42C15.3857 9.58381 26.1685 2.13864 31.1599 3.48952C31.9715 3.71929 34.6592 6.83901 34.6592 6.83901C34.6592 6.83901 29.6693 9.6108 25.0422 13.4745C18.8071 18.2807 14.0984 25.2663 11.2766 32.8472ZM15.0003 49.4815C14.6652 49.5392 14.3228 49.5618 13.9774 49.553C10.6428 49.4633 7.04147 46.4581 6.68375 42.8942C6.28813 38.9546 8.29897 35.9231 11.8587 35.2039C12.2842 35.1178 12.7986 35.0682 13.353 35.0974C15.3478 35.2068 18.2869 36.7401 18.9579 41.0903C19.5524 44.9431 18.6082 48.8659 15.0003 49.4815ZM60.1685 42.5054C60.1401 42.404 59.9536 41.7234 59.6978 40.9029C59.4421 40.0815 59.1776 39.5046 59.1776 39.5046C60.2035 37.9677 60.2217 36.5927 60.0847 35.8144C59.939 34.8494 59.5376 34.0273 58.7289 33.1768C57.9201 32.3271 56.2656 31.4562 53.9407 30.8026L52.7211 30.4634C52.7153 30.4131 52.657 27.5844 52.6045 26.3699C52.5659 25.4917 52.4909 24.1211 52.0661 22.7717C51.5598 20.9445 50.6782 19.3456 49.5773 18.323C52.6154 15.1704 54.5119 11.6969 54.5068 8.71799C54.4981 2.98841 47.4696 1.25459 38.8077 4.84551L36.9724 5.62526C36.9644 5.61724 33.6545 2.36622 33.605 2.32246C23.7293 -6.30146 -7.14735 28.0592 2.72399 36.4045L4.88127 38.2346C4.32174 39.6862 4.1017 41.3492 4.28166 43.1371C4.51189 45.434 5.69508 47.6354 7.6134 49.3364C9.43408 50.9513 11.8281 51.9739 14.1508 51.9718C17.9925 60.8349 26.7703 66.272 37.062 66.5784C48.102 66.9066 57.3693 61.7204 61.2526 52.4043C61.5069 51.7507 62.5844 48.8046 62.5844 46.2035C62.5844 43.59 61.1083 42.5054 60.1685 42.5054Z" fill="#868686"/>
</svg>
