<svg width="191" height="51" viewBox="0 0 191 51" fill="none" xmlns="http://www.w3.org/2000/svg">
<path d="M67.0871 42.1915V20.958H67.4674L83.0055 42.1915H87.8951V11.0098H82.4622V32.1898H82.0819L66.5438 11.0098H61.6542V42.1915H67.0871ZM103.27 42.6729C110.442 42.6729 114.842 38.0732 114.842 30.3714C114.842 22.723 110.442 18.0698 103.27 18.0698C96.1531 18.0698 91.6981 22.723 91.6981 30.3714C91.7525 38.0732 96.0988 42.6729 103.27 42.6729ZM103.27 38.1802C99.4672 38.1802 97.294 35.3455 97.294 30.3714C97.294 25.4507 99.4672 22.5625 103.27 22.5625C107.073 22.5625 109.246 25.4507 109.246 30.3714C109.246 35.3455 107.073 38.1802 103.27 38.1802ZM119.786 12.7748V18.7116H115.983V22.9904H119.786V35.8803C119.786 40.48 121.959 42.2985 127.501 42.2985C128.533 42.2985 129.565 42.1915 130.38 42.0311V37.8593C129.728 37.9127 129.294 37.9662 128.533 37.9662C126.251 37.9662 125.219 36.95 125.219 34.5967V22.9904H130.38V18.7116H125.219V12.7748H119.786ZM133.64 42.1915H139.073V18.5512H133.64V42.1915ZM136.357 14.6468C138.149 14.6468 139.616 13.2027 139.616 11.4377C139.616 9.61916 138.149 8.17507 136.357 8.17507C134.564 8.17507 133.097 9.61916 133.097 11.4377C133.097 13.2027 134.564 14.6468 136.357 14.6468ZM153.959 42.6729C161.131 42.6729 165.531 38.0732 165.531 30.3714C165.531 22.723 161.131 18.0698 153.959 18.0698C146.842 18.0698 142.387 22.723 142.387 30.3714C142.387 38.0732 146.733 42.6729 153.959 42.6729ZM153.959 38.1802C150.156 38.1802 147.983 35.3455 147.983 30.3714C147.983 25.4507 150.156 22.5625 153.959 22.5625C157.708 22.5625 159.935 25.4507 159.935 30.3714C159.881 35.3455 157.708 38.1802 153.959 38.1802ZM168.737 42.1915H174.169V28.4459C174.169 24.9694 176.234 22.7765 179.439 22.7765C182.753 22.7765 184.275 24.595 184.275 28.1785V42.1915H189.708V26.8948C189.708 21.2254 186.774 18.0698 181.45 18.0698C177.864 18.0698 175.473 19.6744 174.332 22.3486H173.952V18.5512H168.682C168.737 18.5512 168.737 42.1915 168.737 42.1915Z" fill="#868686"/>
<path fill-rule="evenodd" clip-rule="evenodd" d="M9.56207 9.014C11.1433 10.2829 11.7153 10.1827 14.6759 9.98237L42.5665 8.31277C43.1721 8.31277 42.6674 7.71171 42.4655 7.64492L37.8227 4.3391C36.948 3.67126 35.7368 2.86985 33.4827 3.0702L6.5005 5.04034C5.52483 5.14051 5.32297 5.6414 5.72669 6.00871L9.56207 9.014ZM11.2442 15.4587V44.5766C11.2442 46.1461 12.0181 46.7137 13.8012 46.6135L44.4505 44.8438C46.2336 44.7436 46.4355 43.675 46.4355 42.4061V13.4885C46.4355 12.2196 45.9308 11.5184 44.8542 11.6186L12.8255 13.4885C11.648 13.5887 11.2442 14.1898 11.2442 15.4587ZM41.4899 17.0281C41.6917 17.8963 41.4899 18.7979 40.6151 18.8981L39.1348 19.1986V40.7031C37.8564 41.371 36.6788 41.7717 35.6695 41.7717C34.0883 41.7717 33.6846 41.2708 32.507 39.8016L22.8513 24.7417V39.3007L25.9129 39.9685C25.9129 39.9685 25.9129 41.7383 23.4569 41.7383L16.6609 42.139C16.459 41.7383 16.6609 40.7699 17.3337 40.5696L19.1169 40.0687V20.8348L16.6609 20.6345C16.459 19.7663 16.9637 18.4974 18.3431 18.3972L25.6437 17.8963L35.7032 33.1231V19.6661L33.1463 19.3656C32.9444 18.297 33.7518 17.4956 34.7275 17.3954L41.4899 17.0281ZM4.24637 2.36897L32.3388 0.332045C35.7705 0.0315162 36.6788 0.23187 38.832 1.8013L47.7812 8.04563C49.2616 9.11418 49.7662 9.41471 49.7662 10.5834V44.8772C49.7662 47.0143 48.9924 48.2831 46.2336 48.4835L13.6329 50.4536C11.547 50.5538 10.5714 50.2533 9.49478 48.8842L2.86698 40.3692C1.68945 38.7998 1.1848 37.6311 1.1848 36.262V5.77496C1.1848 4.00518 1.99225 2.56932 4.24637 2.36897Z" fill="#868686"/>
</svg>
