<svg width="177" height="45" viewBox="0 0 177 45" fill="none" xmlns="http://www.w3.org/2000/svg">
<g clip-path="url(#clip0_1_958)">
<path d="M56.1394 34.9546L58.2784 29.9855C60.6204 31.7094 63.6751 32.6217 66.7306 32.6217C68.971 32.6217 70.3965 31.7602 70.3965 30.442C70.3454 26.791 56.9033 29.6305 56.801 20.4515C56.7499 15.7864 60.9256 12.1862 66.8328 12.1862C70.3454 12.1862 73.8595 13.0485 76.3541 15.0265L74.3554 20.1016C72.0601 18.6347 69.2252 17.612 66.5268 17.612C64.6938 17.612 63.4714 18.4735 63.4714 19.5899C63.5225 23.1901 77.0676 21.2122 77.2202 29.9855C77.2202 34.7521 73.146 38.099 67.3411 38.099C63.0646 38.099 59.1437 37.085 56.1387 34.9546H56.1394ZM141.31 28.1861C140.77 29.1396 139.985 29.9332 139.034 30.4855C138.084 31.0378 137.003 31.3289 135.902 31.329C132.471 31.329 129.69 28.5592 129.69 25.1426C129.69 21.7261 132.471 18.9562 135.902 18.9562C137.003 18.9563 138.084 19.2474 139.034 19.7997C139.985 20.352 140.77 21.1456 141.31 22.0991L147.256 18.8183C145.029 14.8617 140.78 12.1862 135.902 12.1862C128.717 12.1862 122.892 17.9865 122.892 25.1426C122.892 32.298 128.717 38.099 135.902 38.099C140.78 38.099 145.029 35.4235 147.256 31.4669L141.31 28.1861ZM81.079 37.5916H88.5132V1.40088H81.0797L81.079 37.5916ZM151.011 1.40088V37.5916H158.445V26.7489L167.254 37.5916H176.757L165.554 24.7107L175.942 12.6914H166.847L158.445 22.6842V1.40088H151.011ZM111.417 12.6929V15.6347C110.195 13.606 107.191 12.1862 104.034 12.1862C97.516 12.1862 92.3734 17.9168 92.3734 25.1172C92.3734 32.3176 97.516 38.099 104.034 38.099C107.191 38.099 110.195 36.6792 111.417 34.6505V37.5916H118.851V12.6929H111.417ZM111.417 28.2362C110.348 30.0109 108.107 31.3283 105.613 31.3283C102.181 31.3283 99.4001 28.5592 99.4001 25.1426C99.4001 21.7261 102.181 18.9562 105.613 18.9562C108.107 18.9562 110.348 20.3252 111.417 22.1499V28.2362Z" fill="#868686"/>
<path d="M16.8794 0.60083C14.4702 0.60083 12.5175 2.5461 12.5175 4.94502C12.5169 5.51494 12.6293 6.07939 12.8482 6.60614C13.0671 7.13289 13.3882 7.61164 13.7932 8.01503C14.1983 8.41843 14.6793 8.73858 15.2088 8.9572C15.7384 9.17583 16.306 9.28865 16.8794 9.28922H21.2421V4.94502C21.243 3.79396 20.784 2.68965 19.9658 1.87497C19.1477 1.0603 18.0375 0.601985 16.8794 0.60083ZM16.8794 12.1854H5.24688C2.8377 12.1854 0.884949 14.1306 0.884949 16.5303C0.884949 18.9292 2.8377 20.8745 5.24688 20.8745H16.8801C19.2886 20.8745 21.2421 18.9292 21.2421 16.5303C21.2421 14.1306 19.2886 12.1854 16.8794 12.1854Z" fill="#868686"/>
<path d="M44.5073 16.5303C44.5073 14.1306 42.5539 12.1854 40.1447 12.1854C37.7355 12.1854 35.7827 14.1306 35.7827 16.5303V20.8745H40.1447C41.3028 20.8733 42.413 20.415 43.2311 19.6003C44.0492 18.7857 44.5083 17.6813 44.5073 16.5303ZM32.8748 16.5303V4.94503C32.8758 3.79396 32.4167 2.68965 31.5986 1.87497C30.7804 1.0603 29.6702 0.601985 28.5121 0.60083C26.103 0.60083 24.1502 2.5461 24.1502 4.94503V16.5295C24.1502 18.9299 26.103 20.8752 28.5121 20.8752C29.6702 20.874 30.7804 20.4157 31.5986 19.601C32.4167 18.7864 32.8758 17.6821 32.8748 16.531" fill="#868686"/>
<path d="M28.5121 44.0444C29.6702 44.0432 30.7804 43.5849 31.5986 42.7702C32.4167 41.9556 32.8758 40.8513 32.8748 39.7002C32.8758 38.5491 32.4167 37.4448 31.5986 36.6301C30.7804 35.8155 29.6702 35.3572 28.5121 35.356H24.1502V39.7002C24.1502 42.0991 26.103 44.0444 28.5121 44.0444ZM28.5121 32.4599H40.1454C42.5539 32.4599 44.5073 30.5146 44.5073 28.1149C44.5083 26.9639 44.0492 25.8596 43.2311 25.0449C42.413 24.2302 41.3028 23.7719 40.1447 23.7708H28.5121C26.103 23.7708 24.1502 25.716 24.1502 28.1149C24.1496 28.6849 24.262 29.2493 24.4809 29.7761C24.6998 30.3028 25.0209 30.7816 25.426 31.185C25.831 31.5883 26.312 31.9085 26.8416 32.1271C27.3711 32.3458 27.9387 32.4586 28.5121 32.4591" fill="#868686"/>
<path d="M0.884524 28.1149C0.883948 28.6849 0.996316 29.2493 1.21521 29.7761C1.43411 30.3028 1.75524 30.7816 2.16029 31.185C2.56533 31.5883 3.04635 31.9085 3.57587 32.1271C4.1054 32.3458 4.67306 32.4586 5.24645 32.4591C6.40454 32.458 7.51474 31.9997 8.33288 31.185C9.15101 30.3703 9.61008 29.266 9.60911 28.1149V23.7708H5.24645C2.83728 23.7708 0.884524 25.716 0.884524 28.1149ZM12.5171 28.1149V39.6995C12.5171 42.0991 14.4698 44.0444 16.879 44.0444C18.0371 44.0432 19.1473 43.5849 19.9654 42.7702C20.7836 41.9556 21.2426 40.8513 21.2417 39.7002V28.1149C21.2422 27.545 21.1298 26.9805 20.9109 26.4537C20.692 25.9269 20.3707 25.4481 19.9656 25.0447C19.5605 24.6413 19.0794 24.3211 18.5498 24.1026C18.0202 23.884 17.4524 23.7712 16.879 23.7708C14.4698 23.7708 12.5171 25.716 12.5171 28.1149Z" fill="#868686"/>
</g>
<defs>
<clipPath id="clip0_1_958">
<rect width="177" height="45" fill="white"/>
</clipPath>
</defs>
</svg>
