<svg width="206" height="63" viewBox="0 0 206 63" fill="none" xmlns="http://www.w3.org/2000/svg">
<path d="M30.88 0.909912C13.9264 0.909912 0.182129 14.7729 0.182129 31.8735C0.182129 48.9748 13.9264 62.8367 30.88 62.8367C47.8354 62.8367 61.5782 48.9748 61.5782 31.8735C61.5782 14.774 47.8354 0.911391 30.8796 0.911391L30.88 0.909912ZM44.9578 45.5683C44.4079 46.4778 43.2276 46.7663 42.3258 46.2079C35.1183 41.7672 26.0449 40.7615 15.3593 43.2241C14.3296 43.4607 13.3032 42.8099 13.0686 41.7709C12.8329 40.7319 13.4755 39.6966 14.5078 39.46C26.2014 36.7653 36.2319 37.9255 44.3236 42.9135C45.2254 43.4718 45.5113 44.6587 44.9578 45.5683ZM48.7151 37.1372C48.0223 38.2731 46.5487 38.6318 45.4233 37.9329C37.1718 32.8171 24.5936 31.3355 14.8336 34.3238C13.5679 34.7095 12.231 33.9899 11.8468 32.7154C11.4656 31.4387 12.1793 30.0928 13.4429 29.7045C24.5914 26.2925 38.4511 27.9453 47.927 33.8187C49.0524 34.5176 49.408 36.0039 48.7151 37.1376V37.1372ZM49.0377 28.3579C39.144 22.4304 22.8205 21.8854 13.3743 24.7772C11.8574 25.2413 10.2533 24.3775 9.79364 22.8475C9.33396 21.3168 10.1895 19.6998 11.7075 19.2347C22.5511 15.9143 40.5773 16.5559 51.9681 23.3766C53.3354 24.1934 53.7826 25.9708 52.9725 27.3452C52.1661 28.7214 50.3992 29.175 49.0392 28.3579H49.0377ZM83.7008 29.4938C78.4001 28.2189 77.4581 27.3241 77.4581 25.4439C77.4581 23.6676 79.115 22.4722 81.582 22.4722C83.972 22.4722 86.3401 23.38 88.8255 25.2487C88.8988 25.3052 88.9941 25.3278 89.0857 25.313C89.181 25.299 89.2617 25.2476 89.3167 25.1703L91.9047 21.4905C92.011 21.3389 91.9816 21.13 91.8387 21.0143C88.8804 18.6209 85.552 17.4573 81.659 17.4573C75.9368 17.4573 71.9375 20.9215 71.9375 25.878C71.9375 31.1931 75.3869 33.0752 81.3474 34.5279C86.4171 35.7063 87.2748 36.6935 87.2748 38.458C87.2748 40.414 85.5446 41.6304 82.7587 41.6304C79.6648 41.6304 77.1391 40.5766 74.3165 38.1141C74.2469 38.0513 74.1516 38.0254 74.0636 38.0291C73.9683 38.0365 73.884 38.0808 73.8253 38.1511L70.9221 41.6341C70.8011 41.782 70.8158 41.9965 70.9551 42.1222C74.2396 45.0802 78.2792 46.6405 82.6414 46.6405C88.8071 46.6405 92.7918 43.2425 92.7918 37.981C92.8028 33.5414 90.1671 31.0826 83.7118 29.4986L83.7008 29.4938ZM106.743 24.2211C104.071 24.2211 101.879 25.2831 100.068 27.459V25.0098C100.068 24.8164 99.9143 24.6589 99.7236 24.6589H94.9765C94.7859 24.6589 94.632 24.8164 94.632 25.0098V52.2238C94.632 52.416 94.7859 52.575 94.9765 52.575H99.7236C99.9143 52.575 100.068 52.416 100.068 52.2238V43.6345C101.879 45.6792 104.071 46.6812 106.743 46.6812C111.711 46.6812 116.74 42.8247 116.74 35.4523C116.747 28.0784 111.718 24.2208 106.747 24.2208L106.743 24.2211ZM111.219 35.4523C111.219 39.2049 108.928 41.8264 105.644 41.8264C102.4 41.8264 99.9509 39.0866 99.9509 35.4523C99.9509 31.8176 102.4 29.0785 105.644 29.0785C108.873 29.0782 111.219 31.7581 111.219 35.4519V35.4523ZM129.625 24.2211C123.228 24.2211 118.217 29.1891 118.217 35.5325C118.217 41.8079 123.195 46.7219 129.548 46.7219C135.967 46.7219 140.992 41.7709 140.992 35.4523C140.992 29.1551 136 24.2219 129.625 24.2219V24.2211ZM129.625 41.8634C126.223 41.8634 123.657 39.105 123.657 35.4504C123.657 31.7792 126.135 29.1151 129.548 29.1151C132.972 29.1151 135.552 31.8724 135.552 35.5307C135.552 39.2012 133.06 41.8634 129.625 41.8634ZM154.651 24.6589H149.427V19.2732C149.427 19.0801 149.273 18.9226 149.083 18.9226H144.335C144.145 18.9226 143.987 19.0801 143.987 19.2732V24.6589H141.707C141.516 24.6589 141.363 24.8164 141.363 25.0098V29.124C141.363 29.317 141.516 29.4749 141.707 29.4749H143.987V40.1219C143.987 44.422 146.11 46.6036 150.3 46.6036C152 46.6036 153.412 46.2486 154.742 45.4869C154.852 45.4278 154.918 45.3094 154.918 45.1837V41.2644C154.918 41.1461 154.856 41.0314 154.753 40.9686C154.651 40.902 154.522 40.8983 154.416 40.9538C153.503 41.416 152.62 41.6304 151.63 41.6304C150.109 41.6304 149.427 40.9316 149.427 39.3713V29.4768H154.651C154.841 29.4768 154.995 29.3192 154.995 29.1259V25.012C155.003 24.8187 154.849 24.6611 154.654 24.6611L154.651 24.6589ZM172.847 24.68V24.0185C172.847 22.0725 173.588 21.2047 175.245 21.2047C176.235 21.2047 177.03 21.4029 177.921 21.7024C178.031 21.7372 178.144 21.7198 178.232 21.6536C178.324 21.5874 178.375 21.4813 178.375 21.3689V17.3349C178.375 17.1807 178.28 17.0443 178.13 16.9988C177.191 16.7167 175.989 16.4272 174.185 16.4272C169.805 16.4272 167.484 18.9171 167.484 23.6251V24.6382H165.204C165.014 24.6382 164.856 24.7957 164.856 24.9887V29.124C164.856 29.317 165.014 29.4749 165.204 29.4749H167.484V45.8936C167.484 46.0896 167.642 46.2449 167.833 46.2449H172.576C172.77 46.2449 172.924 46.0896 172.924 45.8936V29.476H177.356L184.145 45.8936C183.375 47.6167 182.617 47.9605 181.583 47.9605C180.747 47.9605 179.864 47.7091 178.965 47.2099C178.881 47.1656 178.779 47.1582 178.691 47.1841C178.599 47.2173 178.522 47.2839 178.485 47.3726L176.876 50.9333C176.799 51.1034 176.865 51.2994 177.026 51.3881C178.705 52.3051 180.219 52.697 182.092 52.697C185.597 52.697 187.536 51.048 189.241 46.6184L197.474 25.1592C197.518 25.0512 197.503 24.9292 197.437 24.8334C197.375 24.7384 197.268 24.6811 197.155 24.6811H192.213C192.063 24.6811 191.931 24.7761 191.883 24.9163L186.821 39.497L181.279 24.9067C181.227 24.771 181.099 24.6811 180.956 24.6811H172.847V24.68ZM162.297 24.6589H157.55C157.36 24.6589 157.202 24.8164 157.202 25.0098V45.8936C157.202 46.0896 157.36 46.2449 157.55 46.2449H162.297C162.488 46.2449 162.646 46.0896 162.646 45.8936V25.0113C162.646 24.8179 162.492 24.6604 162.297 24.6604V24.6589ZM159.951 15.1493C158.071 15.1493 156.546 16.6845 156.546 18.581C156.546 20.4785 158.071 22.0156 159.951 22.0156C161.832 22.0156 163.353 20.4785 163.353 18.581C163.353 16.6849 161.828 15.1493 159.951 15.1493ZM201.528 31.3739C199.651 31.3739 198.189 29.8524 198.189 28.0048C198.189 26.1572 199.669 24.6183 201.546 24.6183C203.423 24.6183 204.886 26.1394 204.886 27.9856C204.886 29.8332 203.405 31.3739 201.528 31.3739ZM201.546 24.9532C199.834 24.9532 198.54 26.325 198.54 28.0048C198.54 29.6838 199.827 31.0371 201.528 31.0371C203.24 31.0371 204.534 29.6664 204.534 27.9856C204.534 26.3065 203.247 24.9532 201.546 24.9532ZM202.287 28.332L203.233 29.6661H202.433L201.583 28.4422H200.854V29.6661H200.186V26.1298H201.748C202.565 26.1298 203.101 26.5502 203.101 27.2579C203.104 27.8377 202.771 28.1919 202.29 28.332H202.287ZM201.722 26.7365H200.854V27.855H201.722C202.155 27.855 202.415 27.641 202.415 27.2952C202.415 26.9314 202.155 26.7365 201.722 26.7365Z" fill="#868686"/>
</svg>
