<svg width="118" height="49" viewBox="0 0 118 49" fill="none" xmlns="http://www.w3.org/2000/svg">
<path fill-rule="evenodd" clip-rule="evenodd" d="M117.173 24.9158C117.173 16.7854 113.177 10.37 105.54 10.37C97.8707 10.37 93.2304 16.7854 93.2304 24.8522C93.2304 34.4118 98.7085 39.2392 106.571 39.2392C110.406 39.2392 113.306 38.3817 115.498 37.1749V30.823C113.306 31.9028 110.793 32.5698 107.603 32.5698C104.477 32.5698 101.705 31.4899 101.351 27.7423H117.109C117.109 27.3295 117.173 25.678 117.173 24.9158ZM101.254 21.8986C101.254 18.3098 103.478 16.8171 105.508 16.8171C107.474 16.8171 109.568 18.3098 109.568 21.8986H101.254Z" fill="#868686"/>
<path fill-rule="evenodd" clip-rule="evenodd" d="M80.7914 10.37C77.6334 10.37 75.6033 11.8309 74.4754 12.8472L74.0565 10.8781H66.9671V47.9095L75.0233 46.2262L75.0555 37.2383C76.2156 38.0641 77.9235 39.2392 80.7592 39.2392C86.5274 39.2392 91.78 34.6658 91.78 24.5982C91.7478 15.388 86.4307 10.37 80.7914 10.37ZM78.858 32.2521C76.9567 32.2521 75.8289 31.5852 75.0555 30.7595L75.0233 18.9768C75.8611 18.0557 77.0212 17.4206 78.858 17.4206C81.7904 17.4206 83.8205 20.66 83.8205 24.8205C83.8205 29.0762 81.8226 32.2521 78.858 32.2521Z" fill="#868686"/>
<path fill-rule="evenodd" clip-rule="evenodd" d="M55.8817 8.49612L63.9701 6.78112V0.333984L55.8817 2.01723V8.49612Z" fill="#868686"/>
<path d="M63.9701 10.9099H55.8817V38.6992H63.9701V10.9099Z" fill="#868686"/>
<path fill-rule="evenodd" clip-rule="evenodd" d="M47.213 13.26L46.6974 10.9098H39.7369V38.6992H47.793V19.866C49.6943 17.4205 52.9167 17.8651 53.9157 18.2145V10.9098C52.8845 10.5287 49.1142 9.83002 47.213 13.26Z" fill="#868686"/>
<path fill-rule="evenodd" clip-rule="evenodd" d="M31.101 4.01803L23.2382 5.66951L23.2059 31.1087C23.2059 35.8091 26.7829 39.2708 31.5521 39.2708C34.1945 39.2708 36.128 38.7945 37.1914 38.2228V31.7756C36.1602 32.1885 31.0687 33.6494 31.0687 28.9491V17.6745H37.1914V10.9098H31.0687L31.101 4.01803Z" fill="#868686"/>
<path fill-rule="evenodd" clip-rule="evenodd" d="M9.31748 18.9768C9.31748 17.7382 10.3487 17.2618 12.0566 17.2618C14.5056 17.2618 17.5992 17.9922 20.0483 19.2944V11.8309C17.3736 10.7829 14.7312 10.37 12.0566 10.37C5.51499 10.37 1.16467 13.7365 1.16467 19.3579C1.16467 28.1235 13.41 26.726 13.41 30.5054C13.41 31.9663 12.121 32.4427 10.3164 32.4427C7.64181 32.4427 4.226 31.3629 1.51914 29.902V37.4607C4.51602 38.7311 7.54513 39.271 10.3164 39.271C17.0191 39.271 21.6273 35.9998 21.6273 30.3148C21.595 20.8506 9.31748 22.5338 9.31748 18.9768Z" fill="#868686"/>
</svg>
