<svg width="155" height="37" viewBox="0 0 155 37" fill="none" xmlns="http://www.w3.org/2000/svg">
<g clip-path="url(#clip0_1_1065)">
<path d="M9.41281 14.8357C16.3918 12.4264 17.5798 6.15024 16.6888 0.379758C16.6888 0.171544 16.867 0.0228207 17.0452 0.0823102C23.7273 3.35423 31.2408 10.493 31.2408 21.2011C31.2408 29.4106 24.8855 36.6683 15.6494 36.6683C12.3537 36.8184 9.10193 35.865 6.40735 33.9585C3.71277 32.052 1.72883 29.301 0.768664 26.1398C-0.191502 22.9785 -0.0732117 19.587 1.10487 16.5006C2.28294 13.4141 4.45371 10.8085 7.27456 9.09497C7.45274 8.97599 7.69033 9.09497 7.69033 9.30318C7.77942 10.4037 8.0764 13.17 9.29402 14.8357H9.41281Z" fill="#868686"/>
<path d="M50.9016 30.1544L51.4065 29.5595L52.9805 34.5566L52.7726 34.7648C51.5847 35.8654 49.8028 36.4305 47.5161 36.4305H47.427C45.3481 36.4305 43.7147 35.8356 42.5862 34.7351C41.4577 33.6048 40.8637 31.9093 40.8637 29.7677V16.1446H36.8545V10.6418H40.8637V4.00874H47.0409V10.6418H51.9411V16.1446H47.0112V28.4292C47.0112 28.9943 47.1597 30.8088 48.8822 30.8088C49.7731 30.8088 50.6047 30.4816 50.9016 30.1246V30.1544ZM54.1684 35.8654V10.6716H60.3456V35.8654H54.1684ZM57.2273 0.379883C57.9602 0.379906 58.6768 0.597239 59.2866 1.00449C59.8964 1.41174 60.3722 1.99068 60.654 2.66834C60.9359 3.346 61.0111 4.09205 60.8702 4.81247C60.7294 5.53289 60.3788 6.19542 59.8626 6.71657C59.3464 7.23772 58.6877 7.59416 57.9696 7.74096C57.2514 7.88777 56.506 7.81837 55.8271 7.54151C55.1483 7.26465 54.5665 6.79273 54.1551 6.18522C53.7436 5.5777 53.5209 4.8618 53.5151 4.12772C53.5151 2.10508 55.2078 0.379883 57.2273 0.379883ZM76.9468 10.0469C82.2924 10.0469 85.2325 12.9619 85.2325 18.2862V35.8356H79.0553V19.7735C78.9365 16.918 77.5704 15.6092 74.66 15.6092C72.0466 15.6092 69.938 17.2154 68.8689 18.5837V35.8356H62.6917V10.7013H68.8689V13.3783C70.6508 11.6531 73.5018 10.1064 76.9468 10.1064V10.0469ZM105.784 13.2891V1.45069H111.961V35.8951H105.784V33.2776C104.838 34.2761 103.701 35.0728 102.441 35.6197C101.18 36.1667 99.8219 36.4526 98.4481 36.4603C91.7067 36.4603 87.1926 31.1657 87.1926 23.2833C87.1926 15.3712 91.7067 10.0767 98.4481 10.0767C99.8249 10.083 101.186 10.3712 102.447 10.9236C103.709 11.4761 104.844 12.281 105.784 13.2891ZM105.784 18.6134C105.095 17.7154 104.215 16.9824 103.208 16.4679C102.202 15.9533 101.093 15.6701 99.9627 15.6389C96.1317 15.6389 93.5776 18.7026 93.5776 23.2833C93.5776 27.8343 96.1317 30.898 99.9627 30.898C102.19 30.898 104.625 29.7082 105.784 27.983V18.6134ZM126.394 10.0767C133.7 10.0767 138.778 15.7282 138.778 23.7593V25.4547H120.098C120.722 28.9943 123.513 31.2549 127.315 31.2549C129.72 31.2549 132.363 30.2139 133.878 28.6969L134.294 28.3399L137.234 32.5637L136.937 32.8314C134.154 35.3027 130.526 36.6026 126.81 36.4603C119.088 36.4603 113.653 31.017 113.653 23.2536C113.593 21.5396 113.88 19.8311 114.495 18.2307C115.111 16.6303 116.043 15.1709 117.236 13.9403C118.428 12.7096 119.857 11.733 121.436 11.0691C123.015 10.4052 124.711 10.0676 126.424 10.0767H126.394ZM120.068 20.7848H132.749C132.393 17.0072 129.275 15.282 126.394 15.282C122.058 15.282 120.425 18.5539 120.068 20.8145V20.7848ZM153.716 10.0767H154.162V16.3231L153.627 16.2338C153.181 16.1446 152.617 16.0851 152.053 16.0851C150.063 16.0851 147.301 17.4831 146.262 18.9704V35.8356H140.085V10.6716H146.292V13.4676C148.341 11.326 151.043 10.0767 153.716 10.0767Z" fill="#868686"/>
</g>
<defs>
<clipPath id="clip0_1_1065">
<rect width="155" height="37" fill="white"/>
</clipPath>
</defs>
</svg>
