<svg width="107" height="37" viewBox="0 0 107 37" fill="none" xmlns="http://www.w3.org/2000/svg">
<g clip-path="url(#clip0_1_1074)">
<path d="M6.78924 26.2302C7.23597 27.4138 7.85445 28.4257 8.64481 29.2661C9.43516 30.1066 10.3715 30.7497 11.4538 31.1957C12.5362 31.6417 13.7131 31.8646 14.9845 31.8646C16.2216 31.8646 17.3812 31.633 18.4637 31.1699C19.5461 30.7067 20.491 30.055 21.2985 29.2146C22.1059 28.3741 22.7331 27.3708 23.1798 26.2045C23.6265 25.0382 23.8498 23.7348 23.8498 22.2939V0.0651855H29.2618V36.0839H23.9014V32.7393C22.6987 34.0084 21.2812 34.9861 19.6491 35.6723C18.0168 36.3583 16.2559 36.7013 14.366 36.7013C12.4417 36.7013 10.6464 36.3668 8.97977 35.6979C7.31329 35.029 5.87001 34.0772 4.65027 32.8422C3.43052 31.6072 2.46829 30.1238 1.76393 28.3913C1.05946 26.659 0.707275 24.7295 0.707275 22.6026V0.0651855H6.11921V22.2939C6.11921 23.7348 6.34251 25.0467 6.78924 26.2302Z" fill="#868686"/>
<path d="M38.5905 0.0651855V13.1863C39.7931 11.9856 41.1848 11.0338 42.7654 10.3305C44.346 9.62724 46.0642 9.27565 47.9196 9.27565C49.844 9.27565 51.6477 9.63578 53.3316 10.3561C55.0153 11.0765 56.4755 12.0542 57.7126 13.2892C58.9497 14.5242 59.929 15.982 60.6506 17.6628C61.3722 19.3438 61.7329 21.1276 61.7329 23.0143C61.7329 24.9009 61.3722 26.6761 60.6506 28.3398C59.929 30.0035 58.9497 31.4529 57.7126 32.6877C56.4755 33.9227 55.0153 34.9003 53.3316 35.6207C51.6477 36.3411 49.8438 36.7012 47.9196 36.7012C46.0641 36.7012 44.3375 36.3496 42.7397 35.6463C41.1418 34.9432 39.7416 33.9912 38.5389 32.7906V36.0838H33.3847V0.0651855H38.5905ZM39.1832 26.5646C39.647 27.6624 40.2914 28.6229 41.1161 29.4462C41.9408 30.2695 42.9029 30.9213 44.0024 31.4016C45.1021 31.8818 46.2875 32.1219 47.5589 32.1219C48.796 32.1219 49.9642 31.8818 51.0637 31.4016C52.1632 30.9213 53.1167 30.2696 53.9244 29.4462C54.7318 28.623 55.3761 27.6624 55.8572 26.5646C56.3382 25.467 56.5787 24.2835 56.5787 23.0143C56.5787 21.745 56.3382 20.5529 55.8572 19.4381C55.3761 18.3232 54.7318 17.3542 53.9244 16.5309C53.1168 15.7077 52.1634 15.0644 51.0637 14.6014C49.9641 14.1383 48.7959 13.9066 47.5589 13.9066C46.3219 13.9066 45.1536 14.1382 44.0541 14.6014C42.9545 15.0645 41.9924 15.7077 41.1676 16.5309C40.3431 17.3542 39.6901 18.3232 39.2091 19.4381C38.728 20.5529 38.4875 21.745 38.4875 23.0143C38.4874 24.2835 38.7193 25.467 39.1832 26.5646Z" fill="#868686"/>
<path d="M64.6702 17.7143C65.3573 16.0677 66.3024 14.6185 67.505 13.3664C68.7075 12.1143 70.1337 11.1281 71.783 10.4077C73.4324 9.68738 75.2192 9.32726 77.1434 9.32726C79.0333 9.32726 80.7858 9.6703 82.4008 10.3563C84.0157 11.0424 85.4074 11.9943 86.5757 13.2121C87.744 14.4298 88.6546 15.8707 89.3074 17.5343C89.9603 19.1981 90.2867 21.0076 90.2867 22.963V24.661H68.8967C69.0686 25.7244 69.4122 26.7106 69.9276 27.6195C70.4431 28.5286 71.0872 29.3176 71.8604 29.9865C72.6335 30.6555 73.5097 31.1787 74.4891 31.5559C75.4684 31.9332 76.5077 32.122 77.6074 32.122C80.7343 32.122 83.2599 30.8355 85.1842 28.2627L88.9467 31.0412C87.641 32.7907 86.0261 34.1629 84.1018 35.1577C82.1775 36.1524 80.0128 36.6499 77.6075 36.6499C75.6488 36.6499 73.8191 36.3067 72.1182 35.6207C70.4173 34.9348 68.9398 33.9742 67.6856 32.7392C66.4314 31.5042 65.4436 30.0549 64.722 28.3912C64.0004 26.7276 63.6395 24.918 63.6395 22.9627C63.6393 21.1104 63.983 19.3609 64.6702 17.7143ZM71.9119 15.6818C70.4515 16.8996 69.4809 18.5204 68.9998 20.5443H85.0295C84.5828 18.5204 83.6292 16.8996 82.1688 15.6818C80.7085 14.4641 78.999 13.8552 77.0404 13.8552C75.0818 13.8552 73.3723 14.4641 71.9119 15.6818Z" fill="#868686"/>
<path d="M100.028 16.2736C98.9285 17.4742 98.3787 19.1036 98.3787 21.1618V36.084H93.1729V9.84174H98.327V13.0834C98.98 12.02 99.8304 11.1795 100.878 10.5621C101.926 9.94455 103.172 9.63578 104.615 9.63578H106.419V14.4726H104.254C102.536 14.4727 101.128 15.073 100.028 16.2736Z" fill="#868686"/>
</g>
<defs>
<clipPath id="clip0_1_1074">
<rect width="107" height="37" fill="white"/>
</clipPath>
</defs>
</svg>
