<svg width="170" height="42" viewBox="0 0 170 42" fill="none" xmlns="http://www.w3.org/2000/svg">
<path d="M55.4304 16.4686C55.4304 13.4964 52.4254 10.326 47.4169 10.326C41.8074 10.326 35.3966 14.4871 34.3949 22.8092C33.3932 31.1313 38.602 34.8961 44.0111 34.8961C49.4203 34.8961 52.0247 32.9147 54.8294 30.1406C52.4254 27.1684 49.22 28.5555 48.6189 28.7536C48.0179 29.1499 47.0162 29.5462 45.4135 29.5462C43.4101 29.5462 41.2064 28.5555 41.2064 24.7907C54.4288 23.4037 55.4304 19.4407 55.4304 16.4686ZM49.0196 16.8649C49.0196 17.8556 48.6189 19.4407 42.0078 20.2333C43.4101 15.2797 46.0145 14.8834 47.2166 14.8834C48.4186 15.0815 49.0196 15.8741 49.0196 16.8649ZM26.782 17.6574C26.782 17.6574 23.9773 26.3758 23.777 27.1684C23.777 26.3758 21.5732 10.7223 21.5732 10.7223C16.7651 10.7223 14.1607 14.0908 12.9587 17.6574C12.9587 17.6574 9.55291 26.3758 9.35258 27.1684C9.15224 26.574 8.75156 17.8556 8.75156 17.8556C8.35088 13.4964 4.34411 10.7223 1.13869 10.7223L5.14547 34.4998C10.1539 34.4998 12.9587 31.1313 14.361 27.5647C14.361 27.5647 17.3661 19.837 17.5665 19.4407C17.5665 19.837 19.7702 34.4998 19.7702 34.4998C24.7786 34.4998 27.5834 31.3295 28.9858 27.961L35.9976 10.7223C30.7888 10.7223 28.1844 14.0908 26.782 17.6574ZM74.0619 10.1279C71.0569 10.1279 68.6528 11.7131 66.6494 14.289L68.2521 0.0224609C64.045 0.0224609 60.8396 3.58909 60.0382 8.74088L56.8328 34.3017C59.2369 34.3017 61.6409 33.7072 63.0433 31.9239C64.2453 33.5091 66.0484 34.698 68.6528 34.698C75.6646 34.698 80.4728 26.7721 80.4728 19.2426C80.6731 12.3075 77.2673 10.1279 74.0619 10.1279ZM73.2606 22.4129C72.4592 26.574 70.2555 29.348 67.8514 29.348C65.6477 29.348 64.646 28.3573 64.646 28.3573C65.0467 24.7907 65.4474 22.4129 66.2487 20.4315C67.0501 18.45 69.0535 15.4778 71.0569 15.4778C73.0602 15.676 74.0619 18.2519 73.2606 22.4129ZM98.1026 10.7223H93.2944V10.5242C93.6951 7.35386 94.2961 5.76869 96.9005 5.57054C98.5032 5.3724 99.3046 4.57981 99.5049 3.58909C99.7053 2.7965 100.106 0.220607 100.106 0.220607C90.2894 0.220607 87.2843 4.38167 86.4829 10.7223V10.9205H86.2826C84.6799 10.9205 82.8768 12.7038 82.6765 14.8834L82.4762 15.676H85.6816L82.8768 37.8683L82.0755 41.8312C82.2758 41.8312 82.2758 41.8312 82.4762 41.8312C87.0839 41.6331 89.8887 38.0665 90.69 32.9147L92.8938 15.4778H94.4965C95.8988 15.4778 97.7019 14.0908 98.1026 11.5149V10.7223ZM123.345 10.326C117.736 10.326 112.527 14.4871 110.924 20.8278C109.322 27.1684 111.726 34.8961 119.939 34.8961C128.153 34.8961 132.961 26.9703 132.961 20.4315C132.761 13.8927 128.354 10.326 123.345 10.326ZM125.549 22.2148C125.349 25.187 123.946 29.5462 120.34 29.5462C116.734 29.5462 117.335 24.3944 117.535 22.0166C117.936 19.4407 119.338 15.676 122.544 15.676C125.549 15.676 125.95 19.0445 125.549 22.2148ZM160.608 17.6574C160.608 17.6574 157.803 26.3758 157.603 27.1684C157.603 26.3758 155.399 10.7223 155.399 10.7223C150.591 10.7223 147.987 14.0908 146.785 17.6574C146.785 17.6574 143.379 26.3758 143.179 27.1684C143.179 26.574 142.578 17.8556 142.578 17.8556C142.377 13.4964 138.17 10.9205 134.965 10.9205L138.972 34.698C143.98 34.698 146.785 31.3295 148.187 27.7629C148.187 27.7629 151.192 20.0352 151.393 19.6389C151.393 20.0352 153.596 34.698 153.596 34.698C158.605 34.698 161.41 31.5276 162.812 28.1592L169.423 10.7223C164.415 10.7223 161.81 14.0908 160.608 17.6574ZM102.71 0.220607L98.7036 32.7165L97.9022 36.6794C98.1026 36.6794 98.1026 36.6794 98.3029 36.6794C102.71 36.6794 105.916 32.7165 106.316 27.961L108.721 9.33531C109.322 3.78723 105.715 0.220607 102.71 0.220607Z" fill="#868686"/>
</svg>
