<svg width="228" height="68" viewBox="0 0 228 68" fill="none" xmlns="http://www.w3.org/2000/svg">
<path d="M221.885 40.7697C221.756 41.4159 221.53 41.9651 221.223 42.4495C220.917 42.9335 220.514 43.3218 219.998 43.6281C219.498 43.9193 218.869 44.0801 218.127 44.0801C217.401 44.0801 216.772 43.9352 216.273 43.6281C215.774 43.3358 215.349 42.9326 215.03 42.4495C214.724 41.9655 214.498 41.4159 214.353 40.7697C214.211 40.1283 214.141 39.473 214.143 38.816C214.143 38.1378 214.208 37.4592 214.337 36.8303C214.466 36.1841 214.692 35.619 214.999 35.1345C215.304 34.6332 215.708 34.2463 216.223 33.9237C216.724 33.6165 217.353 33.4552 218.095 33.4552C218.82 33.4552 219.433 33.6165 219.933 33.9237C220.434 34.2339 220.859 34.6532 221.175 35.1505C221.498 35.6509 221.724 36.232 221.869 36.8622C222.013 37.508 222.079 38.1538 222.079 38.816C222.079 39.4781 222.013 40.1239 221.885 40.7697ZM226.175 35.5543C225.868 34.4724 225.417 33.5358 224.804 32.7123C224.175 31.9052 223.401 31.2426 222.465 30.7586C221.53 30.2741 220.401 30.0157 219.095 30.0157C218.062 30.0157 217.127 30.2258 216.272 30.6296C215.417 31.0334 214.707 31.6951 214.159 32.5834H214.095V30.4678H209.772V52.8649H214.32V45.0003H214.384C214.921 45.7904 215.655 46.4254 216.514 46.8414C217.385 47.2612 218.32 47.4713 219.352 47.4713C220.562 47.4713 221.627 47.2293 222.546 46.7608C223.433 46.3057 224.21 45.6606 224.82 44.8713C225.433 44.0801 225.884 43.1755 226.175 42.1424C226.482 41.1088 226.627 40.0437 226.627 38.929C226.627 37.7505 226.482 36.6202 226.175 35.5379V35.5543ZM203.74 40.7697C203.611 41.4159 203.386 41.9651 203.079 42.4495C202.772 42.934 202.369 43.3218 201.853 43.6281C201.353 43.9193 200.724 44.0801 199.983 44.0801C199.256 44.0801 198.644 43.9352 198.127 43.6281C197.629 43.3356 197.204 42.9324 196.885 42.4495C196.579 41.9655 196.353 41.4159 196.209 40.7697C196.066 40.1283 195.996 39.473 195.999 38.816C195.999 38.1378 196.063 37.4592 196.192 36.8303C196.322 36.1841 196.546 35.619 196.853 35.1345C197.16 34.6332 197.563 34.2463 198.079 33.9237C198.579 33.6165 199.208 33.4552 199.949 33.4552C200.676 33.4552 201.288 33.6165 201.789 33.9237C202.29 34.2338 202.714 34.6532 203.03 35.1505C203.353 35.6509 203.579 36.232 203.724 36.8622C203.869 37.508 203.933 38.1538 203.933 38.816C203.933 39.4781 203.869 40.1239 203.74 40.7697ZM206.659 32.7123C206.046 31.9052 205.256 31.2426 204.321 30.7586C203.385 30.2741 202.256 30.0157 200.95 30.0157C199.917 30.0157 198.982 30.2258 198.127 30.6296C197.273 31.0334 196.563 31.6951 196.014 32.5834H195.949V30.4678H191.627V52.8649H196.175V45.0003H196.24C196.776 45.7904 197.511 46.4254 198.37 46.8414C199.24 47.2612 200.175 47.4713 201.207 47.4713C202.433 47.4713 203.481 47.2293 204.402 46.7608C205.289 46.3054 206.065 45.6604 206.675 44.8713C207.289 44.0801 207.74 43.1755 208.047 42.1424C208.344 41.0972 208.496 40.0158 208.498 38.929C208.498 37.7505 208.353 36.6202 208.047 35.5379C207.74 34.4564 207.288 33.5194 206.659 32.6964V32.7123ZM176.724 38.2025L179.708 29.7892H179.772L182.66 38.2025H176.724ZM177.208 24.1377L168.547 47.0511H173.611L175.402 41.9487H183.966L185.692 47.0511H190.917L182.353 24.1377H177.192H177.208ZM168.176 39.7849C167.869 39.268 167.482 38.816 166.982 38.4609C166.498 38.1059 165.934 37.8307 165.305 37.6051C164.667 37.3954 164.021 37.2124 163.369 37.0564C162.724 36.9105 162.095 36.7652 161.482 36.6362C160.869 36.5072 160.304 36.3614 159.837 36.2001C159.353 36.0387 158.966 35.8291 158.676 35.5702C158.369 35.3118 158.224 34.9892 158.224 34.5694C158.224 34.2304 158.305 33.9556 158.482 33.7455C158.659 33.5358 158.869 33.3905 159.111 33.2774C159.353 33.1644 159.627 33.0997 159.934 33.0678C160.212 33.0369 160.492 33.0208 160.772 33.0195C161.579 33.0195 162.288 33.1808 162.886 33.4875C163.482 33.7942 163.821 34.3917 163.869 35.2635H168.192C168.111 34.2299 167.837 33.3905 167.402 32.7119C166.966 32.0333 166.418 31.501 165.757 31.0972C165.095 30.6934 164.337 30.4031 163.498 30.2254C162.66 30.0476 161.789 29.967 160.886 29.967C159.983 29.967 159.112 30.0481 158.257 30.209C157.402 30.3703 156.628 30.6451 155.951 31.0489C155.258 31.4527 154.709 31.9859 154.306 32.6636C153.886 33.3417 153.677 34.2304 153.677 35.2954C153.677 36.0223 153.821 36.6357 154.128 37.1361C154.419 37.6374 154.821 38.0567 155.305 38.3958C155.806 38.7189 156.354 38.9937 156.983 39.2033C157.612 39.413 158.257 39.5912 158.919 39.7361C160.548 40.0752 161.806 40.4142 162.725 40.7533C163.628 41.0924 164.08 41.6092 164.08 42.2873C164.08 42.6911 163.983 43.0301 163.79 43.3045C163.6 43.5726 163.352 43.7935 163.064 43.9503C162.773 44.1116 162.45 44.2251 162.096 44.3053C161.763 44.3812 161.422 44.4191 161.08 44.4183C160.628 44.4183 160.193 44.3704 159.789 44.257C159.37 44.1439 158.999 43.9817 158.677 43.7561C158.354 43.5301 158.096 43.2393 157.887 42.8843C157.677 42.5293 157.58 42.1091 157.58 41.6246H153.257C153.306 42.7385 153.548 43.659 154.016 44.4019C154.467 45.1452 155.064 45.7262 155.774 46.1783C156.483 46.6304 157.306 46.9531 158.225 47.1468C159.145 47.3409 160.08 47.438 161.048 47.438C161.983 47.438 162.918 47.3409 163.822 47.1627C164.725 46.9854 165.532 46.6623 166.241 46.2102C166.951 45.7582 167.515 45.1607 167.951 44.4338C168.386 43.6914 168.612 42.7872 168.612 41.6889C168.612 40.9142 168.467 40.2684 168.16 39.7511L168.176 39.7849ZM149.353 25.4944H144.805V30.4678H142.047V33.5194H144.805V43.3054C144.805 44.1453 144.95 44.8075 145.224 45.3238C145.499 45.8411 145.886 46.228 146.37 46.5192C146.853 46.7936 147.402 46.9873 148.031 47.0843C148.693 47.183 149.362 47.2314 150.031 47.2293C150.483 47.2293 150.934 47.2133 151.418 47.1974C151.845 47.1829 152.271 47.1396 152.692 47.0679V43.5314C152.469 43.5817 152.243 43.614 152.015 43.6281C151.768 43.6474 151.521 43.6582 151.273 43.6604C150.499 43.6604 149.999 43.5314 149.741 43.2726C149.483 43.0146 149.354 42.4974 149.354 41.739V33.5194H152.692V30.4678H149.354V25.4944H149.353ZM136.305 40.6407C136.305 40.8987 136.273 41.2382 136.224 41.6743C136.17 42.1204 136.021 42.5498 135.789 42.934C135.547 43.3542 135.192 43.7092 134.692 44.0163C134.209 44.3226 133.499 44.4684 132.612 44.4684C132.257 44.4684 131.902 44.4356 131.547 44.3714C131.208 44.3062 130.902 44.1932 130.644 44.0323C130.386 43.8705 130.193 43.6609 130.031 43.3701C129.886 43.0958 129.805 42.7567 129.805 42.3365C129.805 41.9004 129.886 41.5613 130.031 41.271C130.176 40.9957 130.386 40.7697 130.628 40.5765C130.87 40.3987 131.16 40.2538 131.499 40.1408C131.838 40.0278 132.16 39.9466 132.515 39.8819C132.879 39.8192 133.245 39.7654 133.611 39.7206C133.982 39.6723 134.322 39.6235 134.66 39.5593C134.999 39.495 135.305 39.4139 135.596 39.3173C135.886 39.2207 136.128 39.0912 136.322 38.9135V40.6093L136.305 40.6407ZM140.853 43.3697V34.7303C140.853 33.7295 140.627 32.922 140.176 32.3085C139.725 31.6947 139.143 31.2266 138.45 30.8876C137.74 30.5485 136.966 30.3225 136.111 30.1935C135.272 30.0787 134.426 30.0193 133.58 30.0157C132.66 30.0157 131.741 30.1128 130.838 30.2906C129.935 30.4683 129.112 30.7745 128.386 31.2111C127.671 31.6369 127.06 32.2161 126.596 32.9069C126.128 33.6174 125.854 34.5052 125.789 35.5711H130.338C130.418 34.6674 130.725 34.0376 131.24 33.6498C131.757 33.2619 132.45 33.0687 133.354 33.0687C133.757 33.0687 134.144 33.1006 134.499 33.1494C134.829 33.1928 135.148 33.3028 135.434 33.4725C135.709 33.6338 135.918 33.8599 136.08 34.1506C136.241 34.4414 136.322 34.8283 136.322 35.3291C136.338 35.7972 136.209 36.1531 135.902 36.4111C135.596 36.653 135.192 36.8472 134.677 36.9762C134.161 37.1051 133.58 37.2022 132.919 37.2669C132.257 37.3316 131.58 37.4123 130.903 37.5253C130.225 37.6383 129.548 37.7833 128.87 37.961C128.193 38.1387 127.596 38.4131 127.079 38.785C126.547 39.1559 126.128 39.6404 125.789 40.2379C125.451 40.8517 125.289 41.6269 125.289 42.5635C125.289 43.4193 125.434 44.1622 125.725 44.7756C125.997 45.3736 126.406 45.8993 126.918 46.31C127.451 46.7247 128.059 47.0318 128.709 47.2142C129.386 47.4079 130.128 47.5045 130.918 47.5045C131.95 47.5045 132.951 47.3596 133.934 47.0524C134.907 46.7551 135.789 46.2165 136.499 45.4865C136.515 45.7609 136.563 46.0348 136.612 46.31C136.66 46.568 136.74 46.8428 136.821 47.1012H141.434C141.225 46.7621 141.063 46.2449 140.983 45.5667C140.897 44.8541 140.854 44.1371 140.854 43.4193V43.3697H140.853ZM122.112 31.9048C121.66 31.3237 121.047 30.8552 120.273 30.5321C119.499 30.193 118.5 30.0312 117.273 30.0312C116.418 30.0312 115.548 30.2573 114.645 30.6934C113.741 31.1296 113.015 31.84 112.435 32.7925H112.338V24.1536H107.79V47.0675H112.338V38.3639C112.338 36.6681 112.613 35.4572 113.177 34.7144C113.726 33.9715 114.629 33.6165 115.87 33.6165C116.951 33.6165 117.725 33.9556 118.145 34.6332C118.564 35.3114 118.79 36.329 118.79 37.7012V47.0675H123.338V36.8622C123.338 35.8286 123.241 34.8926 123.064 34.0526C122.886 33.2127 122.564 32.4863 122.112 31.9048ZM98.0638 39.9466H97.9992L94.0964 24.1541H89.3865L85.4187 39.7529H85.354L81.7248 24.1541H76.6931L82.7572 47.0679H87.8539L91.6602 31.4686H91.7249L95.5958 47.0679H100.596L103.337 36.8946L106.757 24.1541H101.821L98.0638 39.9466Z" fill="#868686"/>
<path d="M34.0325 60.8574C28.4678 60.8574 23.2745 59.178 18.9361 56.3201L8.38751 59.6944L11.8069 49.4891C8.51678 44.9673 6.58177 39.3964 6.58177 33.3894C6.58177 18.2426 18.8878 5.92185 34.0165 5.92185C49.1452 5.92185 61.4513 18.2426 61.4513 33.3894C61.4513 48.5357 49.1452 60.8569 34.0165 60.8569H34.0325V60.8574ZM34.0325 0.721924C16.016 0.721924 1.40399 15.3528 1.40399 33.3898C1.40399 39.5582 3.11368 45.3392 6.08106 50.2643L0.194092 67.785L18.2588 61.9881C23.0872 64.6611 28.515 66.0614 34.0325 66.0573C52.0484 66.0573 66.6609 51.4273 66.6609 33.3898C66.6605 15.3528 52.0484 0.721924 34.0325 0.721924Z" fill="#868686"/>
<path fill-rule="evenodd" clip-rule="evenodd" d="M6.02222 33.5241C6.02222 17.8371 18.7636 5.0769 34.4275 5.0769V5.07738H34.444C50.1078 5.07738 62.8492 17.8376 62.8492 33.5246C62.8492 49.2111 50.1078 61.9718 34.444 61.9718C28.6659 61.9718 23.3054 60.2495 18.8136 57.2727L7.89231 60.7673L11.4327 50.1981C8.02615 45.515 6.02222 39.7454 6.02222 33.5241ZM24.6295 18.5178C25.4357 18.5506 25.839 18.5989 26.3711 19.8745C26.543 20.2899 26.7791 20.8635 27.0379 21.4921C27.7749 23.282 28.6955 25.518 28.8387 25.8169C29.0321 26.2206 29.2261 26.7698 28.9516 27.3025C28.7115 27.8134 28.4994 28.0589 28.1463 28.4674C28.1198 28.498 28.0925 28.5296 28.0644 28.5622C27.8918 28.7627 27.7222 28.9424 27.5531 29.1217C27.3269 29.3613 27.1016 29.6001 26.8709 29.8866C26.8644 29.8941 26.858 29.9017 26.8515 29.9094C26.486 30.3387 26.0888 30.8053 26.5486 31.5983C27.0161 32.3895 28.6288 35.0213 30.9999 37.1364C33.8139 39.642 36.1379 40.5828 37.1861 41.0071C37.2795 41.0449 37.3628 41.0787 37.4354 41.109C38.0963 41.3838 38.887 41.3191 39.3709 40.8023C39.8954 40.2363 40.5258 39.3508 41.1817 38.4293C41.2926 38.2736 41.4042 38.1168 41.5162 37.9603C42.0642 37.1851 42.7575 37.0881 43.4835 37.3624C44.2255 37.6208 48.1451 39.5586 48.9513 39.9624C49.1159 40.0449 49.2691 40.1187 49.4104 40.1867C49.9608 40.4516 50.3295 40.6291 50.4834 40.8989C50.6774 41.238 50.6774 42.8367 50.016 44.7102C49.3546 46.5828 46.7254 48.1337 44.6288 48.5858C43.1936 48.8925 41.3223 49.1349 35.0161 46.519C27.5467 43.4223 22.5399 36.1561 21.5215 34.6782C21.4404 34.5605 21.3846 34.4795 21.3549 34.4403C21.3436 34.4246 21.3301 34.4062 21.3146 34.385C20.8022 33.6836 18.0971 29.9808 18.0971 26.1559C18.0971 22.3261 19.9866 20.4036 20.8328 19.5427C20.8572 19.5178 20.8808 19.4939 20.9034 19.4708C21.5647 18.7926 22.6613 18.4859 23.7101 18.4859C24.0168 18.4874 24.3234 18.4981 24.6295 18.5178Z" fill="#868686"/>
</svg>
