<svg width="145" height="34" viewBox="0 0 145 34" fill="none" xmlns="http://www.w3.org/2000/svg">
<path fill-rule="evenodd" clip-rule="evenodd" d="M117.609 10.8731C118.156 11.815 118.335 12.8866 118.394 14.0913L118.472 15.6971V26.9255L118.552 28.5329C118.71 31.158 120.651 33.099 123.304 33.2642L124.907 33.3434V15.6971L124.986 14.0913C125.052 12.9001 125.23 11.8082 125.785 10.8596C126.352 9.88664 127.165 9.07938 128.143 8.5189C129.121 7.95842 130.23 7.66444 131.358 7.66649C132.486 7.66854 133.593 7.96654 134.569 8.53057C135.545 9.0946 136.355 9.90481 136.918 10.8799C137.466 11.8217 137.636 12.9136 137.702 14.0913L137.782 15.692V26.9255L137.861 28.5329C138.026 31.1715 139.952 33.1125 142.613 33.2642L144.216 33.3434V14.0913C144.216 10.687 142.861 7.42212 140.448 5.01445C138.035 2.60678 134.762 1.25349 131.348 1.25215C129.522 1.25023 127.715 1.63717 126.05 2.38711C124.385 3.13706 122.9 4.23274 121.694 5.60096C120.487 4.23328 119.001 3.13786 117.337 2.38769C115.672 1.63753 113.866 1.24984 112.039 1.25047C109.366 1.25047 106.886 2.05924 104.832 3.45604C103.579 2.06092 100.774 1.25047 99.1644 1.25047V33.3434L100.774 33.2642C103.467 33.0872 105.413 31.1984 105.518 28.5329L105.604 26.9255V15.6971L105.684 14.0913C105.751 12.8799 105.92 11.815 106.469 10.8664C107.036 9.89399 107.849 9.08692 108.826 8.52575C109.803 7.96458 110.911 7.66895 112.039 7.66837C113.168 7.66861 114.276 7.96483 115.254 8.52732C116.232 9.08981 117.044 9.89878 117.609 10.8731ZM7.45748 33.2658L9.06744 33.3434H33.2L33.1206 31.7427C32.9026 29.1041 31.0291 27.1765 28.3751 27.0046L26.7652 26.9255H12.2874L31.59 7.66669L31.5106 6.06769C31.3856 3.40213 29.4327 1.47625 26.7652 1.32966L25.1552 1.25721L1.02271 1.25047L1.10211 2.85621C1.31328 5.46954 3.21381 7.43754 5.84583 7.58918L7.45748 7.66837H21.9353L2.63267 26.9271L2.71207 28.5329C2.87087 31.1782 4.78491 33.094 7.45748 33.2642V33.2658ZM92.8479 5.94806C94.3422 7.43807 95.5275 9.20708 96.3362 11.154C97.1449 13.101 97.5611 15.1878 97.5611 17.2952C97.5611 19.4027 97.1449 21.4894 96.3362 23.4364C95.5275 25.3834 94.3422 27.1524 92.8479 28.6424C89.829 31.6509 85.736 33.3409 81.4684 33.3409C77.2007 33.3409 73.1077 31.6509 70.0888 28.6424C63.8061 22.3761 63.8061 12.2143 70.0888 5.94806C71.5817 4.45854 73.3541 3.27689 75.3049 2.47059C77.2557 1.66428 79.3466 1.24911 81.4582 1.24878C83.5733 1.24732 85.6679 1.66176 87.6223 2.46839C89.5766 3.27503 91.3524 4.45803 92.8479 5.94974V5.94806ZM88.2951 10.4923C90.1047 12.2986 91.1213 14.7476 91.1213 17.3011C91.1213 19.8546 90.1047 22.3037 88.2951 24.1099C86.484 25.9148 84.0286 26.9287 81.4684 26.9287C78.9082 26.9287 76.4527 25.9148 74.6417 24.1099C72.832 22.3037 71.8155 19.8546 71.8155 17.3011C71.8155 14.7476 72.832 12.2986 74.6417 10.4923C76.4527 8.6874 78.9082 7.67352 81.4684 7.67352C84.0286 7.67352 86.484 8.6874 88.2951 10.4923ZM47.6913 1.24878C49.8031 1.24933 51.894 1.66477 53.8448 2.47136C55.7956 3.27796 57.5679 4.45992 59.0607 5.94974C65.3451 12.2143 65.3451 22.3778 59.0607 28.6424C56.0418 31.6509 51.9488 33.3409 47.6812 33.3409C43.4135 33.3409 39.3205 31.6509 36.3016 28.6424C30.0189 22.3761 30.0189 12.2143 36.3016 5.94806C37.7945 4.45854 39.5669 3.27689 41.5177 2.47059C43.4685 1.66428 45.5594 1.24911 47.671 1.24878H47.6913ZM54.5079 10.4889C56.318 12.2953 57.3349 14.7447 57.3349 17.2986C57.3349 19.8525 56.318 22.3019 54.5079 24.1082C52.6968 25.9132 50.2414 26.927 47.6812 26.927C45.1209 26.927 42.6655 25.9132 40.8545 24.1082C39.0448 22.302 38.0282 19.8529 38.0282 17.2994C38.0282 14.7459 39.0448 12.2969 40.8545 10.4906C42.6655 8.68572 45.1209 7.67184 47.6812 7.67184C50.2414 7.67184 52.6968 8.68572 54.5079 10.4906V10.4889Z" fill="#868686"/>
</svg>
