<svg width="1317" height="668" viewBox="0 0 1317 668" fill="none" xmlns="http://www.w3.org/2000/svg">
<g filter="url(#filter0_d_1_1378)">
<path d="M294.084 590.318C204.339 590.318 194.019 590.615 59.1087 591.275L50.1267 594.425C64.4454 598.502 107.411 610 122.461 610H1071.77C1080.43 610 1097.96 606.265 1113.59 602.451C1129.88 598.478 1144.11 594.425 1144.11 594.425L1135.13 591.275C584.128 590.664 391.914 590.318 294.084 590.318Z" fill="#E8ECF7"/>
</g>
<path d="M1012.81 0.64386H180.935C174.234 0.65196 167.811 3.32175 163.078 8.06572C158.345 12.8097 155.69 19.239 155.697 25.9402V575.858C155.691 579.675 156.551 583.444 158.213 586.882H1035.53C1037.2 583.445 1038.06 579.676 1038.06 575.858V25.9343C1038.06 19.2339 1035.4 12.8059 1030.67 8.06333C1025.94 3.32076 1019.52 0.65196 1012.81 0.64386Z" fill="#F2F6FE"/>
<path d="M596.873 17.4213C598.507 17.4213 599.831 16.1024 599.831 14.4755C599.831 12.8485 598.507 11.5296 596.873 11.5296C595.24 11.5296 593.915 12.8485 593.915 14.4755C593.915 16.1024 595.24 17.4213 596.873 17.4213Z" fill="#C5CCDD"/>
<path d="M294.084 590.318C204.339 590.318 194.019 590.615 59.1087 591.275L50.1267 594.425C64.4454 598.502 107.411 610 122.461 610H1071.77C1080.43 610 1097.96 606.265 1113.59 602.451C1129.88 598.478 1144.11 594.425 1144.11 594.425L1135.13 591.275C584.128 590.664 391.914 590.318 294.084 590.318Z" fill="url(#paint0_linear_1_1378)"/>
<path d="M1142.28 586.383H52.1633C51.7474 586.384 51.3356 586.466 50.9514 586.626C50.5673 586.785 50.2183 587.019 49.9245 587.313C49.6307 587.608 49.398 587.957 49.2393 588.342C49.0807 588.726 48.9994 589.138 49 589.554V591.579C48.9994 591.995 49.0807 592.407 49.2393 592.792C49.398 593.176 49.6307 593.526 49.9245 593.82C50.2183 594.115 50.5673 594.349 50.9514 594.508C51.3356 594.668 51.7474 594.75 52.1633 594.75H1142.28C1142.69 594.75 1143.1 594.668 1143.49 594.508C1143.87 594.349 1144.22 594.115 1144.51 593.821C1144.81 593.526 1145.04 593.177 1145.2 592.792C1145.36 592.408 1145.44 591.995 1145.44 591.579V589.554C1145.44 589.138 1145.36 588.726 1145.2 588.342C1145.04 587.957 1144.81 587.607 1144.51 587.313C1144.22 587.018 1143.87 586.785 1143.49 586.625C1143.1 586.466 1142.69 586.383 1142.28 586.383Z" fill="white"/>
<path d="M675.752 586.254H518.068C526.464 589.889 535.515 591.766 544.663 591.77H649.166C658.313 591.762 667.361 589.885 675.757 586.254" fill="url(#paint1_linear_1_1378)"/>
<defs>
<filter id="filter0_d_1_1378" x="0.97509" y="472.988" width="1369.87" height="295.566" filterUnits="userSpaceOnUse" color-interpolation-filters="sRGB">
<feFlood flood-opacity="0" result="BackgroundImageFix"/>
<feColorMatrix in="SourceAlpha" type="matrix" values="0 0 0 0 0 0 0 0 0 0 0 0 0 0 0 0 0 0 127 0" result="hardAlpha"/>
<feOffset dx="88.79" dy="20.612"/>
<feGaussianBlur stdDeviation="68.9708"/>
<feColorMatrix type="matrix" values="0 0 0 0 0.0911979 0 0 0 0 0.117884 0 0 0 0 0.2125 0 0 0 1 0"/>
<feBlend mode="normal" in2="BackgroundImageFix" result="effect1_dropShadow_1_1378"/>
<feBlend mode="normal" in="SourceGraphic" in2="effect1_dropShadow_1_1378" result="shape"/>
</filter>
<linearGradient id="paint0_linear_1_1378" x1="597.119" y1="614.921" x2="597.119" y2="585.397" gradientUnits="userSpaceOnUse">
<stop stop-color="#BBBECD"/>
<stop offset="0.27" stop-color="#D2D4DE"/>
<stop offset="1" stop-color="white"/>
</linearGradient>
<linearGradient id="paint1_linear_1_1378" x1="596.913" y1="593.149" x2="596.913" y2="584.875" gradientUnits="userSpaceOnUse">
<stop stop-color="#C5DAE6"/>
<stop offset="0.27" stop-color="#D9E2F2"/>
<stop offset="1" stop-color="white"/>
</linearGradient>
</defs>
</svg>
