<svg width="430" height="413" viewBox="0 0 430 413" fill="none" xmlns="http://www.w3.org/2000/svg">
<g filter="url(#filter0_d_2106_832)">
<path d="M82.8776 254.742C44.1072 254.742 39.6489 254.87 -18.6329 255.156L-22.5132 256.517C-16.3275 258.278 2.23396 263.245 8.73547 263.245H418.843C422.583 263.245 430.156 261.631 436.91 259.984C443.945 258.268 450.094 256.517 450.094 256.517L446.212 255.156C208.178 254.892 125.141 254.742 82.8776 254.742Z" fill="#E8ECF7"/>
</g>
<path d="M393.373 0H33.9968C31.1018 0.00349926 28.3268 1.15686 26.2821 3.20628C24.2375 5.25569 23.0905 8.03321 23.0938 10.9282V248.495C23.0912 250.145 23.4628 251.773 24.1806 253.258H403.188C403.906 251.773 404.279 250.145 404.277 248.495V10.9256C404.279 8.031 403.132 5.25406 401.087 3.20525C399.042 1.15643 396.268 0.00349941 393.373 0Z" fill="#F2F6FE"/>
<path d="M213.684 7.24874C214.39 7.24874 214.962 6.6788 214.962 5.97575C214.962 5.2727 214.39 4.70276 213.684 4.70276C212.978 4.70276 212.406 5.2727 212.406 5.97575C212.406 6.6788 212.978 7.24874 213.684 7.24874Z" fill="#C5CCDD"/>
<path d="M82.8776 254.742C44.1072 254.742 39.6489 254.87 -18.6329 255.156L-22.5132 256.517C-16.3275 258.278 2.23396 263.245 8.73547 263.245H418.843C422.583 263.245 430.156 261.631 436.91 259.984C443.945 258.268 450.094 256.517 450.094 256.517L446.212 255.156C208.178 254.892 125.141 254.742 82.8776 254.742Z" fill="url(#paint0_linear_2106_832)"/>
<path d="M449.3 253.042H-21.6334C-21.8131 253.042 -21.991 253.078 -22.157 253.147C-22.3229 253.216 -22.4737 253.317 -22.6006 253.444C-22.7275 253.571 -22.8281 253.722 -22.8966 253.888C-22.9651 254.054 -23.0003 254.232 -23 254.412V255.287C-23.0003 255.467 -22.9651 255.645 -22.8966 255.811C-22.8281 255.977 -22.7275 256.128 -22.6006 256.255C-22.4737 256.382 -22.3229 256.483 -22.157 256.552C-21.991 256.621 -21.8131 256.657 -21.6334 256.657H449.3C449.48 256.657 449.658 256.621 449.824 256.552C449.99 256.483 450.141 256.383 450.268 256.255C450.395 256.128 450.495 255.977 450.564 255.811C450.632 255.645 450.667 255.467 450.667 255.287V254.412C450.667 254.232 450.632 254.054 450.564 253.888C450.495 253.722 450.395 253.571 450.268 253.444C450.141 253.317 449.99 253.216 449.824 253.147C449.658 253.078 449.48 253.042 449.3 253.042Z" fill="white"/>
<path d="M247.76 252.986H179.64C183.267 254.557 187.177 255.368 191.129 255.369H236.274C240.226 255.366 244.135 254.555 247.762 252.986" fill="url(#paint1_linear_2106_832)"/>
<defs>
<filter id="filter0_d_2106_832" x="-71.6648" y="137.412" width="748.49" height="284.386" filterUnits="userSpaceOnUse" color-interpolation-filters="sRGB">
<feFlood flood-opacity="0" result="BackgroundImageFix"/>
<feColorMatrix in="SourceAlpha" type="matrix" values="0 0 0 0 0 0 0 0 0 0 0 0 0 0 0 0 0 0 127 0" result="hardAlpha"/>
<feOffset dx="88.79" dy="20.612"/>
<feGaussianBlur stdDeviation="68.9708"/>
<feColorMatrix type="matrix" values="0 0 0 0 0.0911979 0 0 0 0 0.117884 0 0 0 0 0.2125 0 0 0 1 0"/>
<feBlend mode="normal" in2="BackgroundImageFix" result="effect1_dropShadow_2106_832"/>
<feBlend mode="normal" in="SourceGraphic" in2="effect1_dropShadow_2106_832" result="shape"/>
</filter>
<linearGradient id="paint0_linear_2106_832" x1="213.79" y1="265.371" x2="213.79" y2="252.616" gradientUnits="userSpaceOnUse">
<stop stop-color="#BBBECD"/>
<stop offset="0.27" stop-color="#D2D4DE"/>
<stop offset="1" stop-color="white"/>
</linearGradient>
<linearGradient id="paint1_linear_2106_832" x1="213.701" y1="255.965" x2="213.701" y2="252.391" gradientUnits="userSpaceOnUse">
<stop stop-color="#C5DAE6"/>
<stop offset="0.27" stop-color="#D9E2F2"/>
<stop offset="1" stop-color="white"/>
</linearGradient>
</defs>
</svg>
